<svg xmlns="http://www.w3.org/2000/svg" width="600" height="3000" viewBox="0 0 158.75 793.75"><defs><path id="w" d="M162.459 1339.568H279.19v34.038H162.459z"/><path id="u" d="M280.05 1235.141h68.139v42.771H280.05z"/><path id="t" d="M449.218 65.476h33.025v32.448h-33.025z"/><path id="q" d="M119.555 369.442h51.656v35.639h-51.656z"/><path id="o" d="M97.941 646.841h47.456v36.118H97.941z"/><path id="k" d="M544.713 650.223h40.012v36.079h-40.012z"/><path id="h" d="M278.485 415.704h62.063v42.261h-62.063z"/><path id="g" d="M363.027 408.126h57.752v55.903h-57.752z"/><path id="f" d="M169.438 415.892h144.639v81.264H169.438z"/><path id="a" d="M14.956 21.762h203.46v62.901H14.956z"/><path id="i" d="M278.486 415.704h62.063v42.261h-62.063z"/><path id="l" d="M544.713 650.223h40.012v36.079h-40.012z"/><path id="n" d="M363.027 408.126h57.752v55.903h-57.752z"/><path id="s" d="M119.555 369.442h51.656v35.639h-51.656z"/><path id="p" d="M97.941 646.841h47.456v36.118H97.941z"/><path id="y" d="M278.486 415.704h62.063v42.261h-62.063z"/><marker id="c" markerHeight="1" markerWidth="1" orient="auto-start-reverse" preserveAspectRatio="xMidYMid" refX="0" refY="0" style="overflow:visible" viewBox="0 0 1 1"><path d="M3-3 0 0l3 3" style="fill:none;stroke:context-stroke;stroke-width:1;stroke-linecap:butt" transform="rotate(180 .125 0)"/></marker><marker id="b" markerHeight="1" markerWidth="1" orient="auto-start-reverse" preserveAspectRatio="xMidYMid" refX="0" refY="0" style="overflow:visible" viewBox="0 0 1 1"><path d="M3-3 0 0l3 3" style="fill:none;stroke:context-stroke;stroke-width:1;stroke-linecap:butt" transform="rotate(180 .125 0)"/></marker><marker id="d" markerHeight="1" markerWidth="1" orient="auto-start-reverse" preserveAspectRatio="xMidYMid" refX="0" refY="0" style="overflow:visible" viewBox="0 0 1 1"><path d="M3-3 0 0l3 3" style="fill:none;stroke:context-stroke;stroke-width:1;stroke-linecap:butt" transform="rotate(180 .125 0)"/></marker><marker id="e" markerHeight="1" markerWidth="1" orient="auto-start-reverse" preserveAspectRatio="xMidYMid" refX="0" refY="0" style="overflow:visible" viewBox="0 0 1 1"><path d="M3-3 0 0l3 3" style="fill:none;stroke:context-stroke;stroke-width:1;stroke-linecap:butt" transform="rotate(180 .125 0)"/></marker><marker id="j" markerHeight="1" markerWidth="1" orient="auto-start-reverse" preserveAspectRatio="xMidYMid" refX="0" refY="0" style="overflow:visible" viewBox="0 0 1 1"><path d="M3-3 0 0l3 3" style="fill:none;stroke:context-stroke;stroke-width:1;stroke-linecap:butt" transform="rotate(180 .125 0)"/></marker><marker id="m" markerHeight="1" markerWidth="1" orient="auto-start-reverse" preserveAspectRatio="xMidYMid" refX="0" refY="0" style="overflow:visible" viewBox="0 0 1 1"><path d="M3-3 0 0l3 3" style="fill:none;stroke:context-stroke;stroke-width:1;stroke-linecap:butt" transform="rotate(180 .125 0)"/></marker><marker id="r" markerHeight="1" markerWidth="1" orient="auto-start-reverse" preserveAspectRatio="xMidYMid" refX="0" refY="0" style="overflow:visible" viewBox="0 0 1 1"><path d="M3-3 0 0l3 3" style="fill:none;stroke:context-stroke;stroke-width:1;stroke-linecap:butt" transform="rotate(180 .125 0)"/></marker><marker id="v" markerHeight="1" markerWidth="1" orient="auto-start-reverse" preserveAspectRatio="xMidYMid" refX="0" refY="0" style="overflow:visible" viewBox="0 0 1 1"><path d="M3-3 0 0l3 3" style="fill:none;stroke:context-stroke;stroke-width:1;stroke-linecap:butt" transform="rotate(180 .125 0)"/></marker><marker id="x" markerHeight="1" markerWidth="1" orient="auto-start-reverse" preserveAspectRatio="xMidYMid" refX="0" refY="0" style="overflow:visible" viewBox="0 0 1 1"><path d="M3-3 0 0l3 3" style="fill:none;stroke:context-stroke;stroke-width:1;stroke-linecap:butt" transform="rotate(180 .125 0)"/></marker></defs><path d="M20.237 122.964h129.459v116.221H20.237z" style="fill:#fff;stroke:#fff;stroke-width:.264582;stroke-linejoin:bevel"/><path d="M17.293 16.547h109.402v83.219H17.293z" style="fill:#fff;stroke:#fff;stroke-width:.264583;stroke-linejoin:bevel"/><text xml:space="preserve" style="font-size:14.6667px;line-height:1.25;font-family:sans-serif;white-space:pre;shape-inside:url(#a);display:inline" transform="scale(.26458)"><tspan x="14.955" y="34.738">myPartW.svg</tspan></text><path d="M44.963 41.426h62.564v41.015H44.963z" style="fill:none;stroke:#00f;stroke-width:.264583;stroke-linejoin:bevel"/><path d="M52.049 48.512h48.393v26.843H52.049zM-26.309 43.134h7.086v7.086h-7.086zM-26.309 66.944h7.086v7.086h-7.086z" style="fill:none;stroke:#00f;stroke-width:.264583;stroke-linejoin:bevel"/><path d="M44.963 25.022h62.564" style="fill:none;stroke:#000;stroke-width:.264583px;stroke-linecap:butt;stroke-linejoin:miter;stroke-opacity:1;marker-start:url(#b);marker-end:url(#b)"/><path d="M28.559 41.426V82.44" style="fill:none;stroke:#000;stroke-width:.264583px;stroke-linecap:butt;stroke-linejoin:miter;stroke-opacity:1;marker-start:url(#c);marker-end:url(#c)"/><path d="M94.151 75.371v6.932" style="fill:none;stroke:#000;stroke-width:.264582px;stroke-linecap:butt;stroke-linejoin:miter;stroke-opacity:1;marker-start:url(#d);marker-end:url(#d)"/><path d="M100.815 62.82h6.603" style="fill:none;stroke:#000;stroke-width:.264582px;stroke-linecap:butt;stroke-linejoin:miter;stroke-opacity:1;marker-start:url(#e);marker-end:url(#e)"/><text xml:space="preserve" style="font-size:14.6667px;line-height:1.25;font-family:sans-serif;white-space:pre;shape-inside:url(#f);display:inline" transform="translate(-22.504 -50.116)scale(.26458)"><tspan x="169.438" y="428.869">T1</tspan></text><text xml:space="preserve" style="font-size:14.6667px;line-height:1.25;font-family:sans-serif;white-space:pre;shape-inside:url(#g);display:inline" transform="translate(-21.985 -88.002)scale(.26458)"><tspan x="363.027" y="421.104">W1</tspan></text><text xml:space="preserve" style="font-size:14.6667px;line-height:1.25;font-family:sans-serif;white-space:pre;shape-inside:url(#h);display:inline" transform="translate(20.797 -33.121)scale(.26458)"><tspan x="278.486" y="428.68">E1</tspan></text><text xml:space="preserve" style="font-size:14.6667px;line-height:1.25;font-family:sans-serif;white-space:pre;shape-inside:url(#i);display:inline" transform="translate(27.962 -51.945)scale(.26458)"><tspan x="278.486" y="428.68">E1</tspan></text><path d="M47.802 180.929h62.564v47.389H47.802zM-42.586 119.224h19.688v40.321h-19.688z" style="fill:none;stroke:#00f;stroke-width:.264583;stroke-linejoin:bevel"/><path d="M210.013 47.933 170.378 99.56M210.212 37.92l-44.549 58.019M170.378 99.559l-4.717-3.621M209.913 47.748l39.92 51.997M249.919 99.559l4.717-3.621M210.212 37.92l44.4 57.832" style="fill:none;stroke:#000;stroke-width:.264583px;stroke-linecap:butt;stroke-linejoin:miter;stroke-opacity:1"/><path d="m78.961 139.731-44.548 58.02 4.715 3.62 39.635-51.626 39.82 51.811 4.778-3.992-44.4-57.833M89.589 273.534l-44.55 58.02 4.716 3.62 39.635-51.626 39.82 51.81 4.778-3.992-44.4-57.832" style="fill:none;stroke:green;stroke-width:.264583px;stroke-linecap:butt;stroke-linejoin:miter;stroke-opacity:1"/><path d="M110.367 180.93h28.139" style="fill:none;stroke:#b3b3b3;stroke-width:.264583px;stroke-linecap:butt;stroke-linejoin:miter;stroke-opacity:1"/><path d="M78.962 139.731h59.421" style="fill:none;stroke:#b3b3b3;stroke-width:.264584px;stroke-linecap:butt;stroke-linejoin:miter;stroke-opacity:1"/><path d="M138.506 139.856v41.124" style="fill:none;stroke:#000;stroke-width:.264583px;stroke-linecap:butt;stroke-linejoin:miter;stroke-opacity:1;marker-start:url(#c);marker-end:url(#c)"/><path d="M110.367 228.318h28.139" style="fill:none;stroke:#b3b3b3;stroke-width:.264583px;stroke-linecap:butt;stroke-linejoin:miter;stroke-opacity:1"/><path d="M138.506 181.028v46.927" style="fill:none;stroke:#000;stroke-width:.264583px;stroke-linecap:butt;stroke-linejoin:miter;stroke-opacity:1;marker-start:url(#j);marker-end:url(#j)"/><text xml:space="preserve" style="font-size:14.6667px;line-height:1.25;font-family:sans-serif;white-space:pre;shape-inside:url(#k);display:inline" transform="translate(-5.11 30.434)scale(.26458)"><tspan x="544.713" y="663.199">H1</tspan></text><text xml:space="preserve" style="font-size:14.6667px;line-height:1.25;font-family:sans-serif;white-space:pre;shape-inside:url(#l);display:inline" transform="translate(-5.092 -15.566)scale(.26458)"><tspan x="544.713" y="663.199">H2</tspan></text><path d="M47.802 230.435h62.565" style="fill:none;stroke:#000;stroke-width:.264583px;stroke-linecap:butt;stroke-linejoin:miter;stroke-opacity:1;marker-start:url(#m);marker-end:url(#m)"/><text xml:space="preserve" style="font-size:14.6667px;line-height:1.25;font-family:sans-serif;white-space:pre;shape-inside:url(#n);display:inline" transform="translate(-20.005 123.831)scale(.26458)"><tspan x="363.027" y="421.104">W1</tspan></text><path d="m38.07 202.958-4.715-3.62" style="fill:none;stroke:#000;stroke-width:.264583px;stroke-linecap:butt;stroke-linejoin:miter;stroke-opacity:1;marker-start:url(#c);marker-end:url(#c)"/><text xml:space="preserve" style="font-size:14.6667px;line-height:1.25;font-family:sans-serif;white-space:pre;shape-inside:url(#o);display:inline" transform="translate(5.139 30.752)scale(.26458)"><tspan x="97.941" y="659.818">E2</tspan></text><path d="m69.572 309.36-4.715-3.62" style="fill:none;stroke:#000;stroke-width:.264583px;stroke-linecap:butt;stroke-linejoin:miter;stroke-opacity:1"/><text xml:space="preserve" style="font-size:14.6667px;line-height:1.25;font-family:sans-serif;white-space:pre;shape-inside:url(#p);display:inline" transform="translate(33.985 142.189)scale(.26458)"><tspan x="97.941" y="659.818">E2</tspan></text><path d="M47.802 180.929v-23.391M34.413 197.75v-39.325" style="fill:none;stroke:#b3b3b3;stroke-width:.264583px;stroke-linecap:butt;stroke-linejoin:miter;stroke-opacity:1"/><path d="M34.413 158.425h13.19" style="fill:none;stroke:#000;stroke-width:.264583px;stroke-linecap:butt;stroke-linejoin:miter;stroke-opacity:1;marker-start:url(#c);marker-end:url(#c)"/><text xml:space="preserve" style="font-size:14.6667px;line-height:1.25;font-family:sans-serif;white-space:pre;shape-inside:url(#q);display:inline" transform="translate(6.502 55.606)scale(.26458)"><tspan x="119.555" y="382.418">L1</tspan></text><path d="M31.652 28.498h44.461v66.871H31.652z" style="fill:none;stroke:green;stroke-width:.264583;stroke-linejoin:bevel"/><path d="M31.773 82.44h13.19" style="fill:none;stroke:#000;stroke-width:.264583px;stroke-linecap:butt;stroke-linejoin:miter;stroke-opacity:1;marker-start:url(#r);marker-end:url(#r)"/><text xml:space="preserve" style="font-size:14.6667px;line-height:1.25;font-family:sans-serif;white-space:pre;shape-inside:url(#s);display:inline" transform="translate(3.862 -20.378)scale(.26458)"><tspan x="119.555" y="382.418">L1</tspan></text><path d="M76.377 28.498h44.461v66.871H76.377z" style="fill:none;stroke:green;stroke-width:.264583;stroke-linejoin:bevel"/><path d="M44.963 41.426H28.559M44.963 25.022v16.404" style="fill:none;stroke:#b3b3b3;stroke-width:.264583px;stroke-linecap:butt;stroke-linejoin:miter;stroke-opacity:1"/><path d="M107.527 28.883v12.543" style="fill:none;stroke:#000;stroke-width:.264583px;stroke-linecap:butt;stroke-linejoin:miter;stroke-opacity:1;marker-start:url(#c);marker-end:url(#c)"/><text xml:space="preserve" style="font-size:14.6667px;line-height:1.25;font-family:sans-serif;white-space:pre;shape-inside:url(#t);display:inline" transform="translate(-10.663 15.902)scale(.26458)"><tspan x="449.217" y="78.451">L2</tspan></text><path d="M55.821 309.36h27.502" style="fill:none;stroke:#999;stroke-width:.264582px;stroke-linecap:butt;stroke-linejoin:miter;stroke-opacity:1"/><path d="M69.572 309.36v-18.867" style="fill:none;stroke:#ccc;stroke-width:.264583px;stroke-linecap:butt;stroke-linejoin:miter;stroke-opacity:1"/><path d="M72.644 305.29s1.78.643 2.191 1.408c.403.752-.04 2.557-.04 2.557" style="fill:none;stroke:purple;stroke-width:.264583px;stroke-linecap:butt;stroke-linejoin:miter;stroke-opacity:1"/><text xml:space="preserve" style="font-size:14.6667px;line-height:1.25;font-family:sans-serif;white-space:pre;shape-inside:url(#u);display:inline;fill:purple" transform="translate(1.698 -22.69)scale(.26458)"><tspan x="280.051" y="1248.117">a</tspan></text><path d="M67.018 307.448s.136-1.429.615-1.874c.471-.437 1.864-.452 1.864-.452M63.63 307.3s.899.312 1.106.683c.203.365-.02 1.24-.02 1.24" style="fill:none;stroke:purple;stroke-width:.264583px;stroke-linecap:butt;stroke-linejoin:miter;stroke-opacity:1"/><path d="m61.844 319.52-4.715-3.62" style="fill:none;stroke:#000;stroke-width:.264583px;stroke-linecap:butt;stroke-linejoin:miter;stroke-opacity:1;marker-start:url(#v);marker-end:url(#v)"/><path d="M49.755 351.143v-15.97M45.04 351.143v-19.59" style="fill:none;stroke:#ccc;stroke-width:.264583px;stroke-linecap:butt;stroke-linejoin:miter;stroke-opacity:1"/><path d="M45.021 351.143h4.367" style="fill:none;stroke:#000;stroke-width:.264583px;stroke-linecap:butt;stroke-linejoin:miter;stroke-opacity:1;marker-start:url(#c);marker-end:url(#c)"/><text xml:space="preserve" style="font-size:14.6667px;line-height:1.25;font-family:sans-serif;white-space:pre;shape-inside:url(#w)" transform="scale(.26458)"><tspan x="162.459" y="1352.545">cos(Pi/2-a)*E2</tspan></text><path d="M57.879 180.929h42.411v47.389H57.879z" style="fill:none;stroke:teal;stroke-width:.264583;stroke-linejoin:bevel"/><path d="M100.781 218.61h9.36" style="fill:none;stroke:#000;stroke-width:.264582px;stroke-linecap:butt;stroke-linejoin:miter;stroke-opacity:1;marker-start:url(#x);marker-end:url(#x)"/><text xml:space="preserve" style="font-size:14.6667px;line-height:1.25;font-family:sans-serif;white-space:pre;shape-inside:url(#y);display:inline" transform="translate(29.306 103.599)scale(.26458)"><tspan x="278.486" y="428.68">E1</tspan></text></svg>