<svg xmlns="http://www.w3.org/2000/svg" width="290.204" height="246.418" viewBox="0 0 76.783 65.198"><defs><marker id="b" markerHeight="1" markerWidth="1" orient="auto-start-reverse" preserveAspectRatio="xMidYMid" refX="0" refY="0" style="overflow:visible" viewBox="0 0 1 1"><path d="M-.211-4.106 6.21-.894a1 1 90 0 1 0 1.788L-.21 4.106A1.236 1.236 31.717 0 1-2 3v-6A1.236 1.236 148.283 0 1-.211-4.106" style="fill:context-stroke;fill-rule:evenodd;stroke:none" transform="scale(.7)"/></marker><marker id="d" markerHeight="1" markerWidth="1" orient="auto-start-reverse" preserveAspectRatio="xMidYMid" refX="0" refY="0" style="overflow:visible" viewBox="0 0 1 1"><path d="M-.211-4.106 6.21-.894a1 1 90 0 1 0 1.788L-.21 4.106A1.236 1.236 31.717 0 1-2 3v-6A1.236 1.236 148.283 0 1-.211-4.106" style="fill:context-stroke;fill-rule:evenodd;stroke:none" transform="scale(.7)"/></marker><marker id="f" markerHeight="1" markerWidth="1" orient="auto-start-reverse" preserveAspectRatio="xMidYMid" refX="0" refY="0" style="overflow:visible" viewBox="0 0 1 1"><path d="M-.211-4.106 6.21-.894a1 1 90 0 1 0 1.788L-.21 4.106A1.236 1.236 31.717 0 1-2 3v-6A1.236 1.236 148.283 0 1-.211-4.106" style="fill:context-stroke;fill-rule:evenodd;stroke:none" transform="scale(.7)"/></marker><marker id="g" markerHeight="1" markerWidth="1" orient="auto-start-reverse" preserveAspectRatio="xMidYMid" refX="0" refY="0" style="overflow:visible" viewBox="0 0 1 1"><path d="M-.211-4.106 6.21-.894a1 1 90 0 1 0 1.788L-.21 4.106A1.236 1.236 31.717 0 1-2 3v-6A1.236 1.236 148.283 0 1-.211-4.106" style="fill:context-stroke;fill-rule:evenodd;stroke:none" transform="scale(.7)"/></marker><path id="c" d="M136.026 219.709h49.61v34.516h-49.61z"/><path id="e" d="M136.026 219.709h49.61v34.516h-49.61z"/><path id="a" d="M318.37 136.608h38.258v16.57H318.37z"/><path id="h" d="M348.144 127.418h49.547v16.895h-49.547z"/></defs><g transform="translate(-36.302 -126.007)"><path d="M36.435 126.14h76.519v64.934H36.435z" style="fill:#fff;stroke:#fff;stroke-width:.264583;stroke-linejoin:bevel"/><path d="M73.434 138.635h-5.183" style="fill:none;stroke:#ececec;stroke-width:.264583px;stroke-linecap:butt;stroke-linejoin:miter;stroke-opacity:1"/><text xml:space="preserve" style="font-size:14.6667px;line-height:1.25;font-family:sans-serif;white-space:pre;shape-inside:url(#a);display:inline" transform="translate(-9.464 102.77)scale(.26458)"><tspan x="318.369" y="149.584">H1</tspan></text><path d="M93.452 168.691H63.891m29.561-9.553H63.891" style="fill:none;stroke:#ececec;stroke-width:.264583px;stroke-linecap:butt;stroke-linejoin:miter;stroke-opacity:1"/><path d="M93.165 167.206v-6.646" style="fill:none;stroke:#000;stroke-width:.264584;stroke-linecap:butt;stroke-linejoin:miter;stroke-opacity:1;marker-start:url(#b);marker-end:url(#b)"/><text xml:space="preserve" style="font-size:14.6667px;line-height:1.25;font-family:sans-serif;white-space:pre;shape-inside:url(#c);display:inline" transform="translate(57.251 103.8)scale(.26458)"><tspan x="136.025" y="232.686">D1</tspan></text><circle cx="63.891" cy="163.915" r="4.777" style="fill:none;stroke:#999;stroke-width:.264583;stroke-linejoin:bevel"/><circle cx="63.891" cy="163.915" r="20.691" style="fill:none;stroke:#999;stroke-width:.264583;stroke-linejoin:bevel"/><path d="M105.537 143.224H63.891m41.646 41.646H63.891" style="fill:none;stroke:#ececec;stroke-width:.264583px;stroke-linecap:butt;stroke-linejoin:miter;stroke-opacity:1"/><path d="M105.08 183.267V144.5" style="fill:none;stroke:#000;stroke-width:.264585;stroke-linecap:butt;stroke-linejoin:miter;stroke-opacity:1;marker-start:url(#d);marker-end:url(#d)"/><text xml:space="preserve" style="font-size:14.6667px;line-height:1.25;font-family:sans-serif;white-space:pre;shape-inside:url(#e);display:inline" transform="translate(69.166 103.8)scale(.26458)"><tspan x="136.025" y="232.686">D2</tspan></text><path d="M59.663 138.635h8.455v4.996s-.855-.165-1.286-.229c-.51-.076-1.021-.155-1.536-.184-.693-.04-1.388-.015-2.082.01q-.901.033-1.799.124c-.58.061-1.732.245-1.732.245z" style="fill:none;stroke:#000;stroke-width:.264583px;stroke-linecap:butt;stroke-linejoin:miter;stroke-opacity:1"/><path d="M73.556 139.882v2.102" style="fill:none;stroke:#000;stroke-width:.264583;stroke-linecap:butt;stroke-linejoin:miter;stroke-opacity:1;marker-start:url(#f);marker-end:url(#f)"/><path d="M59.663 133.32v5.183m8.455-5.183v5.183" style="fill:none;stroke:#ececec;stroke-width:.264583px;stroke-linecap:butt;stroke-linejoin:miter;stroke-opacity:1"/><path d="M60.968 133.32h5.772" style="fill:none;stroke:#000;stroke-width:.264583;stroke-linecap:butt;stroke-linejoin:miter;stroke-opacity:1;marker-start:url(#g);marker-end:url(#g)"/><text xml:space="preserve" style="font-size:14.6667px;line-height:1.25;font-family:sans-serif;white-space:pre;shape-inside:url(#h);display:inline" transform="translate(-30.498 95.07)scale(.26458)"><tspan x="348.145" y="140.395">D4</tspan></text></g></svg>