<svg xmlns="http://www.w3.org/2000/svg" width="312.375" height="232.382" viewBox="0 0 82.649 61.484"><defs><path id="f" d="M197.87 1067.233h44.55v29.299h-44.55z"/><path id="e" d="M343.382 1085.649h41.337v23.816h-41.337z"/><path id="d" d="M108.25 949.813h37.046v26.822H108.25z"/><path id="c" d="M269.136 861.035h50.038v29.917h-50.038z"/><marker id="a" markerHeight="1" markerWidth="1" orient="auto-start-reverse" preserveAspectRatio="xMidYMid" refX="0" refY="0" style="overflow:visible" viewBox="0 0 1 1"><path d="M3-3 0 0l3 3" style="fill:none;stroke:context-stroke;stroke-width:1;stroke-linecap:butt" transform="rotate(180 .125 0)"/></marker><marker id="b" markerHeight="1" markerWidth="1" orient="auto-start-reverse" preserveAspectRatio="xMidYMid" refX="0" refY="0" style="overflow:visible" viewBox="0 0 1 1"><path d="M3-3 0 0l3 3" style="fill:none;stroke:context-stroke;stroke-width:1;stroke-linecap:butt" transform="rotate(180 .125 0)"/></marker></defs><path d="M34.108 229.608h82.385v61.22H34.108z" style="fill:#fff;stroke:#fff;stroke-width:.264583;stroke-linejoin:bevel" transform="translate(-33.976 -229.476)"/><path d="M63.736 248.306H89.85l4.908 20.405-11.897 2.54-6.2-12.706-5.937 12.706-11.897-2.54z" style="fill:none;stroke:#000;stroke-width:.264583px;stroke-linecap:butt;stroke-linejoin:miter;stroke-opacity:1" transform="translate(-33.976 -229.476)"/><path d="M63.736 237.84v10.466M89.851 237.84v10.466" style="fill:none;stroke:#b3b3b3;stroke-width:.264583px;stroke-linecap:butt;stroke-linejoin:miter;stroke-opacity:1" transform="translate(-33.976 -229.476)"/><path d="m94.759 268.71 3.171 13.321M82.862 271.25l3.172 13.321" style="fill:none;stroke:#ccc;stroke-width:.264583px;stroke-linecap:butt;stroke-linejoin:miter;stroke-opacity:1" transform="translate(-33.976 -229.476)"/><path d="m85.895 283.553 11.669-2.762" style="fill:none;stroke:#000;stroke-width:.264583px;stroke-linecap:butt;stroke-linejoin:miter;stroke-opacity:1;marker-start:url(#a);marker-end:url(#a)" transform="translate(-33.976 -229.476)"/><path d="m89.851 248.306 13.32-3.172M94.759 268.71l13.32-3.17" style="fill:none;stroke:#ccc;stroke-width:.264583px;stroke-linecap:butt;stroke-linejoin:miter;stroke-opacity:1" transform="translate(-33.976 -229.476)"/><path d="m103.188 245.125 4.83 20.119" style="fill:none;stroke:#000;stroke-width:.264583px;stroke-linecap:butt;stroke-linejoin:miter;stroke-opacity:1;marker-start:url(#a);marker-end:url(#a)" transform="translate(-33.976 -229.476)"/><path d="M63.603 248.173H42.257M76.661 258.545H42.257" style="fill:none;stroke:#b3b3b3;stroke-width:.264584px;stroke-linecap:butt;stroke-linejoin:miter;stroke-opacity:1" transform="translate(-33.976 -229.476)"/><path d="M42.257 248.297v9.851" style="fill:none;stroke:#000;stroke-width:.264583px;stroke-linecap:butt;stroke-linejoin:miter;stroke-opacity:1;marker-start:url(#a);marker-end:url(#a)" transform="translate(-33.976 -229.476)"/><path d="M89.822 237.84H63.765" style="fill:none;stroke:#000;stroke-width:.264582px;stroke-linecap:butt;stroke-linejoin:miter;stroke-opacity:1;marker-start:url(#b);marker-end:url(#b)" transform="translate(-33.976 -229.476)"/><text xml:space="preserve" style="font-size:14.6667px;line-height:1.25;font-family:sans-serif;white-space:pre;shape-inside:url(#c)" transform="translate(-30.807 -225.126)scale(.26458)"><tspan x="269.137" y="874.012">S1</tspan></text><text xml:space="preserve" style="font-size:14.6667px;line-height:1.25;font-family:sans-serif;white-space:pre;shape-inside:url(#d)" transform="translate(-26.038 -229.579)scale(.26458)"><tspan x="108.25" y="962.789">S2</tspan></text><text xml:space="preserve" style="font-size:14.6667px;line-height:1.25;font-family:sans-serif;white-space:pre;shape-inside:url(#e)" transform="translate(-33.737 -232.675)scale(.26458)"><tspan x="343.381" y="1098.625">S4</tspan></text><text xml:space="preserve" style="font-size:14.6667px;line-height:1.25;font-family:sans-serif;white-space:pre;shape-inside:url(#f)" transform="translate(20.788 -260.388)scale(.26458)"><tspan x="197.869" y="1080.209">S3</tspan></text></svg>