<svg xmlns="http://www.w3.org/2000/svg" width="414.806" height="267.77" viewBox="0 0 109.751 70.847"><defs><path id="q" d="M461.889 351.036h29.901v20.204h-29.901z"/><path id="p" d="M117.696 306.206h45.952v39.425h-45.952z"/><path id="o" d="M105.432 309.458h77.963v50.491h-77.963z"/><path id="j" d="M347.871 364.234h24.466v24.078h-24.466z"/><path id="i" d="M182.281 244.367h27.082v21.436h-27.082z"/><path id="h" d="M213.844 304.004h31.27v24.722h-31.27z"/><path id="g" d="M229.376 295.62h37.378v28.576h-37.378z"/><path id="e" d="M154.994 235.096h104.905v55.043H154.994z"/><path id="d" d="M196.428 229.023H300v53.946H196.428z"/><path id="c" d="M80.528 238.502h87.543v48.753H80.528z"/><marker id="a" markerHeight="1" markerWidth="1" orient="auto-start-reverse" preserveAspectRatio="xMidYMid" refX="0" refY="0" style="overflow:visible" viewBox="0 0 1 1"><path d="M3-3 0 0l3 3" style="fill:none;stroke:context-stroke;stroke-width:1;stroke-linecap:butt" transform="rotate(180 .125 0)"/></marker><marker id="b" markerHeight="1" markerWidth="1" orient="auto-start-reverse" preserveAspectRatio="xMidYMid" refX="0" refY="0" style="overflow:visible" viewBox="0 0 1 1"><path d="M3-3 0 0l3 3" style="fill:none;stroke:context-stroke;stroke-width:1;stroke-linecap:butt" transform="rotate(180 .125 0)"/></marker><marker id="f" markerHeight="1" markerWidth="1" orient="auto-start-reverse" preserveAspectRatio="xMidYMid" refX="0" refY="0" style="overflow:visible" viewBox="0 0 1 1"><path d="M3-3 0 0l3 3" style="fill:none;stroke:context-stroke;stroke-width:1;stroke-linecap:butt" transform="rotate(180 .125 0)"/></marker><marker id="k" markerHeight="1" markerWidth="1" orient="auto-start-reverse" preserveAspectRatio="xMidYMid" refX="0" refY="0" style="overflow:visible" viewBox="0 0 1 1"><path d="M3-3 0 0l3 3" style="fill:none;stroke:context-stroke;stroke-width:1;stroke-linecap:butt" transform="rotate(180 .125 0)"/></marker><marker id="l" markerHeight="1" markerWidth="1" orient="auto-start-reverse" preserveAspectRatio="xMidYMid" refX="0" refY="0" style="overflow:visible" viewBox="0 0 1 1"><path d="M3-3 0 0l3 3" style="fill:none;stroke:context-stroke;stroke-width:1;stroke-linecap:butt" transform="rotate(180 .125 0)"/></marker><marker id="m" markerHeight="1" markerWidth="1" orient="auto-start-reverse" preserveAspectRatio="xMidYMid" refX="0" refY="0" style="overflow:visible" viewBox="0 0 1 1"><path d="M3-3 0 0l3 3" style="fill:none;stroke:context-stroke;stroke-width:1;stroke-linecap:butt" transform="rotate(180 .125 0)"/></marker></defs><path d="M20.396 43.221h109.486v70.583H20.396z" style="fill:#fff;stroke:#fff;stroke-width:.264584;stroke-linejoin:bevel;stroke-dasharray:none;stroke-dashoffset:0" transform="translate(-20.263 -43.089)"/><path d="M67.317 64.755c4.351 3.554 9.593 5.876 14.115 9.209 4.02 2.962 8.029 6.002 11.531 9.56 3.18 3.231 5.24 7.471 8.513 10.608.327.313.657.689 1.095.804.408.107.923.106 1.255-.153.359-.278.46-.816.493-1.269.034-.463-.176-.913-.311-1.357-1.168-3.84-2.589-7.615-4.296-11.246-2.134-4.543-3.98-9.44-7.4-13.112-2.91-3.127-6.72-5.486-10.684-7.081-2.875-1.157-6.05-1.524-9.146-1.662-1.43-.064-2.959-.168-4.279.387-.866.365-1.779.964-2.144 1.829-.307.729-.167 1.646.157 2.368.214.476.697.785 1.101 1.115z" style="fill:none;stroke:#000;stroke-width:.529167;stroke-linecap:butt;stroke-linejoin:miter;stroke-opacity:1" transform="translate(-20.263 -43.089)"/><path d="M31.015 84.902h23.092" style="fill:none;stroke:#000;stroke-width:.264583px;stroke-linecap:butt;stroke-linejoin:miter;stroke-opacity:1;marker-end:url(#a)" transform="translate(-20.263 -43.089)"/><path d="M31.015 84.902v13.562" style="fill:none;stroke:#000;stroke-width:.264583px;stroke-linecap:butt;stroke-linejoin:miter;stroke-opacity:1;marker-end:url(#b)" transform="translate(-20.263 -43.089)"/><text xml:space="preserve" style="font-size:14.6667px;line-height:1.25;font-family:sans-serif;white-space:pre;shape-inside:url(#c);display:inline" transform="translate(-15.786 -6.11)scale(.26458)"><tspan x="80.527" y="251.479">speed
</tspan><tspan x="80.527" y="269.812">wind</tspan></text><text xml:space="preserve" style="font-size:14.6667px;line-height:1.25;font-family:sans-serif;white-space:pre;shape-inside:url(#d);display:inline" transform="translate(-33.676 -27.942)scale(.26458)"><tspan x="196.428" y="242">original
</tspan><tspan x="196.428" y="260.333">wind</tspan></text><text xml:space="preserve" style="font-size:14.6667px;line-height:1.25;font-family:sans-serif;white-space:pre;shape-inside:url(#e);display:inline;fill:#00f" transform="translate(-6.342 -12.162)scale(.26458)"><tspan x="154.994" y="248.072">apparent
</tspan><tspan x="154.994" y="266.406">wind</tspan></text><path d="M31.015 98.464h22.918" style="fill:none;stroke:#ececec;stroke-width:.264583;stroke-linecap:butt;stroke-linejoin:miter;stroke-dasharray:1,1;stroke-dashoffset:0;stroke-opacity:1" transform="translate(-20.263 -43.089)"/><path d="M54.107 84.902v13.666" style="fill:none;stroke:#ececec;stroke-width:.264583px;stroke-linecap:butt;stroke-linejoin:miter;stroke-dasharray:1,1;stroke-dashoffset:0;stroke-opacity:1" transform="translate(-20.263 -43.089)"/><path d="m31.015 84.902 22.918 13.562" style="fill:#00f;stroke:#00f;stroke-width:.264583px;stroke-linecap:butt;stroke-linejoin:miter;stroke-opacity:1;marker-end:url(#a)" transform="translate(-20.263 -43.089)"/><path d="m67.276 64.728 51.734 30.81" style="fill:#00f;stroke:#00f;stroke-width:.264583px;stroke-linecap:butt;stroke-linejoin:miter;stroke-opacity:1;marker-end:url(#f)" transform="translate(-20.263 -43.089)"/><path d="m67.317 64.755-3.271 5.318M101.819 94.615l-4.378 4.269" style="fill:none;stroke:#e6e6e6;stroke-width:.264583px;stroke-linecap:butt;stroke-linejoin:miter;stroke-opacity:1" transform="translate(-20.263 -43.089)"/><path d="M64.046 70.073C77.275 76.38 87.744 86.6 97.098 98.4" style="fill:none;stroke:#000;stroke-width:.264583px;stroke-linecap:butt;stroke-linejoin:miter;stroke-opacity:1;marker-start:url(#a);marker-end:url(#a-9)" transform="translate(-20.263 -43.089)"/><text xml:space="preserve" style="font-size:14.6667px;line-height:1.25;font-family:sans-serif;white-space:pre;shape-inside:url(#g);display:inline" transform="translate(-5.168 -40.23)scale(.26458)"><tspan x="229.375" y="308.596">Li</tspan></text><path d="m69.908 73.408-4.717 6.937" style="fill:none;stroke:#000;stroke-width:.264583px;stroke-linecap:butt;stroke-linejoin:miter;stroke-opacity:1;marker-start:url(#a)" transform="translate(-20.263 -43.089)"/><text xml:space="preserve" style="font-size:14.6667px;line-height:1.25;font-family:sans-serif;white-space:pre;shape-inside:url(#h);display:inline" transform="translate(-14.806 -47.993)scale(.26458)"><tspan x="213.844" y="316.981">Ri</tspan></text><path d="m66.088 61.248-5.318-3.272" style="fill:none;stroke:#e6e6e6;stroke-width:.264583px;stroke-linecap:butt;stroke-linejoin:miter;stroke-opacity:1" transform="translate(-20.263 -43.089)"/><path d="M60.705 58.022c-4.221 7.117.103 8.983 3.26 11.567" style="fill:none;stroke:#000;stroke-width:.264583px;stroke-linecap:butt;stroke-linejoin:miter;stroke-opacity:1;marker-start:url(#a);marker-end:url(#a)" transform="translate(-20.263 -43.089)"/><text xml:space="preserve" style="font-size:14.6667px;line-height:1.25;font-family:sans-serif;white-space:pre;shape-inside:url(#i);display:inline" transform="translate(-15.779 -44.561)scale(.26458)"><tspan x="182.281" y="257.344">Rai</tspan></text><path d="m103.643 94.727 4.269 4.378" style="fill:none;stroke:#e6e6e6;stroke-width:.264583px;stroke-linecap:butt;stroke-linejoin:miter;stroke-opacity:1" transform="translate(-20.263 -43.089)"/><path d="M97.68 98.785c3.772 4.443 6.931 3.566 9.801.184" style="fill:none;stroke:#000;stroke-width:.264583px;stroke-linecap:butt;stroke-linejoin:miter;stroke-opacity:1;marker-start:url(#a);marker-end:url(#a)" transform="translate(-20.263 -43.089)"/><text xml:space="preserve" style="font-size:14.6667px;line-height:1.25;font-family:sans-serif;white-space:pre;shape-inside:url(#j);display:inline" transform="translate(-13.816 -37.32)scale(.26458)"><tspan x="347.871" y="377.211">Rqi</tspan></text><path d="m84.243 61.903 39.274 23.352" style="fill:#00f;stroke:#00f;stroke-width:.264583px;stroke-linecap:butt;stroke-linejoin:miter;stroke-opacity:1;marker-end:url(#k)" transform="translate(-20.263 -43.089)"/><path d="m63.339 59.261 4.121-7.245" style="fill:#00f;stroke:green;stroke-width:.264583px;stroke-linecap:butt;stroke-linejoin:miter;stroke-opacity:1;marker-start:url(#l);marker-end:url(#m)" transform="translate(-20.263 -43.089)"/><path d="m67.69 52.174 16.598 9.693" style="fill:#00f;stroke:#ccc;stroke-width:.264582px;stroke-linecap:butt;stroke-linejoin:miter;stroke-opacity:1" transform="translate(-20.263 -43.089)"/><path d="m87.47 56.523-3.272 5.318M73.62 48.78l-7.66 12.315" style="fill:none;stroke:#e6e6e6;stroke-width:.264583px;stroke-linecap:butt;stroke-linejoin:miter;stroke-opacity:1" transform="translate(-20.263 -43.089)"/><path d="m73.53 49.522 13.357 7.786" style="fill:#00f;stroke:green;stroke-width:.264583px;stroke-linecap:butt;stroke-linejoin:miter;stroke-opacity:1;marker-start:url(#a);marker-end:url(#a-9-3-8)" transform="translate(-20.263 -43.089)"/><text xml:space="preserve" style="font-size:14.6667px;line-height:1.25;font-family:sans-serif;white-space:pre;shape-inside:url(#o);display:inline;fill:green" transform="translate(10.666 -72.534)scale(.26458)"><tspan x="105.432" y="322.434">He</tspan></text><text xml:space="preserve" style="font-size:14.6667px;line-height:1.25;font-family:sans-serif;white-space:pre;shape-inside:url(#p);display:inline;fill:green" transform="translate(28.922 -75.157)scale(.26458)"><tspan x="117.695" y="319.182">Pe</tspan></text><path d="M109.885 89.892h11.938" style="fill:none;stroke:#999;stroke-width:.264583px;stroke-linecap:butt;stroke-linejoin:miter;stroke-opacity:1" transform="translate(-20.263 -43.089)"/><path d="M116.625 89.933s.176 1.286-.038 1.873c-.208.57-1.145 1.418-1.145 1.418" style="fill:none;stroke:#000;stroke-width:.264583px;stroke-linecap:butt;stroke-linejoin:miter;stroke-opacity:1" transform="translate(-20.263 -43.089)"/><text xml:space="preserve" style="font-size:14.6667px;line-height:1.25;font-family:sans-serif;white-space:pre;shape-inside:url(#q);display:inline" transform="translate(-24.676 -46.135)scale(.26458)"><tspan x="461.889" y="364.012">ai</tspan></text></svg>