<svg xmlns="http://www.w3.org/2000/svg" width="201" height="201" viewBox="0 0 53.181 53.181"><defs><marker id="b" markerHeight="1" markerWidth="1" orient="auto-start-reverse" preserveAspectRatio="xMidYMid" refX="0" refY="0" style="overflow:visible" viewBox="0 0 1 1"><path d="M-.211-4.106 6.21-.894a1 1 90 0 1 0 1.788L-.21 4.106A1.236 1.236 31.717 0 1-2 3v-6A1.236 1.236 148.283 0 1-.211-4.106" style="fill:context-stroke;fill-rule:evenodd;stroke:none" transform="scale(.7)"/></marker><path id="a" d="M279.593 706.07h105.896v26.18H279.593z"/></defs><g transform="translate(-18.086 -134.432)"><path d="M18.219 134.565h52.917v52.917H18.219z" style="fill:#fff;stroke:#fff;stroke-width:.264583;stroke-linejoin:bevel"/><circle cx="42.32" cy="159.264" r="7.893" style="fill:#e6e6e6;stroke:#e6e6e6;stroke-width:.264584;stroke-linejoin:bevel"/><ellipse cx="42.32" cy="159.006" rx="22.587" ry="22.584" style="fill:none;stroke:#7f2aff;stroke-width:.264583;stroke-linejoin:bevel"/><path d="M22.851 147.555h38.937L42.32 181.589l-19.47-34.034" style="fill:none;stroke:#00aad4;stroke-width:.264583px;stroke-linecap:butt;stroke-linejoin:miter;stroke-opacity:1"/><path d="M22.851 170.457h38.937L42.32 136.422l-19.47 34.035" style="fill:none;stroke:#447821;stroke-width:.264583px;stroke-linecap:butt;stroke-linejoin:miter;stroke-opacity:1"/><path d="M37.012 153.957h10.615v10.615H37.012z" style="fill:none;stroke:#0a8;stroke-width:.264583;stroke-linejoin:bevel"/><path d="M138.128 75.854h10.615v10.615h-10.615z" style="fill:none;stroke:#7f2aff;stroke-width:.264583;stroke-linejoin:bevel" transform="rotate(45.597)"/><text xml:space="preserve" style="font-size:14.6667px;line-height:1.25;font-family:sans-serif;white-space:pre;shape-inside:url(#a);display:inline" transform="translate(-19.299 -6.945)scale(.26458)"><tspan x="279.592" y="719.047">hollow?</tspan></text><path d="m46.565 166.066 9.419 13.988" style="fill:none;stroke:#000;stroke-width:.264583px;stroke-linecap:butt;stroke-linejoin:miter;stroke-opacity:1;marker-start:url(#b)"/></g></svg>