<svg xmlns="http://www.w3.org/2000/svg" width="419.166" height="435.749" viewBox="0 0 110.904 115.292"><defs><path id="u" d="M347.783 105.413h149.878v56.501H347.783z"/><path id="r" d="M182.835 433.723h165.096v73.265H182.835z"/><path id="i" d="M229.263 409.431h65.175v31.772h-65.175z"/><path id="g" d="M173.772 394.811h53.572v38.325h-53.572z"/><path id="e" d="M32.34 172.913h131.564v47.759H32.34z"/><path id="d" d="M40.37 366.157h32.861v38.551H40.37z"/><path id="c" d="M113.007 378.823h78.251v51.869h-78.251z"/><path id="l" d="M173.772 394.811h53.572v38.325h-53.572z"/><path id="m" d="M229.263 409.431h65.175v31.772h-65.175z"/><path id="o" d="M173.772 394.811h53.572v38.325h-53.572z"/><path id="q" d="M173.772 394.811h53.572v38.325h-53.572z"/><path id="s" d="M182.835 433.723h165.096v73.265H182.835z"/><path id="w" d="M347.783 105.413h149.878v56.501H347.783z"/><marker id="a" markerHeight="1" markerWidth="1" orient="auto-start-reverse" preserveAspectRatio="xMidYMid" refX="0" refY="0" style="overflow:visible" viewBox="0 0 1 1"><path d="M-.211-4.106 6.21-.894a1 1 90 0 1 0 1.788L-.21 4.106A1.236 1.236 31.717 0 1-2 3v-6A1.236 1.236 148.283 0 1-.211-4.106" style="fill:context-stroke;fill-rule:evenodd;stroke:none" transform="scale(.7)"/></marker><marker id="b" markerHeight="1" markerWidth="1" orient="auto-start-reverse" preserveAspectRatio="xMidYMid" refX="0" refY="0" style="overflow:visible" viewBox="0 0 1 1"><path d="M-.211-4.106 6.21-.894a1 1 90 0 1 0 1.788L-.21 4.106A1.236 1.236 31.717 0 1-2 3v-6A1.236 1.236 148.283 0 1-.211-4.106" style="fill:context-stroke;fill-rule:evenodd;stroke:none" transform="scale(.7)"/></marker><marker id="f" markerHeight="1" markerWidth="1" orient="auto-start-reverse" preserveAspectRatio="xMidYMid" refX="0" refY="0" style="overflow:visible" viewBox="0 0 1 1"><path d="M-.211-4.106 6.21-.894a1 1 90 0 1 0 1.788L-.21 4.106A1.236 1.236 31.717 0 1-2 3v-6A1.236 1.236 148.283 0 1-.211-4.106" style="fill:context-stroke;fill-rule:evenodd;stroke:none" transform="scale(.7)"/></marker><marker id="h" markerHeight="1" markerWidth="1" orient="auto-start-reverse" preserveAspectRatio="xMidYMid" refX="0" refY="0" style="overflow:visible" viewBox="0 0 1 1"><path d="M-.211-4.106 6.21-.894a1 1 90 0 1 0 1.788L-.21 4.106A1.236 1.236 31.717 0 1-2 3v-6A1.236 1.236 148.283 0 1-.211-4.106" style="fill:context-stroke;fill-rule:evenodd;stroke:none" transform="scale(.7)"/></marker><marker id="j" markerHeight="1" markerWidth="1" orient="auto-start-reverse" preserveAspectRatio="xMidYMid" refX="0" refY="0" style="overflow:visible" viewBox="0 0 1 1"><path d="M-.211-4.106 6.21-.894a1 1 90 0 1 0 1.788L-.21 4.106A1.236 1.236 31.717 0 1-2 3v-6A1.236 1.236 148.283 0 1-.211-4.106" style="fill:context-stroke;fill-rule:evenodd;stroke:none" transform="scale(.7)"/></marker><marker id="k" markerHeight="1" markerWidth="1" orient="auto-start-reverse" preserveAspectRatio="xMidYMid" refX="0" refY="0" style="overflow:visible" viewBox="0 0 1 1"><path d="M-.211-4.106 6.21-.894a1 1 90 0 1 0 1.788L-.21 4.106A1.236 1.236 31.717 0 1-2 3v-6A1.236 1.236 148.283 0 1-.211-4.106" style="fill:context-stroke;fill-rule:evenodd;stroke:none" transform="scale(.7)"/></marker><marker id="n" markerHeight="1" markerWidth="1" orient="auto-start-reverse" preserveAspectRatio="xMidYMid" refX="0" refY="0" style="overflow:visible" viewBox="0 0 1 1"><path d="M-.211-4.106 6.21-.894a1 1 90 0 1 0 1.788L-.21 4.106A1.236 1.236 31.717 0 1-2 3v-6A1.236 1.236 148.283 0 1-.211-4.106" style="fill:context-stroke;fill-rule:evenodd;stroke:none" transform="scale(.7)"/></marker><marker id="p" markerHeight="1" markerWidth="1" orient="auto-start-reverse" preserveAspectRatio="xMidYMid" refX="0" refY="0" style="overflow:visible" viewBox="0 0 1 1"><path d="M-.211-4.106 6.21-.894a1 1 90 0 1 0 1.788L-.21 4.106A1.236 1.236 31.717 0 1-2 3v-6A1.236 1.236 148.283 0 1-.211-4.106" style="fill:context-stroke;fill-rule:evenodd;stroke:none" transform="scale(.7)"/></marker><marker id="t" markerHeight="1" markerWidth="1" orient="auto-start-reverse" preserveAspectRatio="xMidYMid" refX="0" refY="0" style="overflow:visible" viewBox="0 0 1 1"><path d="M-.211-4.106 6.21-.894a1 1 90 0 1 0 1.788L-.21 4.106A1.236 1.236 31.717 0 1-2 3v-6A1.236 1.236 148.283 0 1-.211-4.106" style="fill:context-stroke;fill-rule:evenodd;stroke:none" transform="scale(.7)"/></marker><marker id="v" markerHeight="1" markerWidth="1" orient="auto-start-reverse" preserveAspectRatio="xMidYMid" refX="0" refY="0" style="overflow:visible" viewBox="0 0 1 1"><path d="M-.211-4.106 6.21-.894a1 1 90 0 1 0 1.788L-.21 4.106A1.236 1.236 31.717 0 1-2 3v-6A1.236 1.236 148.283 0 1-.211-4.106" style="fill:context-stroke;fill-rule:evenodd;stroke:none" transform="scale(.7)"/></marker><marker id="x" markerHeight="1" markerWidth="1" orient="auto-start-reverse" preserveAspectRatio="xMidYMid" refX="0" refY="0" style="overflow:visible" viewBox="0 0 1 1"><path d="M-.211-4.106 6.21-.894a1 1 90 0 1 0 1.788L-.21 4.106A1.236 1.236 31.717 0 1-2 3v-6A1.236 1.236 148.283 0 1-.211-4.106" style="fill:context-stroke;fill-rule:evenodd;stroke:none" transform="scale(.7)"/></marker></defs><path d="M17.567 28.607h110.64v115.027H17.567z" style="fill:#fff;stroke:#fff;stroke-width:.264582;stroke-linejoin:bevel" transform="translate(-17.435 -28.475)"/><path d="m42.055 85.533 4.673 17.6h-9.346z" style="fill:none;stroke:#000;stroke-width:.264583px;stroke-linecap:butt;stroke-linejoin:miter;stroke-opacity:1" transform="translate(-17.435 -28.475)"/><path d="M37.382 103.133v10.844m9.346-10.844v10.844m-20.322-10.711h10.843M26.406 85.533h15.649" style="fill:none;stroke:#ccc;stroke-width:.264583px;stroke-linecap:butt;stroke-linejoin:miter;stroke-opacity:1" transform="translate(-17.435 -28.475)"/><path d="M38.767 113.977h6.919" style="fill:none;stroke:#000;stroke-width:.264583px;stroke-linecap:butt;stroke-linejoin:miter;stroke-opacity:1;marker-start:url(#a);marker-end:url(#a)" transform="translate(-17.435 -28.475)"/><path d="M26.406 101.82V86.695" style="fill:none;stroke:#000;stroke-width:.264583px;stroke-linecap:butt;stroke-linejoin:miter;stroke-opacity:1;marker-start:url(#b);marker-end:url(#b)" transform="translate(-17.435 -28.475)"/><text xml:space="preserve" style="font-size:14.6667px;line-height:1.25;font-family:sans-serif;white-space:pre;shape-inside:url(#c)" transform="translate(-6.987 -13.314)scale(.26458)"><tspan x="113.008" y="391.799">A</tspan></text><text xml:space="preserve" style="font-size:14.6667px;line-height:1.25;font-family:sans-serif;white-space:pre;shape-inside:url(#d)" transform="translate(-4.968 -33.825)scale(.26458)"><tspan x="40.369" y="379.135">B</tspan></text><text xml:space="preserve" x="29.126" style="font-size:14.6667px;line-height:1.25;font-family:sans-serif;text-align:center;white-space:pre;shape-inside:url(#e)" transform="translate(-12.308 -11.377)scale(.26458)"><tspan x="67.664" y="185.891">rounded
</tspan><tspan x="93.027" y="204.224">R</tspan></text><path d="m32.544 71.375 8.262 12.37" style="fill:none;stroke:#000;stroke-width:.264583px;stroke-linecap:butt;stroke-linejoin:miter;stroke-opacity:1;marker-end:url(#a)" transform="translate(-17.435 -28.475)"/><path d="M48.191 113.977h13.41" style="fill:none;stroke:#000;stroke-width:.264582px;stroke-linecap:butt;stroke-linejoin:miter;stroke-opacity:1;marker-start:url(#f);marker-end:url(#f)" transform="translate(-17.435 -28.475)"/><path d="M62.986 103.133v10.844" style="fill:none;stroke:#ccc;stroke-width:.264583px;stroke-linecap:butt;stroke-linejoin:miter;stroke-opacity:1" transform="translate(-17.435 -28.475)"/><path d="m69.927 77.189 6.942 25.944H62.986Z" style="fill:none;stroke:#000;stroke-width:.264583px;stroke-linecap:butt;stroke-linejoin:miter;stroke-opacity:1" transform="translate(-17.435 -28.475)"/><text xml:space="preserve" style="font-size:14.6667px;line-height:1.25;font-family:sans-serif;white-space:pre;shape-inside:url(#g)" transform="translate(-10.128 -17.546)scale(.26458)"><tspan x="173.771" y="407.787">C</tspan></text><path d="M76.87 103.133v10.844" style="fill:none;stroke:#ccc;stroke-width:.264583px;stroke-linecap:butt;stroke-linejoin:miter;stroke-opacity:1" transform="translate(-17.435 -28.475)"/><path d="M64.21 113.977h11.7" style="fill:none;stroke:#000;stroke-width:.264582px;stroke-linecap:butt;stroke-linejoin:miter;stroke-opacity:1;marker-start:url(#h);marker-end:url(#h)" transform="translate(-17.435 -28.475)"/><text xml:space="preserve" style="font-size:14.6667px;line-height:1.25;font-family:sans-serif;white-space:pre;shape-inside:url(#i)" transform="translate(-14.257 -21.414)scale(.26458)"><tspan x="229.264" y="422.408">SF1*A</tspan></text><path d="M78.414 113.977h13.41" style="fill:none;stroke:#000;stroke-width:.264582px;stroke-linecap:butt;stroke-linejoin:miter;stroke-opacity:1;marker-start:url(#j);marker-end:url(#j)" transform="translate(-17.435 -28.475)"/><path d="M93.209 103.133v10.844" style="fill:none;stroke:#ccc;stroke-width:.264583px;stroke-linecap:butt;stroke-linejoin:miter;stroke-opacity:1" transform="translate(-17.435 -28.475)"/><path d="m100.15 77.189 6.942 25.944H93.21Z" style="fill:none;stroke:#000;stroke-width:.264583px;stroke-linecap:butt;stroke-linejoin:miter;stroke-opacity:1" transform="translate(-17.435 -28.475)"/><path d="M107.092 103.133v10.844" style="fill:none;stroke:#ccc;stroke-width:.264583px;stroke-linecap:butt;stroke-linejoin:miter;stroke-opacity:1" transform="translate(-17.435 -28.475)"/><path d="M94.434 113.977h11.698" style="fill:none;stroke:#000;stroke-width:.264582px;stroke-linecap:butt;stroke-linejoin:miter;stroke-opacity:1;marker-start:url(#k);marker-end:url(#k)" transform="translate(-17.435 -28.475)"/><text xml:space="preserve" style="font-size:14.6667px;line-height:1.25;font-family:sans-serif;white-space:pre;shape-inside:url(#l);display:inline" transform="translate(21.489 -17.546)scale(.26458)"><tspan x="173.771" y="407.787">C</tspan></text><text xml:space="preserve" style="font-size:14.6667px;line-height:1.25;font-family:sans-serif;white-space:pre;shape-inside:url(#m);display:inline" transform="translate(16.188 -21.414)scale(.26458)"><tspan x="229.264" y="422.408">SF1*A</tspan></text><path d="M22.587 113.977h13.41" style="fill:none;stroke:#000;stroke-width:.264582px;stroke-linecap:butt;stroke-linejoin:miter;stroke-opacity:1;marker-start:url(#n);marker-end:url(#n)" transform="translate(-17.435 -28.475)"/><text xml:space="preserve" style="font-size:14.6667px;line-height:1.25;font-family:sans-serif;white-space:pre;shape-inside:url(#o);display:inline" transform="translate(-35.732 -17.546)scale(.26458)"><tspan x="173.771" y="407.787">C</tspan></text><path d="M108.637 113.977h13.41" style="fill:none;stroke:#000;stroke-width:.264582px;stroke-linecap:butt;stroke-linejoin:miter;stroke-opacity:1;marker-start:url(#p);marker-end:url(#p)" transform="translate(-17.435 -28.475)"/><text xml:space="preserve" style="font-size:14.6667px;line-height:1.25;font-family:sans-serif;white-space:pre;shape-inside:url(#q);display:inline" transform="translate(50.318 -17.546)scale(.26458)"><tspan x="173.771" y="407.787">C</tspan></text><text xml:space="preserve" x="18.108" style="font-size:14.6667px;line-height:1.25;font-family:sans-serif;text-align:center;white-space:pre;shape-inside:url(#r)" transform="translate(-28.02 -15.828)scale(.26458)"><tspan x="246.488" y="446.699">scale
</tspan><tspan x="225.688" y="465.033">factor: SF1
</tspan><tspan x="201.582" y="483.366">corner not scaled</tspan></text><text xml:space="preserve" x="18.108" style="font-size:14.6667px;line-height:1.25;font-family:sans-serif;text-align:center;white-space:pre;shape-inside:url(#s);display:inline" transform="translate(6.591 -15.38)scale(.26458)"><tspan x="246.488" y="446.699">scale
</tspan><tspan x="225.688" y="465.033">factor: SF1
</tspan><tspan x="215.923" y="483.366">corner scaled</tspan></text><path d="M60.412 126.07s-2.784-11.85-3.277-17.894c-.256-3.141-1.4-6.722.174-9.452.809-1.405 4.162-2.515 4.162-2.515" style="fill:none;stroke:#000;stroke-width:.264583px;stroke-linecap:butt;stroke-linejoin:miter;stroke-opacity:1;marker-end:url(#a)" transform="translate(-17.435 -28.475)"/><path d="M91.11 127.975s-2.784-11.85-3.277-17.893c-.257-3.141-1.4-6.722.173-9.452.81-1.405 4.163-2.515 4.163-2.515" style="fill:none;stroke:#000;stroke-width:.264583px;stroke-linecap:butt;stroke-linejoin:miter;stroke-opacity:1;marker-end:url(#t)" transform="translate(-17.435 -28.475)"/><path d="M65.305 51.074 58.148 67.82l-7.364-5.756Z" style="fill:none;stroke:#000;stroke-width:.264583px;stroke-linecap:butt;stroke-linejoin:miter;stroke-opacity:1" transform="translate(-17.435 -28.475)"/><text xml:space="preserve" style="font-size:14.6667px;line-height:1.25;font-family:sans-serif;white-space:pre;shape-inside:url(#u)" transform="translate(-70.45 -25.425)scale(.26458)"><tspan x="347.783" y="118.391">rotate
</tspan><tspan x="347.783" y="136.724">angle: Z1</tspan></text><path d="m47.529 41.713 8.261 12.37" style="fill:none;stroke:#000;stroke-width:.264583px;stroke-linecap:butt;stroke-linejoin:miter;stroke-opacity:1;marker-end:url(#v)" transform="translate(-17.435 -28.475)"/><path d="M21.467 46.272h101.7v63.093h-101.7z" style="fill:none;stroke:#1a1a1a;stroke-width:.264583;stroke-linejoin:bevel" transform="translate(-17.435 -28.475)"/><path d="M79.063 51.074 86.22 67.82l7.363-5.756z" style="fill:none;stroke:#000;stroke-width:.264583px;stroke-linecap:butt;stroke-linejoin:miter;stroke-opacity:1" transform="translate(-17.435 -28.475)"/><text xml:space="preserve" style="font-size:14.6667px;line-height:1.25;font-family:sans-serif;white-space:pre;shape-inside:url(#w);display:inline" transform="translate(-17.576 -24.35)scale(.26458)"><tspan x="347.783" y="118.391">rotate
</tspan><tspan x="347.783" y="136.724">angle: -Z1</tspan></text><path d="m96.534 41.926-8.26 12.37" style="fill:none;stroke:#000;stroke-width:.264583px;stroke-linecap:butt;stroke-linejoin:miter;stroke-opacity:1;marker-end:url(#x)" transform="translate(-17.435 -28.475)"/></svg>