<svg xmlns="http://www.w3.org/2000/svg" width="201" height="201" viewBox="0 0 53.181 53.181"><defs><path id="f" d="M84.836 71.473h126.055v25.949H84.836z"/><path id="e" d="M202.875 294.396h79.482v46.297h-79.482z"/><path id="c" d="M174.749 326.722h132.213v32.224H174.749z"/><path id="b" d="M174.356 294.161h108.19v19.519h-108.19z"/><path id="a" d="M186.495 263.098h94.854v20.065h-94.854z"/><marker id="d" markerHeight="1" markerWidth="1" orient="auto-start-reverse" preserveAspectRatio="xMidYMid" refX="0" refY="0" style="overflow:visible" viewBox="0 0 1 1"><path d="M-.211-4.106 6.21-.894a1 1 90 0 1 0 1.788L-.21 4.106A1.236 1.236 31.717 0 1-2 3v-6A1.236 1.236 148.283 0 1-.211-4.106" style="fill:context-stroke;fill-rule:evenodd;stroke:none" transform="scale(0.7)"/></marker></defs><g transform="translate(-18.976164,-16.016531)"><path d="M19.108 16.149h52.917v52.917H19.108z" style="fill:#fff;stroke:#fff;stroke-width:.264583;stroke-linejoin:bevel"/><circle cx="42.384" cy="41.842" r="9.372" style="fill:none;stroke:#7f2aff;stroke-width:.264583;stroke-linejoin:bevel"/><path d="M34.306 37.09H50.46l-8.077 14.124-8.078-14.124" style="fill:none;stroke:#00aad4;stroke-width:.264583px;stroke-linecap:butt;stroke-linejoin:miter;stroke-opacity:1"/><path d="M34.306 46.594H50.46L42.384 32.47l-8.078 14.124" style="fill:none;stroke:#447821;stroke-width:.264583px;stroke-linecap:butt;stroke-linejoin:miter;stroke-opacity:1"/><text xml:space="preserve" style="font-size:14.6667px;line-height:1.25;font-family:sans-serif;white-space:pre;shape-inside:url(#a);display:inline;fill:#7f2aff" transform="matrix(0.26458333,0,0,0.26458333,-27.449001,-39.789131)"><tspan x="186.494" y="276.074">0: circle</tspan></text><text xml:space="preserve" style="font-size:14.6667px;line-height:1.25;font-family:sans-serif;white-space:pre;shape-inside:url(#b);display:inline;fill:#447821" transform="matrix(0.26458333,0,0,0.26458333,-5.915114,-50.53496)"><tspan x="174.355" y="307.137">1: triangle-up</tspan></text><text xml:space="preserve" style="font-size:14.6667px;line-height:1.25;font-family:sans-serif;white-space:pre;shape-inside:url(#c);display:inline;fill:#00aad4" transform="matrix(0.26458333,0,0,0.26458333,-12.149261,-34.150357)"><tspan x="174.75" y="339.699">2: triangle-down</tspan></text><path d="M42.384 32.47h20.17M42.44 51.48h20.171" style="fill:none;stroke:#000;stroke-width:.264583px;stroke-linecap:butt;stroke-linejoin:miter;stroke-opacity:1"/><path d="m62.555 33.719.056 16.513" style="fill:none;stroke:#000;stroke-width:.264583px;stroke-linecap:butt;stroke-linejoin:miter;stroke-opacity:1;marker-start:url(#d);marker-end:url(#d)"/><text xml:space="preserve" style="font-size:14.6667px;line-height:1.25;font-family:sans-serif;white-space:pre;shape-inside:url(#e);display:inline" transform="matrix(0.26458333,0,0,0.26458333,9.9367837,-37.99456)"><tspan x="202.875" y="307.373">D1</tspan></text><text xml:space="preserve" style="font-size:14.6667px;line-height:1.25;font-family:sans-serif;white-space:pre;shape-inside:url(#f)" transform="scale(0.26458333)"><tspan x="84.836" y="84.449">extShape [0..2]</tspan></text></g></svg>