<svg xmlns="http://www.w3.org/2000/svg" width="410.452" height="361.083" viewBox="0 0 108.599 95.537"><defs><path id="s" d="M463.465 300.76h118.747v58.885H463.465z"/><path id="p" d="M479.871 577.127h46.022v30.31h-46.022z"/><path id="g" d="M134.782 709.39h61.399v44.6h-61.399z"/><path id="h" d="M134.782 709.39h61.399v44.6h-61.399z"/><path id="i" d="M134.782 709.39h61.399v44.6h-61.399z"/><path id="j" d="M134.782 709.39h61.399v44.6h-61.399z"/><path id="k" d="M134.782 709.39h61.399v44.6h-61.399z"/><path id="l" d="M134.782 709.39h61.399v44.6h-61.399z"/><path id="q" d="M479.871 577.127h46.022v30.31h-46.022z"/><path id="r" d="M479.871 577.127h46.022v30.31h-46.022z"/><marker id="a" markerHeight="1" markerWidth="1" orient="auto-start-reverse" preserveAspectRatio="xMidYMid" refX="0" refY="0" style="overflow:visible" viewBox="0 0 1 1"><path d="M-.211-4.106 6.21-.894a1 1 90 0 1 0 1.788L-.21 4.106A1.236 1.236 31.717 0 1-2 3v-6A1.236 1.236 148.283 0 1-.211-4.106" style="fill:context-stroke;fill-rule:evenodd;stroke:none" transform="scale(.7)"/></marker><marker id="b" markerHeight="1" markerWidth="1" orient="auto-start-reverse" preserveAspectRatio="xMidYMid" refX="0" refY="0" style="overflow:visible" viewBox="0 0 1 1"><path d="M-.211-4.106 6.21-.894a1 1 90 0 1 0 1.788L-.21 4.106A1.236 1.236 31.717 0 1-2 3v-6A1.236 1.236 148.283 0 1-.211-4.106" style="fill:context-stroke;fill-rule:evenodd;stroke:none" transform="scale(.7)"/></marker><marker id="c" markerHeight="1" markerWidth="1" orient="auto-start-reverse" preserveAspectRatio="xMidYMid" refX="0" refY="0" style="overflow:visible" viewBox="0 0 1 1"><path d="M-.211-4.106 6.21-.894a1 1 90 0 1 0 1.788L-.21 4.106A1.236 1.236 31.717 0 1-2 3v-6A1.236 1.236 148.283 0 1-.211-4.106" style="fill:context-stroke;fill-rule:evenodd;stroke:none" transform="scale(.7)"/></marker><marker id="d" markerHeight="1" markerWidth="1" orient="auto-start-reverse" preserveAspectRatio="xMidYMid" refX="0" refY="0" style="overflow:visible" viewBox="0 0 1 1"><path d="M-.211-4.106 6.21-.894a1 1 90 0 1 0 1.788L-.21 4.106A1.236 1.236 31.717 0 1-2 3v-6A1.236 1.236 148.283 0 1-.211-4.106" style="fill:context-stroke;fill-rule:evenodd;stroke:none" transform="scale(.7)"/></marker><marker id="e" markerHeight="1" markerWidth="1" orient="auto-start-reverse" preserveAspectRatio="xMidYMid" refX="0" refY="0" style="overflow:visible" viewBox="0 0 1 1"><path d="M-.211-4.106 6.21-.894a1 1 90 0 1 0 1.788L-.21 4.106A1.236 1.236 31.717 0 1-2 3v-6A1.236 1.236 148.283 0 1-.211-4.106" style="fill:context-stroke;fill-rule:evenodd;stroke:none" transform="scale(.7)"/></marker><marker id="f" markerHeight="1" markerWidth="1" orient="auto-start-reverse" preserveAspectRatio="xMidYMid" refX="0" refY="0" style="overflow:visible" viewBox="0 0 1 1"><path d="M-.211-4.106 6.21-.894a1 1 90 0 1 0 1.788L-.21 4.106A1.236 1.236 31.717 0 1-2 3v-6A1.236 1.236 148.283 0 1-.211-4.106" style="fill:context-stroke;fill-rule:evenodd;stroke:none" transform="scale(.7)"/></marker><marker id="m" markerHeight="1" markerWidth="1" orient="auto-start-reverse" preserveAspectRatio="xMidYMid" refX="0" refY="0" style="overflow:visible" viewBox="0 0 1 1"><path d="M-.211-4.106 6.21-.894a1 1 90 0 1 0 1.788L-.21 4.106A1.236 1.236 31.717 0 1-2 3v-6A1.236 1.236 148.283 0 1-.211-4.106" style="fill:context-stroke;fill-rule:evenodd;stroke:none" transform="scale(.7)"/></marker><marker id="n" markerHeight="1" markerWidth="1" orient="auto-start-reverse" preserveAspectRatio="xMidYMid" refX="0" refY="0" style="overflow:visible" viewBox="0 0 1 1"><path d="M-.211-4.106 6.21-.894a1 1 90 0 1 0 1.788L-.21 4.106A1.236 1.236 31.717 0 1-2 3v-6A1.236 1.236 148.283 0 1-.211-4.106" style="fill:context-stroke;fill-rule:evenodd;stroke:none" transform="scale(.7)"/></marker><marker id="o" markerHeight="1" markerWidth="1" orient="auto-start-reverse" preserveAspectRatio="xMidYMid" refX="0" refY="0" style="overflow:visible" viewBox="0 0 1 1"><path d="M-.211-4.106 6.21-.894a1 1 90 0 1 0 1.788L-.21 4.106A1.236 1.236 31.717 0 1-2 3v-6A1.236 1.236 148.283 0 1-.211-4.106" style="fill:context-stroke;fill-rule:evenodd;stroke:none" transform="scale(.7)"/></marker></defs><path d="M27.355 88.558h108.334v95.272H27.355z" style="fill:#fff;stroke:#fff;stroke-width:.264999;stroke-linejoin:bevel" transform="translate(-27.222 -88.426)"/><path d="M31.396 110.364h79.375v52.917H31.396z" style="fill:#fff;stroke:red;stroke-width:.264999;stroke-linejoin:bevel" transform="translate(-27.222 -88.426)"/><path d="M84.316 150.184v26.922m-13.365-27.022v26.922" style="fill:none;stroke:#999;stroke-width:.264583px;stroke-linecap:butt;stroke-linejoin:miter;stroke-opacity:1" transform="translate(-27.222 -88.426)"/><path d="M44.625 150.052h13.23l-6.616-26.458-6.614 26.458m26.458 0-6.614-26.458h13.229l-6.615 26.458m13.229 0 6.615-26.458 6.615 26.458h-13.23" style="fill:none;stroke:red;stroke-width:.264583px;stroke-linecap:butt;stroke-linejoin:miter;stroke-opacity:1" transform="translate(-27.222 -88.426)"/><path d="M31.396 110.364h79.375v52.917H31.396v-52.917" style="fill:none;stroke:red;stroke-width:.264583px;stroke-linecap:butt;stroke-linejoin:miter;stroke-opacity:1" transform="translate(-27.222 -88.426)"/><path d="M44.625 150.052v26.922m13.229-26.922v26.922m39.725-26.79v26.922m13.324-13.693v13.693m-79.507-13.692v13.692" style="fill:none;stroke:#999;stroke-width:.264583px;stroke-linecap:butt;stroke-linejoin:miter;stroke-opacity:1" transform="translate(-27.222 -88.426)"/><path d="m32.92 177.106 10.288-.132" style="fill:none;stroke:#000;stroke-width:.264583px;stroke-linecap:butt;stroke-linejoin:miter;stroke-opacity:1;marker-start:url(#a);marker-end:url(#a)" transform="translate(-27.222 -88.426)"/><path d="m46.01 177.04 10.288-.133" style="fill:none;stroke:#000;stroke-width:.264583px;stroke-linecap:butt;stroke-linejoin:miter;stroke-opacity:1;marker-start:url(#b);marker-end:url(#b)" transform="translate(-27.222 -88.426)"/><path d="m59.239 177.04 10.288-.133" style="fill:none;stroke:#000;stroke-width:.264583px;stroke-linecap:butt;stroke-linejoin:miter;stroke-opacity:1;marker-start:url(#c);marker-end:url(#c)" transform="translate(-27.222 -88.426)"/><path d="m72.336 177.072 10.288-.133" style="fill:none;stroke:#000;stroke-width:.264583px;stroke-linecap:butt;stroke-linejoin:miter;stroke-opacity:1;marker-start:url(#d);marker-end:url(#d)" transform="translate(-27.222 -88.426)"/><path d="m85.701 177.172 10.288-.132" style="fill:none;stroke:#000;stroke-width:.264583px;stroke-linecap:butt;stroke-linejoin:miter;stroke-opacity:1;marker-start:url(#e);marker-end:url(#e)" transform="translate(-27.222 -88.426)"/><path d="m99.096 177.172 10.288-.132" style="fill:none;stroke:#000;stroke-width:.264583px;stroke-linecap:butt;stroke-linejoin:miter;stroke-opacity:1;marker-start:url(#f);marker-end:url(#f)" transform="translate(-27.222 -88.426)"/><text xml:space="preserve" style="font-size:14.6667px;line-height:1.25;font-family:sans-serif;white-space:pre;shape-inside:url(#g);display:inline" transform="translate(-26.146 -98.834)scale(.26458)"><tspan x="134.783" y="722.367">A</tspan></text><text xml:space="preserve" style="font-size:14.6667px;line-height:1.25;font-family:sans-serif;white-space:pre;shape-inside:url(#h);display:inline" transform="translate(-12.763 -98.799)scale(.26458)"><tspan x="134.783" y="722.367">A</tspan></text><text xml:space="preserve" style="font-size:14.6667px;line-height:1.25;font-family:sans-serif;white-space:pre;shape-inside:url(#i);display:inline" transform="translate(.194 -98.63)scale(.26458)"><tspan x="134.783" y="722.367">A</tspan></text><text xml:space="preserve" style="font-size:14.6667px;line-height:1.25;font-family:sans-serif;white-space:pre;shape-inside:url(#j);display:inline" transform="translate(13.843 -98.618)scale(.26458)"><tspan x="134.783" y="722.367">A</tspan></text><text xml:space="preserve" style="font-size:14.6667px;line-height:1.25;font-family:sans-serif;white-space:pre;shape-inside:url(#k);display:inline" transform="translate(26.985 -98.626)scale(.26458)"><tspan x="134.783" y="722.367">A</tspan></text><text xml:space="preserve" style="font-size:14.6667px;line-height:1.25;font-family:sans-serif;white-space:pre;shape-inside:url(#l);display:inline" transform="translate(40.952 -98.282)scale(.26458)"><tspan x="134.783" y="722.367">A</tspan></text><path d="M111.035 163.413h13.693m-27.017-13.361h26.922m-13.73-39.688h13.693m-33.648 13.197h33.648" style="fill:none;stroke:#999;stroke-width:.264583px;stroke-linecap:butt;stroke-linejoin:miter;stroke-opacity:1" transform="translate(-27.222 -88.426)"/><path d="m124.794 162.028-.132-10.287" style="fill:none;stroke:#000;stroke-width:.264583px;stroke-linecap:butt;stroke-linejoin:miter;stroke-opacity:1;marker-start:url(#m);marker-end:url(#m)" transform="translate(-27.222 -88.426)"/><path d="m124.662 122.177-.132-10.288" style="fill:none;stroke:#000;stroke-width:.264583px;stroke-linecap:butt;stroke-linejoin:miter;stroke-opacity:1;marker-start:url(#n);marker-end:url(#n)" transform="translate(-27.222 -88.426)"/><path d="m124.699 148.66-.132-23.972" style="fill:none;stroke:#000;stroke-width:.264583px;stroke-linecap:butt;stroke-linejoin:miter;stroke-opacity:1;marker-start:url(#o);marker-end:url(#o)" transform="translate(-27.222 -88.426)"/><text xml:space="preserve" style="font-size:14.6667px;line-height:1.25;font-family:sans-serif;white-space:pre;shape-inside:url(#p);display:inline" transform="translate(-28.337 -86.21)scale(.26458)"><tspan x="479.871" y="590.104">B</tspan></text><text xml:space="preserve" style="font-size:14.6667px;line-height:1.25;font-family:sans-serif;white-space:pre;shape-inside:url(#q);display:inline" transform="translate(-28.771 -126.722)scale(.26458)"><tspan x="479.871" y="590.104">B</tspan></text><text xml:space="preserve" style="font-size:14.6667px;line-height:1.25;font-family:sans-serif;white-space:pre;shape-inside:url(#r);display:inline" transform="translate(-28.545 -106.553)scale(.26458)"><tspan x="479.871" y="590.104">2*B</tspan></text><text xml:space="preserve" x="57.56" style="font-size:14.6667px;line-height:1.25;font-family:sans-serif;text-align:center;white-space:pre;shape-inside:url(#s);display:inline" transform="translate(-50.679 -76.708)scale(.26458)"><tspan x="464.558" y="313.736">Rounded corner
</tspan><tspan x="513.077" y="332.07">R1</tspan></text><path d="m111.775 108.343 2.307-8.22" style="fill:none;stroke:#000;stroke-width:.264583px;stroke-linecap:butt;stroke-linejoin:miter;stroke-opacity:1;marker-start:url(#a)" transform="translate(-27.222 -88.426)"/></svg>