<svg xmlns="http://www.w3.org/2000/svg" width="201" height="201" viewBox="0 0 53.181 53.181"><defs><marker id="a" markerHeight="1" markerWidth="1" orient="auto-start-reverse" preserveAspectRatio="xMidYMid" refX="0" refY="0" style="overflow:visible" viewBox="0 0 1 1"><path d="M-.211-4.106 6.21-.894a1 1 90 0 1 0 1.788L-.21 4.106A1.236 1.236 31.717 0 1-2 3v-6A1.236 1.236 148.283 0 1-.211-4.106" style="fill:context-stroke;fill-rule:evenodd;stroke:none" transform="scale(.7)"/></marker><marker id="b" markerHeight="1" markerWidth="1" orient="auto-start-reverse" preserveAspectRatio="xMidYMid" refX="0" refY="0" style="overflow:visible" viewBox="0 0 1 1"><path d="M-.211-4.106 6.21-.894a1 1 90 0 1 0 1.788L-.21 4.106A1.236 1.236 31.717 0 1-2 3v-6A1.236 1.236 148.283 0 1-.211-4.106" style="fill:context-stroke;fill-rule:evenodd;stroke:none" transform="scale(.7)"/></marker><path id="d" d="M102.787 402.173h78.333v49.241h-78.333z"/><path id="c" d="M111.175 334.938h108.422v65.566H111.175z"/></defs><g transform="translate(-12.336 -25.27)"><path d="M12.469 25.402h52.917v52.917H12.469z" style="fill:#fff;stroke:#fff;stroke-width:.264583;stroke-linejoin:bevel"/><circle cx="37.559" cy="50.913" r="14.095" style="fill:none;stroke:gray;stroke-width:.264583;stroke-linejoin:bevel"/><circle cx="37.559" cy="50.913" r="10.23" style="fill:none;stroke:gray;stroke-width:.264583;stroke-linejoin:bevel"/><path d="M23.464 50.913v19.01m28.454-19.01v19.01" style="fill:none;stroke:#000;stroke-width:.264583px;stroke-linecap:butt;stroke-linejoin:miter;stroke-opacity:1"/><path d="m46.369 38.423 3.687-4.31" style="fill:none;stroke:#000;stroke-width:.264583px;stroke-linecap:butt;stroke-linejoin:miter;stroke-opacity:1;marker-start:url(#a)"/><path d="m42.672 43.247-3.028 3.566" style="fill:none;stroke:#000;stroke-width:.264583px;stroke-linecap:butt;stroke-linejoin:miter;stroke-opacity:1;marker-start:url(#b)"/><path d="M24.826 69.924h25.982" style="fill:none;stroke:#000;stroke-width:.264583px;stroke-linecap:butt;stroke-linejoin:miter;stroke-opacity:1;marker-start:url(#a);marker-end:url(#a)"/><text xml:space="preserve" style="font-size:14.6667px;line-height:1.25;font-family:sans-serif;white-space:pre;shape-inside:url(#c)" transform="translate(5.373 -18.067)scale(.26458)"><tspan x="111.176" y="347.914">D1</tspan></text><text xml:space="preserve" style="font-size:14.6667px;line-height:1.25;font-family:sans-serif;white-space:pre;shape-inside:url(#d)" transform="translate(22.27 -76.453)scale(.26458)"><tspan x="102.787" y="415.148">E1</tspan></text></g></svg>