<svg xmlns="http://www.w3.org/2000/svg" width="600" height="3000" viewBox="0 0 158.75 793.75"><defs><path id="k" d="M202.431 311.671h55.531v36.523h-55.531z"/><path id="j" d="M209.765 317.118h170.927v38.874H209.765z"/><path id="i" d="M206.495 320.73h32.123v30.251h-32.123z"/><path id="h" d="M171.786 316.392h93.126v50.919h-93.126z"/><path id="g" d="M290.079 256.907h59.036v30.948h-59.036z"/><path id="f" d="M135.756 242.639h82.186v48.327h-82.186z"/><path id="a" d="M14.358 15.598H233.91v51.186H14.358z"/><marker id="c" markerHeight="1" markerWidth="1" orient="auto-start-reverse" preserveAspectRatio="xMidYMid" refX="0" refY="0" style="overflow:visible" viewBox="0 0 1 1"><path d="M3-3 0 0l3 3" style="fill:none;stroke:context-stroke;stroke-width:1;stroke-linecap:butt" transform="rotate(180 .125 0)"/></marker><marker id="b" markerHeight="1" markerWidth="1" orient="auto-start-reverse" preserveAspectRatio="xMidYMid" refX="0" refY="0" style="overflow:visible" viewBox="0 0 1 1"><path d="M3-3 0 0l3 3" style="fill:none;stroke:context-stroke;stroke-width:1;stroke-linecap:butt" transform="rotate(180 .125 0)"/></marker><marker id="d" markerHeight="1" markerWidth="1" orient="auto-start-reverse" preserveAspectRatio="xMidYMid" refX="0" refY="0" style="overflow:visible" viewBox="0 0 1 1"><path d="M3-3 0 0l3 3" style="fill:none;stroke:context-stroke;stroke-width:1;stroke-linecap:butt" transform="rotate(180 .125 0)"/></marker><marker id="e" markerHeight="1" markerWidth="1" orient="auto-start-reverse" preserveAspectRatio="xMidYMid" refX="0" refY="0" style="overflow:visible" viewBox="0 0 1 1"><path d="M3-3 0 0l3 3" style="fill:none;stroke:context-stroke;stroke-width:1;stroke-linecap:butt" transform="rotate(180 .125 0)"/></marker></defs><path d="M29.261 26.661h72.259v46.01H29.261z" style="fill:#fff;stroke:#fff;stroke-width:.264583;stroke-linejoin:bevel"/><text xml:space="preserve" style="font-size:14.6667px;line-height:1.25;font-family:sans-serif;white-space:pre;shape-inside:url(#a);display:inline" transform="scale(.26458)"><tspan x="14.357" y="28.574">myPartO.svg</tspan></text><path d="M48.616 64.227h34.216M48.616 64.227c-10.66-7.322-19.233-16.423-9.275-24.374M82.832 64.227c7.105-4.742 12.608-10.215 3.939-22.157" style="fill:none;stroke:#00f;stroke-width:.52916667;stroke-linecap:butt;stroke-linejoin:miter;stroke-opacity:1"/><path d="M39.34 39.853C59.973 25.37 75.173 28.037 86.77 42.07" style="fill:none;stroke:#00f;stroke-width:.52916667;stroke-linecap:butt;stroke-linejoin:miter;stroke-opacity:1"/><path d="m38.224 42.199 3.011-5.514M42.234 41.673l-5.504-3.65M84.622 45.399l4.53-5.545M83.023 40.363l6.89 3.368" style="fill:none;stroke:purple;stroke-width:.264583px;stroke-linecap:butt;stroke-linejoin:miter;stroke-opacity:1"/><path d="m82.333 36.1 9.544 12.351" style="fill:none;stroke:#faa;stroke-width:.264583px;stroke-linecap:butt;stroke-linejoin:miter;stroke-opacity:1;marker-start:url(#b);marker-end:url(#c)"/><path d="M87.208 42.409h11.437M39.482 39.98H50.92" style="fill:none;stroke:#ff8080;stroke-width:.264583px;stroke-linecap:butt;stroke-linejoin:miter;stroke-opacity:1"/><path d="M33.208 44.134 46.006 35.2" style="fill:none;stroke:#faa;stroke-width:.264583px;stroke-linecap:butt;stroke-linejoin:miter;stroke-opacity:1;marker-start:url(#d);marker-end:url(#e)"/><path d="M42.813 37.414s1.075.636 1.197 1.183c.113.512-.547 1.475-.547 1.475" style="fill:none;stroke:#a00;stroke-width:.264583px;stroke-linecap:butt;stroke-linejoin:miter;stroke-opacity:1"/><path d="M84.763 39.241s2.325-.593 3.452-.338c.859.194 1.735.658 2.262 1.363.43.575.543 2.086.543 2.086" style="fill:none;stroke:maroon;stroke-width:.264583px;stroke-linecap:butt;stroke-linejoin:miter;stroke-opacity:1"/><text xml:space="preserve" style="font-size:14.6667px;line-height:1.25;font-family:sans-serif;white-space:pre;shape-inside:url(#f);display:inline" transform="translate(6.596 1.099)scale(.26458)"><tspan x="135.756" y="255.615">(0,0)</tspan></text><text xml:space="preserve" style="font-size:14.6667px;line-height:1.25;font-family:sans-serif;white-space:pre;shape-inside:url(#g);display:inline" transform="translate(.866 -2.871)scale(.26458)"><tspan x="290.078" y="269.885">(L1, 0)</tspan></text><text xml:space="preserve" style="font-size:14.6667px;line-height:1.25;font-family:sans-serif;white-space:pre;shape-inside:url(#h);display:inline" transform="translate(-6.854 -41.337)scale(.26458)"><tspan x="171.785" y="329.369">(P1X, P1Y)</tspan></text><text xml:space="preserve" style="font-size:14.6667px;line-height:1.25;font-family:sans-serif;white-space:pre;shape-inside:url(#i);display:inline" transform="translate(-8.593 -48.848)scale(.26458)"><tspan x="206.494" y="333.707">A1</tspan></text><text xml:space="preserve" style="font-size:14.6667px;line-height:1.25;font-family:sans-serif;white-space:pre;shape-inside:url(#j);display:inline" transform="translate(11.847 -37.531)scale(.26458)"><tspan x="209.766" y="330.094">(P2X, P2Y)</tspan></text><text xml:space="preserve" style="font-size:14.6667px;line-height:1.25;font-family:sans-serif;white-space:pre;shape-inside:url(#k);display:inline" transform="translate(36.527 -47.384)scale(.26458)"><tspan x="202.432" y="324.647">A2</tspan></text></svg>