<svg xmlns="http://www.w3.org/2000/svg" width="490.294" height="440.259" viewBox="0 0 129.724 116.485"><defs><path id="h" d="M119.555 369.442h51.656v35.639h-51.656z"/><path id="g" d="M97.941 646.841h47.456v36.118H97.941z"/><path id="c" d="M544.713 650.223h40.012v36.079h-40.012z"/><path id="d" d="M544.713 650.223h40.012v36.079h-40.012z"/><path id="f" d="M363.027 408.126h57.752v55.903h-57.752z"/><path id="j" d="M278.486 415.704h62.063v42.261h-62.063z"/><marker id="a" markerHeight="1" markerWidth="1" orient="auto-start-reverse" preserveAspectRatio="xMidYMid" refX="0" refY="0" style="overflow:visible" viewBox="0 0 1 1"><path d="M3-3 0 0l3 3" style="fill:none;stroke:context-stroke;stroke-width:1;stroke-linecap:butt" transform="rotate(180 .125 0)"/></marker><marker id="b" markerHeight="1" markerWidth="1" orient="auto-start-reverse" preserveAspectRatio="xMidYMid" refX="0" refY="0" style="overflow:visible" viewBox="0 0 1 1"><path d="M3-3 0 0l3 3" style="fill:none;stroke:context-stroke;stroke-width:1;stroke-linecap:butt" transform="rotate(180 .125 0)"/></marker><marker id="e" markerHeight="1" markerWidth="1" orient="auto-start-reverse" preserveAspectRatio="xMidYMid" refX="0" refY="0" style="overflow:visible" viewBox="0 0 1 1"><path d="M3-3 0 0l3 3" style="fill:none;stroke:context-stroke;stroke-width:1;stroke-linecap:butt" transform="rotate(180 .125 0)"/></marker><marker id="i" markerHeight="1" markerWidth="1" orient="auto-start-reverse" preserveAspectRatio="xMidYMid" refX="0" refY="0" style="overflow:visible" viewBox="0 0 1 1"><path d="M3-3 0 0l3 3" style="fill:none;stroke:context-stroke;stroke-width:1;stroke-linecap:butt" transform="rotate(180 .125 0)"/></marker></defs><path d="M20.237 122.964h129.459v116.221H20.237z" style="fill:#fff;stroke:#fff;stroke-width:.264582;stroke-linejoin:bevel" transform="translate(-20.104 -122.832)"/><path d="M47.802 180.929h62.564v47.389H47.802z" style="fill:none;stroke:#00f;stroke-width:.264583;stroke-linejoin:bevel" transform="translate(-20.104 -122.832)"/><path d="m78.961 139.731-44.548 58.02 4.715 3.62 39.635-51.626 39.82 51.811 4.778-3.992-44.4-57.833" style="fill:none;stroke:green;stroke-width:.264583px;stroke-linecap:butt;stroke-linejoin:miter;stroke-opacity:1" transform="translate(-20.104 -122.832)"/><path d="M110.367 180.93h28.139" style="fill:none;stroke:#b3b3b3;stroke-width:.264583px;stroke-linecap:butt;stroke-linejoin:miter;stroke-opacity:1" transform="translate(-20.104 -122.832)"/><path d="M78.962 139.731h59.421" style="fill:none;stroke:#b3b3b3;stroke-width:.264584px;stroke-linecap:butt;stroke-linejoin:miter;stroke-opacity:1" transform="translate(-20.104 -122.832)"/><path d="M138.506 139.856v41.124" style="fill:none;stroke:#000;stroke-width:.264583px;stroke-linecap:butt;stroke-linejoin:miter;stroke-opacity:1;marker-start:url(#a);marker-end:url(#a)" transform="translate(-20.104 -122.832)"/><path d="M110.367 228.318h28.139" style="fill:none;stroke:#b3b3b3;stroke-width:.264583px;stroke-linecap:butt;stroke-linejoin:miter;stroke-opacity:1" transform="translate(-20.104 -122.832)"/><path d="M138.506 181.028v46.927" style="fill:none;stroke:#000;stroke-width:.264583px;stroke-linecap:butt;stroke-linejoin:miter;stroke-opacity:1;marker-start:url(#b);marker-end:url(#b)" transform="translate(-20.104 -122.832)"/><text xml:space="preserve" style="font-size:14.6667px;line-height:1.25;font-family:sans-serif;white-space:pre;shape-inside:url(#c);display:inline" transform="translate(-25.214 -92.397)scale(.26458)"><tspan x="544.713" y="663.199">H1</tspan></text><text xml:space="preserve" style="font-size:14.6667px;line-height:1.25;font-family:sans-serif;white-space:pre;shape-inside:url(#d);display:inline" transform="translate(-25.196 -138.397)scale(.26458)"><tspan x="544.713" y="663.199">H2</tspan></text><path d="M47.802 230.435h62.565" style="fill:none;stroke:#000;stroke-width:.264583px;stroke-linecap:butt;stroke-linejoin:miter;stroke-opacity:1;marker-start:url(#e);marker-end:url(#e)" transform="translate(-20.104 -122.832)"/><text xml:space="preserve" style="font-size:14.6667px;line-height:1.25;font-family:sans-serif;white-space:pre;shape-inside:url(#f);display:inline" transform="translate(-40.11 1)scale(.26458)"><tspan x="363.027" y="421.104">W1</tspan></text><path d="m38.07 202.958-4.715-3.62" style="fill:none;stroke:#000;stroke-width:.264583px;stroke-linecap:butt;stroke-linejoin:miter;stroke-opacity:1;marker-start:url(#a);marker-end:url(#a)" transform="translate(-20.104 -122.832)"/><text xml:space="preserve" style="font-size:14.6667px;line-height:1.25;font-family:sans-serif;white-space:pre;shape-inside:url(#g);display:inline" transform="translate(-14.966 -92.08)scale(.26458)"><tspan x="97.941" y="659.818">E2</tspan></text><path d="M47.802 180.929v-23.391M34.413 197.75v-39.325" style="fill:none;stroke:#b3b3b3;stroke-width:.264583px;stroke-linecap:butt;stroke-linejoin:miter;stroke-opacity:1" transform="translate(-20.104 -122.832)"/><path d="M34.413 158.425h13.19" style="fill:none;stroke:#000;stroke-width:.264583px;stroke-linecap:butt;stroke-linejoin:miter;stroke-opacity:1;marker-start:url(#a);marker-end:url(#a)" transform="translate(-20.104 -122.832)"/><text xml:space="preserve" style="font-size:14.6667px;line-height:1.25;font-family:sans-serif;white-space:pre;shape-inside:url(#h);display:inline" transform="translate(-13.602 -67.225)scale(.26458)"><tspan x="119.555" y="382.418">L1</tspan></text><path d="M57.879 180.929h42.411v47.389H57.879z" style="fill:none;stroke:teal;stroke-width:.264583;stroke-linejoin:bevel" transform="translate(-20.104 -122.832)"/><path d="M100.781 218.61h9.36" style="fill:none;stroke:#000;stroke-width:.264582px;stroke-linecap:butt;stroke-linejoin:miter;stroke-opacity:1;marker-start:url(#i);marker-end:url(#i)" transform="translate(-20.104 -122.832)"/><text xml:space="preserve" style="font-size:14.6667px;line-height:1.25;font-family:sans-serif;white-space:pre;shape-inside:url(#j);display:inline" transform="translate(9.202 -19.233)scale(.26458)"><tspan x="278.486" y="428.68">E1</tspan></text></svg>