<svg xmlns="http://www.w3.org/2000/svg" width="373.287" height="364.676" viewBox="0 0 98.766 96.487"><defs><path id="l" d="M136.735 632.194h50.504v27.422h-50.504z"/><path id="k" d="M148.32 660.243h48.44v29.633h-48.44z"/><path id="j" d="M116.524 611.198h53.631v43.765h-53.631z"/><path id="i" d="M497.268 703.324h44.752v30.358h-44.752z"/><path id="h" d="M464.018 752.241h46.691v37.674h-46.691z"/><path id="g" d="M468.241 619.33h56.744v42.197h-56.744z"/><path id="c" d="M264.861 646.876h58.693v25.529h-58.693z"/><path id="a" d="M356.025 529.161h34.264v19.321h-34.264z"/><marker id="b" markerHeight="1" markerWidth="1" orient="auto-start-reverse" preserveAspectRatio="xMidYMid" refX="0" refY="0" style="overflow:visible" viewBox="0 0 1 1"><path d="M3-3 0 0l3 3" style="fill:none;stroke:context-stroke;stroke-width:1;stroke-linecap:butt" transform="rotate(180 .125 0)"/></marker><marker id="d" markerHeight="1" markerWidth="1" orient="auto-start-reverse" preserveAspectRatio="xMidYMid" refX="0" refY="0" style="overflow:visible" viewBox="0 0 1 1"><path d="M3-3 0 0l3 3" style="fill:none;stroke:context-stroke;stroke-width:1;stroke-linecap:butt" transform="rotate(180 .125 0)"/></marker><marker id="e" markerHeight="1" markerWidth="1" orient="auto-start-reverse" preserveAspectRatio="xMidYMid" refX="0" refY="0" style="overflow:visible" viewBox="0 0 1 1"><path d="M3-3 0 0l3 3" style="fill:none;stroke:context-stroke;stroke-width:1;stroke-linecap:butt" transform="rotate(180 .125 0)"/></marker><marker id="f" markerHeight="1" markerWidth="1" orient="auto-start-reverse" preserveAspectRatio="xMidYMid" refX="0" refY="0" style="overflow:visible" viewBox="0 0 1 1"><path d="M3-3 0 0l3 3" style="fill:none;stroke:context-stroke;stroke-width:1;stroke-linecap:butt" transform="rotate(180 .125 0)"/></marker></defs><g transform="translate(-31.51 -111.91)"><rect width="98.501" height="96.223" x="31.643" y="112.042" rx="0" ry="0" style="fill:#fff;stroke:#fff;stroke-width:.264583;stroke-linejoin:bevel"/><path d="m50.087 147.408 12.764-9.1 7.552-1.85 1.52 3.508 5.4 1.046 5.398-1.046 1.52-3.508 7.553 1.85 12.763 9.1-2.32 4.063-13.339-7.464s-2.203 3.854-2.642 5.991c-.79 3.837-.64 7.906.113 11.75 2.119 10.807 12.182 30.71 12.182 30.71H56.094s10.062-19.903 12.181-30.71c.754-3.844.903-7.913.114-11.75-.44-2.137-2.643-5.99-2.643-5.99l-13.339 7.463z" style="fill:none;stroke:#000;stroke-width:.264583px;stroke-linecap:butt;stroke-linejoin:miter;stroke-opacity:1"/><path d="M56.094 192.459v10.465M98.55 192.459v10.465" style="fill:none;stroke:#b3b3b3;stroke-width:.264583px;stroke-linecap:butt;stroke-linejoin:miter;stroke-opacity:1"/><path d="M98.418 192.59h22.146" style="fill:none;stroke:#b3b3b3;stroke-width:.264582px;stroke-linecap:butt;stroke-linejoin:miter;stroke-opacity:1"/><path d="M88.898 144.007h31.666M98.55 182.097v10.466" style="fill:none;stroke:#b3b3b3;stroke-width:.264583px;stroke-linecap:butt;stroke-linejoin:miter;stroke-opacity:1"/><path d="M98.302 183.69s-1.301-.239-1.906-.045c-.549.177-1.382 1.04-1.382 1.04" style="fill:none;stroke:#000;stroke-width:.264583px;stroke-linecap:butt;stroke-linejoin:miter;stroke-opacity:1"/><text xml:space="preserve" style="font-size:14.6667px;line-height:1.25;font-family:sans-serif;white-space:pre;shape-inside:url(#a)" transform="translate(.28 38.03)scale(.26458)"><tspan x="356.025" y="542.137">a1</tspan></text><path d="M56.094 202.924H98.55" style="fill:none;stroke:#000;stroke-width:.264583px;stroke-linecap:butt;stroke-linejoin:miter;stroke-opacity:1;marker-start:url(#b);marker-end:url(#b)"/><text xml:space="preserve" style="font-size:14.6667px;line-height:1.25;font-family:sans-serif;white-space:pre;shape-inside:url(#c)" transform="translate(6.038 32.718)scale(.26458)"><tspan x="264.861" y="659.854">B1</tspan></text><path d="M120.564 144.007v48.584" style="fill:none;stroke:#000;stroke-width:.264583px;stroke-linecap:butt;stroke-linejoin:miter;stroke-opacity:1;marker-start:url(#b);marker-end:url(#b)"/><path d="M70.403 125.993v10.465M84.241 125.993v10.465" style="fill:none;stroke:#b3b3b3;stroke-width:.264583px;stroke-linecap:butt;stroke-linejoin:miter;stroke-opacity:1"/><path d="M70.615 126.88H84.03" style="fill:none;stroke:#000;stroke-width:.264583px;stroke-linecap:butt;stroke-linejoin:miter;stroke-opacity:1;marker-start:url(#d);marker-end:url(#d)"/><path d="M65.746 120.802v23.205M89.03 120.67v23.205" style="fill:none;stroke:#b3b3b3;stroke-width:.264582px;stroke-linecap:butt;stroke-linejoin:miter;stroke-opacity:1"/><path d="M66.137 120.802H88.64" style="fill:none;stroke:#000;stroke-width:.264582px;stroke-linecap:butt;stroke-linejoin:miter;stroke-opacity:1;marker-start:url(#e);marker-end:url(#e)"/><path d="m91.794 138.308 9.099-12.763M104.557 147.408l9.099-12.764" style="fill:none;stroke:#ccc;stroke-width:.264583px;stroke-linecap:butt;stroke-linejoin:miter;stroke-opacity:1"/><path d="m113.656 134.644-12.763-9.099" style="fill:none;stroke:#000;stroke-width:.264583px;stroke-linecap:butt;stroke-linejoin:miter;stroke-opacity:1;marker-start:url(#b);marker-end:url(#b)"/><path d="m104.557 147.408 9.806 6.98M102.237 151.47l9.807 6.98" style="fill:none;stroke:#ccc;stroke-width:.264583px;stroke-linecap:butt;stroke-linejoin:miter;stroke-opacity:1"/><path d="m111.18 157.582 2.525-3.602" style="fill:none;stroke:#000;stroke-width:.264582px;stroke-linecap:butt;stroke-linejoin:miter;stroke-opacity:1;marker-start:url(#b);marker-end:url(#b)"/><path d="M39.152 136.326h31.119" style="fill:none;stroke:#b3b3b3;stroke-width:.264581px;stroke-linecap:butt;stroke-linejoin:miter;stroke-opacity:1"/><path d="M39.152 141.012h38.17" style="fill:none;stroke:#b3b3b3;stroke-width:.264582px;stroke-linecap:butt;stroke-linejoin:miter;stroke-opacity:1"/><path d="M40.04 140.794v-4.515" style="fill:none;stroke:#000;stroke-width:.264583px;stroke-linecap:butt;stroke-linejoin:miter;stroke-opacity:1;marker-start:url(#f);marker-end:url(#f)"/><text xml:space="preserve" style="font-size:14.6667px;line-height:1.25;font-family:sans-serif;white-space:pre;shape-inside:url(#g)" transform="translate(-2.53 2.552)scale(.26458)"><tspan x="468.24" y="632.307">H1</tspan></text><text xml:space="preserve" style="font-size:14.6667px;line-height:1.25;font-family:sans-serif;white-space:pre;shape-inside:url(#h)" transform="translate(-14.66 -73.826)scale(.26458)"><tspan x="464.018" y="765.219">M1</tspan></text><text xml:space="preserve" style="font-size:14.6667px;line-height:1.25;font-family:sans-serif;white-space:pre;shape-inside:url(#i)" transform="translate(-18.711 -29.547)scale(.26458)"><tspan x="497.268" y="716.301">M2</tspan></text><text xml:space="preserve" style="font-size:14.6667px;line-height:1.25;font-family:sans-serif;white-space:pre;shape-inside:url(#j)" transform="translate(44.254 -39.032)scale(.26458)"><tspan x="116.523" y="624.174">C1</tspan></text><text xml:space="preserve" style="font-size:14.6667px;line-height:1.25;font-family:sans-serif;white-space:pre;shape-inside:url(#k)" transform="translate(-5.602 -38.008)scale(.26458)"><tspan x="148.32" y="673.219">C2</tspan></text><text xml:space="preserve" style="font-size:14.6667px;line-height:1.25;font-family:sans-serif;white-space:pre;shape-inside:url(#l)" transform="translate(39.851 -52.014)scale(.26458)"><tspan x="136.734" y="645.17">P1</tspan></text></g></svg>