<svg xmlns="http://www.w3.org/2000/svg" width="453.717" height="295.028" viewBox="0 0 120.046 78.06"><defs><marker id="c" markerHeight="1" markerWidth="1" orient="auto-start-reverse" preserveAspectRatio="xMidYMid" refX="0" refY="0" style="overflow:visible" viewBox="0 0 1 1"><path d="M3-3 0 0l3 3" style="fill:none;stroke:context-stroke;stroke-width:1;stroke-linecap:butt" transform="rotate(180 .125 0)"/></marker><marker id="b" markerHeight="1" markerWidth="1" orient="auto-start-reverse" preserveAspectRatio="xMidYMid" refX="0" refY="0" style="overflow:visible" viewBox="0 0 1 1"><path d="M3-3 0 0l3 3" style="fill:none;stroke:context-stroke;stroke-width:1;stroke-linecap:butt" transform="rotate(180 .125 0)"/></marker><marker id="a" markerHeight="1" markerWidth="1" orient="auto-start-reverse" preserveAspectRatio="xMidYMid" refX="0" refY="0" style="overflow:visible" viewBox="0 0 1 1"><path d="M3-3 0 0l3 3" style="fill:none;stroke:context-stroke;stroke-width:1;stroke-linecap:butt" transform="rotate(180 .125 0)"/></marker><marker id="g" markerHeight="1" markerWidth="1" orient="auto-start-reverse" preserveAspectRatio="xMidYMid" refX="0" refY="0" style="overflow:visible" viewBox="0 0 1 1"><path d="M3-3 0 0l3 3" style="fill:none;stroke:context-stroke;stroke-width:1;stroke-linecap:butt" transform="rotate(180 .125 0)"/></marker><marker id="h" markerHeight="1" markerWidth="1" orient="auto-start-reverse" preserveAspectRatio="xMidYMid" refX="0" refY="0" style="overflow:visible" viewBox="0 0 1 1"><path d="M3-3 0 0l3 3" style="fill:none;stroke:context-stroke;stroke-width:1;stroke-linecap:butt" transform="rotate(180 .125 0)"/></marker><marker id="i" markerHeight="1" markerWidth="1" orient="auto-start-reverse" preserveAspectRatio="xMidYMid" refX="0" refY="0" style="overflow:visible" viewBox="0 0 1 1"><path d="M3-3 0 0l3 3" style="fill:none;stroke:context-stroke;stroke-width:1;stroke-linecap:butt" transform="rotate(180 .125 0)"/></marker><marker id="m" markerHeight="1" markerWidth="1" orient="auto-start-reverse" preserveAspectRatio="xMidYMid" refX="0" refY="0" style="overflow:visible" viewBox="0 0 1 1"><path d="M3-3 0 0l3 3" style="fill:none;stroke:context-stroke;stroke-width:1;stroke-linecap:butt" transform="rotate(180 .125 0)"/></marker><marker id="n" markerHeight="1" markerWidth="1" orient="auto-start-reverse" preserveAspectRatio="xMidYMid" refX="0" refY="0" style="overflow:visible" viewBox="0 0 1 1"><path d="M3-3 0 0l3 3" style="fill:none;stroke:context-stroke;stroke-width:1;stroke-linecap:butt" transform="rotate(180 .125 0)"/></marker><marker id="o" markerHeight="1" markerWidth="1" orient="auto-start-reverse" preserveAspectRatio="xMidYMid" refX="0" refY="0" style="overflow:visible" viewBox="0 0 1 1"><path d="M3-3 0 0l3 3" style="fill:none;stroke:context-stroke;stroke-width:1;stroke-linecap:butt" transform="rotate(180 .125 0)"/></marker><path id="f" d="M187.242 433.221h37.674v21.311h-37.674z"/><path id="e" d="M201.323 368.407h37.5v25.724h-37.5z"/><path id="d" d="M113.512 288.594h28.97v23.368h-28.97z"/><path id="j" d="M113.512 288.594h28.97v23.368h-28.97z"/><path id="k" d="M201.323 368.407h37.5v25.724h-37.5z"/><path id="l" d="M187.242 433.221h37.674v21.311h-37.674z"/><path id="p" d="M113.512 288.594h28.97v23.368h-28.97z"/><path id="q" d="M201.323 368.407h37.5v25.724h-37.5z"/><path id="r" d="M187.242 433.221h37.674v21.311h-37.674z"/></defs><path d="M13.265 56.372h119.781v77.795H13.265z" style="fill:#fff;stroke:#fff;stroke-width:.264583;stroke-linejoin:bevel" transform="translate(-13.132 -56.24)"/><path d="M19.894 64.928h101.708v56.493H19.894z" style="fill:none;stroke:#000;stroke-width:.264583;stroke-linejoin:bevel" transform="translate(-13.132 -56.24)"/><path d="m31.566 98.295-4.424 8.106h12.836l-4.425-8.106s1.111-.744 1.474-1.286c.464-.691.782-1.533.804-2.366.023-.864-.243-1.764-.703-2.495-.4-.638-1.025-1.149-1.694-1.493a3.9 3.9 0 0 0-1.874-.434c-.8.023-1.632.242-2.305.677-.686.443-1.24 1.124-1.597 1.86a3.9 3.9 0 0 0-.37 1.885c.04.75.262 1.518.662 2.154.39.623 1.616 1.498 1.616 1.498z" style="fill:none;stroke:#000;stroke-width:.264583px;stroke-linecap:butt;stroke-linejoin:miter;stroke-opacity:1" transform="translate(-13.132 -56.24)"/><path d="M29.289 94.643v-9.696M37.83 94.643v-9.696M27.142 116.097V106.4M39.978 116.097V106.4M49.541 106.534h-9.695M49.541 98.295H35.553" style="fill:none;stroke:#b3b3b3;stroke-width:.264583px;stroke-linecap:butt;stroke-linejoin:miter;stroke-opacity:1" transform="translate(-13.132 -56.24)"/><path d="M29.289 88.652h8.542" style="fill:none;stroke:#000;stroke-width:.264583px;stroke-linecap:butt;stroke-linejoin:miter;stroke-opacity:1;marker-start:url(#a);marker-end:url(#b)" transform="translate(-13.132 -56.24)"/><path d="M43.72 98.295v8.239" style="fill:none;stroke:#000;stroke-width:.264583px;stroke-linecap:butt;stroke-linejoin:miter;stroke-opacity:1;marker-start:url(#c);marker-end:url(#c)" transform="translate(-13.132 -56.24)"/><path d="M27.142 110.276h12.836" style="fill:none;stroke:#000;stroke-width:.264583px;stroke-linecap:butt;stroke-linejoin:miter;stroke-opacity:1;marker-start:url(#c);marker-end:url(#c)" transform="translate(-13.132 -56.24)"/><text xml:space="preserve" style="font-size:14.6667px;line-height:1.25;font-family:sans-serif;white-space:pre;shape-inside:url(#d)" transform="translate(-11.75 -48.55)scale(.26458)"><tspan x="113.512" y="301.57">A1</tspan></text><text xml:space="preserve" style="font-size:14.6667px;line-height:1.25;font-family:sans-serif;white-space:pre;shape-inside:url(#e)" transform="translate(-21.978 -53.381)scale(.26458)"><tspan x="201.322" y="381.383">B1</tspan></text><text xml:space="preserve" style="font-size:14.6667px;line-height:1.25;font-family:sans-serif;white-space:pre;shape-inside:url(#f)" transform="translate(-31.463 -59.75)scale(.26458)"><tspan x="187.242" y="446.197">C1</tspan></text><path d="M62.32 90.266V80.57M70.862 90.266V80.57M57.527 116.482v-9.695M75.655 116.482v-9.695M82.572 106.919h-9.695M82.572 93.918H68.584" style="fill:none;stroke:#b3b3b3;stroke-width:.264583px;stroke-linecap:butt;stroke-linejoin:miter;stroke-opacity:1" transform="translate(-13.132 -56.24)"/><path d="M62.32 84.275h8.542" style="fill:none;stroke:#000;stroke-width:.264583px;stroke-linecap:butt;stroke-linejoin:miter;stroke-opacity:1;marker-start:url(#g);marker-end:url(#h)" transform="translate(-13.132 -56.24)"/><path d="M76.752 94.05v12.582" style="fill:none;stroke:#000;stroke-width:.264583px;stroke-linecap:butt;stroke-linejoin:miter;stroke-opacity:1;marker-start:url(#i);marker-end:url(#i)" transform="translate(-13.132 -56.24)"/><path d="M57.752 110.661h17.649" style="fill:none;stroke:#000;stroke-width:.264583px;stroke-linecap:butt;stroke-linejoin:miter;stroke-opacity:1;marker-start:url(#i);marker-end:url(#i)" transform="translate(-13.132 -56.24)"/><text xml:space="preserve" style="font-size:14.6667px;line-height:1.25;font-family:sans-serif;white-space:pre;shape-inside:url(#j);display:inline" transform="translate(21.282 -52.928)scale(.26458)"><tspan x="113.512" y="301.57">A2</tspan></text><text xml:space="preserve" style="font-size:14.6667px;line-height:1.25;font-family:sans-serif;white-space:pre;shape-inside:url(#k);display:inline" transform="translate(11.053 -55.642)scale(.26458)"><tspan x="201.322" y="381.383">B2</tspan></text><text xml:space="preserve" style="font-size:14.6667px;line-height:1.25;font-family:sans-serif;white-space:pre;shape-inside:url(#l);display:inline" transform="translate(1.568 -59.365)scale(.26458)"><tspan x="187.242" y="446.197">C2</tspan></text><path d="m64.598 93.918-7.071 12.869h18.128l-7.07-12.87s1.11-.743 1.473-1.285c.464-.691.782-1.533.804-2.366.023-.864-.243-1.764-.703-2.495-.4-.638-1.025-1.149-1.694-1.493a3.9 3.9 0 0 0-1.874-.434c-.8.023-1.632.242-2.305.677-.686.443-1.24 1.124-1.597 1.86a3.9 3.9 0 0 0-.369 1.885c.04.75.262 1.518.66 2.154.392.623 1.618 1.498 1.618 1.498z" style="fill:none;stroke:#000;stroke-width:.264583px;stroke-linecap:butt;stroke-linejoin:miter;stroke-opacity:1" transform="translate(-13.132 -56.24)"/><path d="M89.694 87.466v-16.78M90.187 116.482v-9.695M108.154 116.614v-9.695M117.982 106.787h-9.696M117.679 95.603h-13.988" style="fill:none;stroke:#b3b3b3;stroke-width:.264583px;stroke-linecap:butt;stroke-linejoin:miter;stroke-opacity:1" transform="translate(-13.132 -56.24)"/><path d="M90.252 74.632h17.96" style="fill:none;stroke:#000;stroke-width:.264582px;stroke-linecap:butt;stroke-linejoin:miter;stroke-opacity:1;marker-start:url(#m);marker-end:url(#n)" transform="translate(-13.132 -56.24)"/><path d="M110.88 96.083v10.224" style="fill:none;stroke:#000;stroke-width:.264582px;stroke-linecap:butt;stroke-linejoin:miter;stroke-opacity:1;marker-start:url(#o);marker-end:url(#o)" transform="translate(-13.132 -56.24)"/><path d="M90.1 110.661h17.954" style="fill:none;stroke:#000;stroke-width:.264583px;stroke-linecap:butt;stroke-linejoin:miter;stroke-opacity:1;marker-start:url(#o);marker-end:url(#o)" transform="translate(-13.132 -56.24)"/><text xml:space="preserve" style="font-size:14.6667px;line-height:1.25;font-family:sans-serif;white-space:pre;shape-inside:url(#p);display:inline" transform="translate(53.519 -62.516)scale(.26458)"><tspan x="113.512" y="301.57">A3</tspan></text><text xml:space="preserve" style="font-size:14.6667px;line-height:1.25;font-family:sans-serif;white-space:pre;shape-inside:url(#q);display:inline" transform="translate(45.182 -54.066)scale(.26458)"><tspan x="201.322" y="381.383">B3</tspan></text><text xml:space="preserve" style="font-size:14.6667px;line-height:1.25;font-family:sans-serif;white-space:pre;shape-inside:url(#r);display:inline" transform="translate(33.7 -59.365)scale(.26458)"><tspan x="187.242" y="446.197">C3</tspan></text><path d="M108.78 87.466v-16.78" style="fill:none;stroke:#b3b3b3;stroke-width:.264583px;stroke-linecap:butt;stroke-linejoin:miter;stroke-opacity:1" transform="translate(-13.132 -56.24)"/><path d="m94.783 95.603-4.596 11.184h18.1l-4.596-11.184s2.482-1.656 3.294-2.864c1.035-1.541 1.746-3.417 1.795-5.273.051-1.924-.543-3.93-1.57-5.559-.896-1.42-2.29-2.56-3.785-3.327-1.275-.654-2.756-1.008-4.188-.967-1.789.052-3.647.54-5.151 1.508-1.533.988-2.77 2.506-3.567 4.146-.624 1.283-.9 2.775-.825 4.2.087 1.671.584 3.383 1.476 4.8.873 1.387 3.613 3.336 3.613 3.336z" style="fill:none;stroke:#000;stroke-width:.264584px;stroke-linecap:butt;stroke-linejoin:miter;stroke-opacity:1" transform="translate(-13.132 -56.24)"/></svg>