<svg xmlns="http://www.w3.org/2000/svg" width="365.18" height="364.202" viewBox="0 0 96.62 96.362"><defs><marker id="a" markerHeight="1" markerWidth="1" orient="auto-start-reverse" preserveAspectRatio="xMidYMid" refX="0" refY="0" style="overflow:visible" viewBox="0 0 1 1"><path d="M-.211-4.106 6.21-.894a1 1 90 0 1 0 1.788L-.21 4.106A1.236 1.236 31.717 0 1-2 3v-6A1.236 1.236 148.283 0 1-.211-4.106" style="fill:context-stroke;fill-rule:evenodd;stroke:none" transform="scale(.7)"/></marker><marker id="c" markerHeight="1" markerWidth="1" orient="auto-start-reverse" preserveAspectRatio="xMidYMid" refX="0" refY="0" style="overflow:visible" viewBox="0 0 1 1"><path d="M-.211-4.106 6.21-.894a1 1 90 0 1 0 1.788L-.21 4.106A1.236 1.236 31.717 0 1-2 3v-6A1.236 1.236 148.283 0 1-.211-4.106" style="fill:context-stroke;fill-rule:evenodd;stroke:none" transform="scale(.7)"/></marker><marker id="e" markerHeight="1" markerWidth="1" orient="auto-start-reverse" preserveAspectRatio="xMidYMid" refX="0" refY="0" style="overflow:visible" viewBox="0 0 1 1"><path d="M-.211-4.106 6.21-.894a1 1 90 0 1 0 1.788L-.21 4.106A1.236 1.236 31.717 0 1-2 3v-6A1.236 1.236 148.283 0 1-.211-4.106" style="fill:context-stroke;fill-rule:evenodd;stroke:none" transform="scale(.7)"/></marker><marker id="f" markerHeight="1" markerWidth="1" orient="auto-start-reverse" preserveAspectRatio="xMidYMid" refX="0" refY="0" style="overflow:visible" viewBox="0 0 1 1"><path d="M-.211-4.106 6.21-.894a1 1 90 0 1 0 1.788L-.21 4.106A1.236 1.236 31.717 0 1-2 3v-6A1.236 1.236 148.283 0 1-.211-4.106" style="fill:context-stroke;fill-rule:evenodd;stroke:none" transform="scale(.7)"/></marker><marker id="i" markerHeight="1" markerWidth="1" orient="auto-start-reverse" preserveAspectRatio="xMidYMid" refX="0" refY="0" style="overflow:visible" viewBox="0 0 1 1"><path d="M-.211-4.106 6.21-.894a1 1 90 0 1 0 1.788L-.21 4.106A1.236 1.236 31.717 0 1-2 3v-6A1.236 1.236 148.283 0 1-.211-4.106" style="fill:context-stroke;fill-rule:evenodd;stroke:none" transform="scale(.7)"/></marker><marker id="j" markerHeight="1" markerWidth="1" orient="auto-start-reverse" preserveAspectRatio="xMidYMid" refX="0" refY="0" style="overflow:visible" viewBox="0 0 1 1"><path d="M-.211-4.106 6.21-.894a1 1 90 0 1 0 1.788L-.21 4.106A1.236 1.236 31.717 0 1-2 3v-6A1.236 1.236 148.283 0 1-.211-4.106" style="fill:context-stroke;fill-rule:evenodd;stroke:none" transform="scale(.7)"/></marker><marker id="m" markerHeight="1" markerWidth="1" orient="auto-start-reverse" preserveAspectRatio="xMidYMid" refX="0" refY="0" style="overflow:visible" viewBox="0 0 1 1"><path d="M-.211-4.106 6.21-.894a1 1 90 0 1 0 1.788L-.21 4.106A1.236 1.236 31.717 0 1-2 3v-6A1.236 1.236 148.283 0 1-.211-4.106" style="fill:context-stroke;fill-rule:evenodd;stroke:none" transform="scale(.7)"/></marker><marker id="n" markerHeight="1" markerWidth="1" orient="auto-start-reverse" preserveAspectRatio="xMidYMid" refX="0" refY="0" style="overflow:visible" viewBox="0 0 1 1"><path d="M-.211-4.106 6.21-.894a1 1 90 0 1 0 1.788L-.21 4.106A1.236 1.236 31.717 0 1-2 3v-6A1.236 1.236 148.283 0 1-.211-4.106" style="fill:context-stroke;fill-rule:evenodd;stroke:none" transform="scale(.7)"/></marker><path id="o" d="M129.151 889.973h100.5v56.776h-100.5z"/><path id="k" d="M412.553 599.651h73.179v40.151h-73.179z"/><path id="b" d="M340.375 88.265h46.133v32.905h-46.133z"/><path id="d" d="M355.383 143.118h43.365v27.859h-43.365z"/><path id="g" d="M338.513 71.102h28.147v20.057h-28.147z"/><path id="h" d="M334.63 117.079h38.96v26.595h-38.96z"/><path id="l" d="M412.553 599.651h73.179v40.151h-73.179z"/><path id="p" d="M129.151 889.973h100.5v56.776h-100.5z"/></defs><path d="M27.889 118.058h96.355v96.097H27.889z" style="fill:#fff;stroke:#fff;stroke-width:.264999;stroke-linejoin:bevel" transform="translate(-27.757 -117.926)"/><path d="M43.476 158.383h34.571v52.485H43.476z" style="fill:none;stroke:#666;stroke-width:.264999;stroke-linejoin:bevel" transform="translate(-27.757 -117.926)"/><path d="M48.856 158.383h24.077v52.485H48.856z" style="fill:none;stroke:#666;stroke-width:.264999;stroke-linejoin:bevel" transform="translate(-27.757 -117.926)"/><path d="M34.303 175.999H87.22v17.427H34.303z" style="fill:none;stroke:#666;stroke-width:.264583;stroke-linejoin:bevel" transform="translate(-27.757 -117.926)"/><path d="M34.303 179.043H87.22v11.339H34.303z" style="fill:none;stroke:#666;stroke-width:.264583;stroke-linejoin:bevel" transform="translate(-27.757 -117.926)"/><path d="M87.352 179.043h13.846M87.22 190.382h13.846" style="fill:none;stroke:#e6e6e6;stroke-width:.264583px;stroke-linecap:butt;stroke-linejoin:miter;stroke-opacity:1" transform="translate(-27.757 -117.926)"/><path d="m100.884 180.344.132 9.081" style="fill:none;stroke:#000;stroke-width:.265;stroke-linecap:butt;stroke-linejoin:miter;stroke-opacity:1;marker-start:url(#a);marker-end:url(#a)" transform="translate(-27.757 -117.926)"/><text xml:space="preserve" style="font-size:14.6667px;line-height:1.25;font-family:sans-serif;white-space:pre;shape-inside:url(#b);display:inline" transform="translate(-16.644 41.797)scale(.26458)"><tspan x="340.375" y="101.242">D4</tspan></text><path d="M87.352 175.867h24.26m-24.26 17.559h24.26" style="fill:none;stroke:#e6e6e6;stroke-width:.264583px;stroke-linecap:butt;stroke-linejoin:miter;stroke-opacity:1" transform="translate(-27.757 -117.926)"/><path d="m111.48 177.355.133 14.732" style="fill:none;stroke:#000;stroke-width:.265;stroke-linecap:butt;stroke-linejoin:miter;stroke-opacity:1;marker-start:url(#c);marker-end:url(#c)" transform="translate(-27.757 -117.926)"/><text xml:space="preserve" style="font-size:14.6667px;line-height:1.25;font-family:sans-serif;white-space:pre;shape-inside:url(#d);display:inline" transform="translate(-10.014 26.93)scale(.26458)"><tspan x="355.383" y="156.096">D3</tspan></text><path d="M43.476 158.25v-33.748M78.18 158.25v-33.748M48.856 158.25v-24.448m24.076 24.448v-24.448" style="fill:none;stroke:#e6e6e6;stroke-width:.264583px;stroke-linecap:butt;stroke-linejoin:miter;stroke-opacity:1" transform="translate(-27.757 -117.926)"/><path d="m44.7 124.655 32.295-.213" style="fill:none;stroke:#000;stroke-width:.265;stroke-linecap:butt;stroke-linejoin:miter;stroke-opacity:1;marker-start:url(#e);marker-end:url(#e)" transform="translate(-27.757 -117.926)"/><path d="m50.21 133.908 21.368-.213" style="fill:none;stroke:#000;stroke-width:.265;stroke-linecap:butt;stroke-linejoin:miter;stroke-opacity:1;marker-start:url(#f);marker-end:url(#f)" transform="translate(-27.757 -117.926)"/><text xml:space="preserve" style="font-size:14.6667px;line-height:1.25;font-family:sans-serif;white-space:pre;shape-inside:url(#g);display:inline" transform="translate(-58.117 -16.563)scale(.26458)"><tspan x="338.514" y="84.078">D1</tspan></text><text xml:space="preserve" style="font-size:14.6667px;line-height:1.25;font-family:sans-serif;white-space:pre;shape-inside:url(#h);display:inline" transform="translate(-57.245 -19.002)scale(.26458)"><tspan x="334.631" y="130.055">D2</tspan></text><path d="M78.312 158.383h24.26M78.18 210.869h24.26" style="fill:none;stroke:#e6e6e6;stroke-width:.264583px;stroke-linecap:butt;stroke-linejoin:miter;stroke-opacity:1" transform="translate(-27.757 -117.926)"/><path d="m100.671 159.57.213 14.953" style="fill:none;stroke:#000;stroke-width:.265;stroke-linecap:butt;stroke-linejoin:miter;stroke-opacity:1;marker-start:url(#i);marker-end:url(#i)" transform="translate(-27.757 -117.926)"/><path d="m101.066 194.615.213 14.953" style="fill:none;stroke:#000;stroke-width:.265;stroke-linecap:butt;stroke-linejoin:miter;stroke-opacity:1;marker-start:url(#j);marker-end:url(#j)" transform="translate(-27.757 -117.926)"/><text xml:space="preserve" style="font-size:14.6667px;line-height:1.25;font-family:sans-serif;white-space:pre;shape-inside:url(#k);display:inline" transform="translate(-35.24 -111.716)scale(.26458)"><tspan x="412.553" y="612.629">D1 / 2</tspan></text><text xml:space="preserve" style="font-size:14.6667px;line-height:1.25;font-family:sans-serif;white-space:pre;shape-inside:url(#l);display:inline" transform="translate(-34.872 -76.933)scale(.26458)"><tspan x="412.553" y="612.629">D1 / 2</tspan></text><path d="m79.71 151.484 6.222-.132" style="fill:none;stroke:#000;stroke-width:.265;stroke-linecap:butt;stroke-linejoin:miter;stroke-opacity:1;marker-start:url(#m);marker-end:url(#m)" transform="translate(-27.757 -117.926)"/><path d="M87.22 175.867v-24.449m-52.917 24.449v-24.449" style="fill:none;stroke:#e6e6e6;stroke-width:.264583px;stroke-linecap:butt;stroke-linejoin:miter;stroke-opacity:1" transform="translate(-27.757 -117.926)"/><path d="m35.69 151.484 6.222-.132" style="fill:none;stroke:#000;stroke-width:.265;stroke-linecap:butt;stroke-linejoin:miter;stroke-opacity:1;marker-start:url(#n);marker-end:url(#n)" transform="translate(-27.757 -117.926)"/><text xml:space="preserve" style="font-size:14.6667px;line-height:1.25;font-family:sans-serif;white-space:pre;shape-inside:url(#o);display:inline" transform="translate(-28.837 -207.804)scale(.26458)"><tspan x="129.15" y="902.949">D3 / 2</tspan></text><text xml:space="preserve" style="font-size:14.6667px;line-height:1.25;font-family:sans-serif;white-space:pre;shape-inside:url(#p);display:inline" transform="translate(15.189 -207.44)scale(.26458)"><tspan x="129.15" y="902.949">D3 / 2</tspan></text></svg>