<svg xmlns="http://www.w3.org/2000/svg" width="455.444" height="378.318" viewBox="0 0 120.503 100.097"><defs><marker id="a" markerHeight="1" markerWidth="1" orient="auto-start-reverse" preserveAspectRatio="xMidYMid" refX="0" refY="0" style="overflow:visible" viewBox="0 0 1 1"><path d="M3-3 0 0l3 3" style="fill:none;stroke:context-stroke;stroke-width:1;stroke-linecap:butt" transform="rotate(180 .125 0)"/></marker><marker id="b" markerHeight="1" markerWidth="1" orient="auto-start-reverse" preserveAspectRatio="xMidYMid" refX="0" refY="0" style="overflow:visible" viewBox="0 0 1 1"><path d="M3-3 0 0l3 3" style="fill:none;stroke:context-stroke;stroke-width:1;stroke-linecap:butt" transform="rotate(180 .125 0)"/></marker><marker id="e" markerHeight="1" markerWidth="1" orient="auto-start-reverse" preserveAspectRatio="xMidYMid" refX="0" refY="0" style="overflow:visible" viewBox="0 0 1 1"><path d="M3-3 0 0l3 3" style="fill:none;stroke:context-stroke;stroke-width:1;stroke-linecap:butt" transform="rotate(180 .125 0)"/></marker><marker id="d" markerHeight="1" markerWidth="1" orient="auto-start-reverse" preserveAspectRatio="xMidYMid" refX="0" refY="0" style="overflow:visible" viewBox="0 0 1 1"><path d="M3-3 0 0l3 3" style="fill:none;stroke:context-stroke;stroke-width:1;stroke-linecap:butt" transform="rotate(180 .125 0)"/></marker><marker id="h" markerHeight="1" markerWidth="1" orient="auto-start-reverse" preserveAspectRatio="xMidYMid" refX="0" refY="0" style="overflow:visible" viewBox="0 0 1 1"><path d="M3-3 0 0l3 3" style="fill:none;stroke:context-stroke;stroke-width:1;stroke-linecap:butt" transform="rotate(180 .125 0)"/></marker><marker id="g" markerHeight="1" markerWidth="1" orient="auto-start-reverse" preserveAspectRatio="xMidYMid" refX="0" refY="0" style="overflow:visible" viewBox="0 0 1 1"><path d="M3-3 0 0l3 3" style="fill:none;stroke:context-stroke;stroke-width:1;stroke-linecap:butt" transform="rotate(180 .125 0)"/></marker><marker id="j" markerHeight="1" markerWidth="1" orient="auto-start-reverse" preserveAspectRatio="xMidYMid" refX="0" refY="0" style="overflow:visible" viewBox="0 0 1 1"><path d="M3-3 0 0l3 3" style="fill:none;stroke:context-stroke;stroke-width:1;stroke-linecap:butt" transform="rotate(180 .125 0)"/></marker><marker id="l" markerHeight="1" markerWidth="1" orient="auto-start-reverse" preserveAspectRatio="xMidYMid" refX="0" refY="0" style="overflow:visible" viewBox="0 0 1 1"><path d="M3-3 0 0l3 3" style="fill:none;stroke:context-stroke;stroke-width:1;stroke-linecap:butt" transform="rotate(180 .125 0)"/></marker><marker id="n" markerHeight="1" markerWidth="1" orient="auto-start-reverse" preserveAspectRatio="xMidYMid" refX="0" refY="0" style="overflow:visible" viewBox="0 0 1 1"><path d="M3-3 0 0l3 3" style="fill:none;stroke:context-stroke;stroke-width:1;stroke-linecap:butt" transform="rotate(180 .125 0)"/></marker><marker id="p" markerHeight="1" markerWidth="1" orient="auto-start-reverse" preserveAspectRatio="xMidYMid" refX="0" refY="0" style="overflow:visible" viewBox="0 0 1 1"><path d="M3-3 0 0l3 3" style="fill:none;stroke:context-stroke;stroke-width:1;stroke-linecap:butt" transform="rotate(180 .125 0)"/></marker><marker id="q" markerHeight="1" markerWidth="1" orient="auto-start-reverse" preserveAspectRatio="xMidYMid" refX="0" refY="0" style="overflow:visible" viewBox="0 0 1 1"><path d="M3-3 0 0l3 3" style="fill:none;stroke:context-stroke;stroke-width:1;stroke-linecap:butt" transform="rotate(180 .125 0)"/></marker><marker id="r" markerHeight="1" markerWidth="1" orient="auto-start-reverse" preserveAspectRatio="xMidYMid" refX="0" refY="0" style="overflow:visible" viewBox="0 0 1 1"><path d="M3-3 0 0l3 3" style="fill:none;stroke:context-stroke;stroke-width:1;stroke-linecap:butt" transform="rotate(180 .125 0)"/></marker><marker id="s" markerHeight="1" markerWidth="1" orient="auto-start-reverse" preserveAspectRatio="xMidYMid" refX="0" refY="0" style="overflow:visible" viewBox="0 0 1 1"><path d="M3-3 0 0l3 3" style="fill:none;stroke:context-stroke;stroke-width:1;stroke-linecap:butt" transform="rotate(180 .125 0)"/></marker><marker id="t" markerHeight="1" markerWidth="1" orient="auto-start-reverse" preserveAspectRatio="xMidYMid" refX="0" refY="0" style="overflow:visible" viewBox="0 0 1 1"><path d="M3-3 0 0l3 3" style="fill:none;stroke:context-stroke;stroke-width:1;stroke-linecap:butt" transform="rotate(180 .125 0)"/></marker><path id="u" d="M171.865 941.316h66.777v46.594h-66.777z"/><path id="c" d="M222.224 351.374h20.766v19.301h-20.766z"/><path id="f" d="M222.224 351.374h20.766v19.301h-20.766z"/><path id="i" d="M222.224 351.374h20.766v19.301h-20.766z"/><path id="k" d="M502.874 199.85h33.916v45.326h-33.916z"/><path id="m" d="M490.148 275.699h32.759v45.684h-32.759z"/><path id="o" d="M490.148 275.699h32.759v45.684h-32.759z"/><path id="v" d="M171.865 941.316h66.777v46.594h-66.777z"/><path id="w" d="M171.865 941.316h66.777v46.594h-66.777z"/><path id="x" d="M171.865 941.316h66.777v46.594h-66.777z"/><path id="y" d="M171.865 941.316h66.777v46.594h-66.777z"/></defs><path d="M12.57 136.535h120.238v99.832H12.57z" style="fill:#fff;stroke:#fff;stroke-width:.264583;stroke-linejoin:bevel" transform="translate(-12.438 -136.403)"/><path d="M60.318 146.759h19.724v58.208H60.318z" style="fill:none;stroke:#000;stroke-width:.264583;stroke-linejoin:bevel" transform="translate(-12.438 -136.403)"/><path d="M60.318 149.405h19.724v52.917H60.318zM21.003 162.766h19.724v25.929H21.003z" style="fill:none;stroke:#000;stroke-width:.264583;stroke-linejoin:bevel" transform="translate(-12.438 -136.403)"/><path d="M21.053 165.148h19.724v21.167H21.053zM99.716 162.766h19.724v25.929H99.716z" style="fill:none;stroke:#000;stroke-width:.264583;stroke-linejoin:bevel" transform="translate(-12.438 -136.403)"/><path d="M99.765 165.148h19.724v21.167H99.765z" style="fill:none;stroke:#000;stroke-width:.264583;stroke-linejoin:bevel" transform="translate(-12.438 -136.403)"/><path d="M30.914 165.677v8.21" style="fill:none;stroke:#00f;stroke-width:.264583px;stroke-linecap:butt;stroke-linejoin:miter;stroke-opacity:1;marker-start:url(#a)" transform="translate(-12.438 -136.403)"/><path d="M30.914 162.37v-4.906" style="fill:none;stroke:#00f;stroke-width:.264583px;stroke-linecap:butt;stroke-linejoin:miter;stroke-opacity:1;marker-start:url(#b)" transform="translate(-12.438 -136.403)"/><text xml:space="preserve" style="font-size:14.6667px;line-height:1.25;font-family:sans-serif;white-space:pre;shape-inside:url(#c);display:inline;fill:#00f" transform="translate(-39.655 -59.724)scale(.26458)"><tspan x="222.225" y="364.35">E1</tspan></text><path d="M69.46 149.551v8.21" style="fill:none;stroke:#00f;stroke-width:.264583px;stroke-linecap:butt;stroke-linejoin:miter;stroke-opacity:1;marker-start:url(#d)" transform="translate(-12.438 -136.403)"/><path d="M69.46 146.245v-4.907" style="fill:none;stroke:#00f;stroke-width:.264583px;stroke-linecap:butt;stroke-linejoin:miter;stroke-opacity:1;marker-start:url(#e)" transform="translate(-12.438 -136.403)"/><text xml:space="preserve" style="font-size:14.6667px;line-height:1.25;font-family:sans-serif;white-space:pre;shape-inside:url(#f);display:inline;fill:#00f" transform="translate(-1.11 -75.85)scale(.26458)"><tspan x="222.225" y="364.35">E1</tspan></text><path d="M107.365 165.594v8.21" style="fill:none;stroke:#00f;stroke-width:.264583px;stroke-linecap:butt;stroke-linejoin:miter;stroke-opacity:1;marker-start:url(#g)" transform="translate(-12.438 -136.403)"/><path d="M107.365 162.287v-4.906" style="fill:none;stroke:#00f;stroke-width:.264583px;stroke-linecap:butt;stroke-linejoin:miter;stroke-opacity:1;marker-start:url(#h)" transform="translate(-12.438 -136.403)"/><text xml:space="preserve" style="font-size:14.6667px;line-height:1.25;font-family:sans-serif;white-space:pre;shape-inside:url(#i);display:inline;fill:#00f" transform="translate(36.796 -59.807)scale(.26458)"><tspan x="222.225" y="364.35">E1</tspan></text><path d="M83.84 146.82v57.822" style="fill:none;stroke:#000;stroke-width:.264582px;stroke-linecap:butt;stroke-linejoin:miter;stroke-opacity:1;marker-start:url(#j);marker-end:url(#j)" transform="translate(-12.438 -136.403)"/><text xml:space="preserve" style="font-size:14.6667px;line-height:1.25;font-family:sans-serif;white-space:pre;shape-inside:url(#k);display:inline" transform="translate(-60.833 -16.278)scale(.26458)"><tspan x="502.875" y="212.826">D1</tspan></text><path d="M122.461 163.009v25.444" style="fill:none;stroke:#000;stroke-width:.264583px;stroke-linecap:butt;stroke-linejoin:miter;stroke-opacity:1;marker-start:url(#l);marker-end:url(#l)" transform="translate(-12.438 -136.403)"/><text xml:space="preserve" style="font-size:14.6667px;line-height:1.25;font-family:sans-serif;white-space:pre;shape-inside:url(#m);display:inline" transform="translate(-18.95 -35.457)scale(.26458)"><tspan x="490.148" y="288.676">D2</tspan></text><path d="M43.383 163.009v25.444" style="fill:none;stroke:#000;stroke-width:.264583px;stroke-linecap:butt;stroke-linejoin:miter;stroke-opacity:1;marker-start:url(#n);marker-end:url(#n)" transform="translate(-12.438 -136.403)"/><text xml:space="preserve" style="font-size:14.6667px;line-height:1.25;font-family:sans-serif;white-space:pre;shape-inside:url(#o);display:inline" transform="translate(-98.027 -35.457)scale(.26458)"><tspan x="490.148" y="288.676">D2</tspan></text><path d="M21.003 188.828v39.193M40.727 188.828v39.193M60.318 204.967v23.054M80.042 204.967v22.989M99.716 188.828v39.193M119.44 188.828v39.193" style="fill:none;stroke:#b3b3b3;stroke-width:.264583px;stroke-linecap:butt;stroke-linejoin:miter;stroke-opacity:1" transform="translate(-12.438 -136.403)"/><path d="M60.698 228.021H79.69" style="fill:none;stroke:#000;stroke-width:.264583px;stroke-linecap:butt;stroke-linejoin:miter;stroke-opacity:1;marker-start:url(#p);marker-end:url(#p)" transform="translate(-12.438 -136.403)"/><path d="M40.941 228.021h18.992" style="fill:none;stroke:#000;stroke-width:.264583px;stroke-linecap:butt;stroke-linejoin:miter;stroke-opacity:1;marker-start:url(#q);marker-end:url(#q)" transform="translate(-12.438 -136.403)"/><path d="M21.35 228.021h18.991" style="fill:none;stroke:#000;stroke-width:.264583px;stroke-linecap:butt;stroke-linejoin:miter;stroke-opacity:1;marker-start:url(#r);marker-end:url(#r)" transform="translate(-12.438 -136.403)"/><path d="M80.427 227.956h18.991" style="fill:none;stroke:#000;stroke-width:.264583px;stroke-linecap:butt;stroke-linejoin:miter;stroke-opacity:1;marker-start:url(#s);marker-end:url(#s)" transform="translate(-12.438 -136.403)"/><path d="M100.101 228.021h18.991" style="fill:none;stroke:#000;stroke-width:.264583px;stroke-linecap:butt;stroke-linejoin:miter;stroke-opacity:1;marker-start:url(#t);marker-end:url(#t)" transform="translate(-12.438 -136.403)"/><text xml:space="preserve" style="font-size:14.6667px;line-height:1.25;font-family:sans-serif;white-space:pre;shape-inside:url(#u);display:inline" transform="translate(-29.633 -162.254)scale(.26458)"><tspan x="171.865" y="954.293">L1</tspan></text><text xml:space="preserve" style="font-size:14.6667px;line-height:1.25;font-family:sans-serif;white-space:pre;shape-inside:url(#v);display:inline" transform="translate(-10.243 -162.299)scale(.26458)"><tspan x="171.865" y="954.293">L1</tspan></text><text xml:space="preserve" style="font-size:14.6667px;line-height:1.25;font-family:sans-serif;white-space:pre;shape-inside:url(#w);display:inline" transform="translate(9.217 -162.52)scale(.26458)"><tspan x="171.865" y="954.293">L1</tspan></text><text xml:space="preserve" style="font-size:14.6667px;line-height:1.25;font-family:sans-serif;white-space:pre;shape-inside:url(#x);display:inline" transform="translate(30.068 -162.445)scale(.26458)"><tspan x="171.865" y="954.293">L1</tspan></text><text xml:space="preserve" style="font-size:14.6667px;line-height:1.25;font-family:sans-serif;white-space:pre;shape-inside:url(#y);display:inline" transform="translate(49.597 -162.312)scale(.26458)"><tspan x="171.865" y="954.293">L1</tspan></text></svg>