<svg xmlns="http://www.w3.org/2000/svg" width="464.982" height="431.622" viewBox="0 0 123.026 114.2"><defs><marker id="q" markerHeight="1" markerWidth="1" orient="auto-start-reverse" preserveAspectRatio="xMidYMid" refX="0" refY="0" style="overflow:visible" viewBox="0 0 1 1"><path d="M-.211-4.106 6.21-.894a1 1 90 0 1 0 1.788L-.21 4.106A1.236 1.236 31.717 0 1-2 3v-6A1.236 1.236 148.283 0 1-.211-4.106" style="fill:context-stroke;fill-rule:evenodd;stroke:none" transform="scale(.7)"/></marker><marker id="a" markerHeight="1" markerWidth="1" orient="auto-start-reverse" preserveAspectRatio="xMidYMid" refX="0" refY="0" style="overflow:visible" viewBox="0 0 1 1"><path d="M-.211-4.106 6.21-.894a1 1 90 0 1 0 1.788L-.21 4.106A1.236 1.236 31.717 0 1-2 3v-6A1.236 1.236 148.283 0 1-.211-4.106" style="fill:context-stroke;fill-rule:evenodd;stroke:none" transform="scale(.7)"/></marker><marker id="c" markerHeight="1" markerWidth="1" orient="auto-start-reverse" preserveAspectRatio="xMidYMid" refX="0" refY="0" style="overflow:visible" viewBox="0 0 1 1"><path d="M-.211-4.106 6.21-.894a1 1 90 0 1 0 1.788L-.21 4.106A1.236 1.236 31.717 0 1-2 3v-6A1.236 1.236 148.283 0 1-.211-4.106" style="fill:context-stroke;fill-rule:evenodd;stroke:none" transform="scale(.7)"/></marker><marker id="e" markerHeight="1" markerWidth="1" orient="auto-start-reverse" preserveAspectRatio="xMidYMid" refX="0" refY="0" style="overflow:visible" viewBox="0 0 1 1"><path d="M-.211-4.106 6.21-.894a1 1 90 0 1 0 1.788L-.21 4.106A1.236 1.236 31.717 0 1-2 3v-6A1.236 1.236 148.283 0 1-.211-4.106" style="fill:context-stroke;fill-rule:evenodd;stroke:none" transform="scale(.7)"/></marker><marker id="f" markerHeight="1" markerWidth="1" orient="auto-start-reverse" preserveAspectRatio="xMidYMid" refX="0" refY="0" style="overflow:visible" viewBox="0 0 1 1"><path d="M-.211-4.106 6.21-.894a1 1 90 0 1 0 1.788L-.21 4.106A1.236 1.236 31.717 0 1-2 3v-6A1.236 1.236 148.283 0 1-.211-4.106" style="fill:context-stroke;fill-rule:evenodd;stroke:none" transform="scale(.7)"/></marker><marker id="i" markerHeight="1" markerWidth="1" orient="auto-start-reverse" preserveAspectRatio="xMidYMid" refX="0" refY="0" style="overflow:visible" viewBox="0 0 1 1"><path d="M-.211-4.106 6.21-.894a1 1 90 0 1 0 1.788L-.21 4.106A1.236 1.236 31.717 0 1-2 3v-6A1.236 1.236 148.283 0 1-.211-4.106" style="fill:context-stroke;fill-rule:evenodd;stroke:none" transform="scale(.7)"/></marker><marker id="j" markerHeight="1" markerWidth="1" orient="auto-start-reverse" preserveAspectRatio="xMidYMid" refX="0" refY="0" style="overflow:visible" viewBox="0 0 1 1"><path d="M-.211-4.106 6.21-.894a1 1 90 0 1 0 1.788L-.21 4.106A1.236 1.236 31.717 0 1-2 3v-6A1.236 1.236 148.283 0 1-.211-4.106" style="fill:context-stroke;fill-rule:evenodd;stroke:none" transform="scale(.7)"/></marker><marker id="m" markerHeight="1" markerWidth="1" orient="auto-start-reverse" preserveAspectRatio="xMidYMid" refX="0" refY="0" style="overflow:visible" viewBox="0 0 1 1"><path d="M-.211-4.106 6.21-.894a1 1 90 0 1 0 1.788L-.21 4.106A1.236 1.236 31.717 0 1-2 3v-6A1.236 1.236 148.283 0 1-.211-4.106" style="fill:context-stroke;fill-rule:evenodd;stroke:none" transform="scale(.7)"/></marker><marker id="n" markerHeight="1" markerWidth="1" orient="auto-start-reverse" preserveAspectRatio="xMidYMid" refX="0" refY="0" style="overflow:visible" viewBox="0 0 1 1"><path d="M-.211-4.106 6.21-.894a1 1 90 0 1 0 1.788L-.21 4.106A1.236 1.236 31.717 0 1-2 3v-6A1.236 1.236 148.283 0 1-.211-4.106" style="fill:context-stroke;fill-rule:evenodd;stroke:none" transform="scale(.7)"/></marker><marker id="r" markerHeight="1" markerWidth="1" orient="auto-start-reverse" preserveAspectRatio="xMidYMid" refX="0" refY="0" style="overflow:visible" viewBox="0 0 1 1"><path d="M-.211-4.106 6.21-.894a1 1 90 0 1 0 1.788L-.21 4.106A1.236 1.236 31.717 0 1-2 3v-6A1.236 1.236 148.283 0 1-.211-4.106" style="fill:context-stroke;fill-rule:evenodd;stroke:none" transform="scale(.7)"/></marker><marker id="s" markerHeight="1" markerWidth="1" orient="auto-start-reverse" preserveAspectRatio="xMidYMid" refX="0" refY="0" style="overflow:visible" viewBox="0 0 1 1"><path d="M-.211-4.106 6.21-.894a1 1 90 0 1 0 1.788L-.21 4.106A1.236 1.236 31.717 0 1-2 3v-6A1.236 1.236 148.283 0 1-.211-4.106" style="fill:context-stroke;fill-rule:evenodd;stroke:none" transform="scale(.7)"/></marker><marker id="t" markerHeight="1" markerWidth="1" orient="auto-start-reverse" preserveAspectRatio="xMidYMid" refX="0" refY="0" style="overflow:visible" viewBox="0 0 1 1"><path d="M-.211-4.106 6.21-.894a1 1 90 0 1 0 1.788L-.21 4.106A1.236 1.236 31.717 0 1-2 3v-6A1.236 1.236 148.283 0 1-.211-4.106" style="fill:context-stroke;fill-rule:evenodd;stroke:none" transform="scale(.7)"/></marker><marker id="y" markerHeight="1" markerWidth="1" orient="auto-start-reverse" preserveAspectRatio="xMidYMid" refX="0" refY="0" style="overflow:visible" viewBox="0 0 1 1"><path d="M-.211-4.106 6.21-.894a1 1 90 0 1 0 1.788L-.21 4.106A1.236 1.236 31.717 0 1-2 3v-6A1.236 1.236 148.283 0 1-.211-4.106" style="fill:context-stroke;fill-rule:evenodd;stroke:none" transform="scale(.7)"/></marker><marker id="z" markerHeight="1" markerWidth="1" orient="auto-start-reverse" preserveAspectRatio="xMidYMid" refX="0" refY="0" style="overflow:visible" viewBox="0 0 1 1"><path d="M-.211-4.106 6.21-.894a1 1 90 0 1 0 1.788L-.21 4.106A1.236 1.236 31.717 0 1-2 3v-6A1.236 1.236 148.283 0 1-.211-4.106" style="fill:context-stroke;fill-rule:evenodd;stroke:none" transform="scale(.7)"/></marker><marker id="A" markerHeight="1" markerWidth="1" orient="auto-start-reverse" preserveAspectRatio="xMidYMid" refX="0" refY="0" style="overflow:visible" viewBox="0 0 1 1"><path d="M-.211-4.106 6.21-.894a1 1 90 0 1 0 1.788L-.21 4.106A1.236 1.236 31.717 0 1-2 3v-6A1.236 1.236 148.283 0 1-.211-4.106" style="fill:context-stroke;fill-rule:evenodd;stroke:none" transform="scale(.7)"/></marker><marker id="B" markerHeight="1" markerWidth="1" orient="auto-start-reverse" preserveAspectRatio="xMidYMid" refX="0" refY="0" style="overflow:visible" viewBox="0 0 1 1"><path d="M-.211-4.106 6.21-.894a1 1 90 0 1 0 1.788L-.21 4.106A1.236 1.236 31.717 0 1-2 3v-6A1.236 1.236 148.283 0 1-.211-4.106" style="fill:context-stroke;fill-rule:evenodd;stroke:none" transform="scale(.7)"/></marker><path id="b" d="M340.375 88.265h46.133v32.905h-46.133z"/><path id="d" d="M355.383 143.118h43.365v27.859h-43.365z"/><path id="g" d="M338.513 71.102h28.147v20.057h-28.147z"/><path id="h" d="M334.63 117.079h38.96v26.595h-38.96z"/><path id="k" d="M412.553 599.651h73.179v40.151h-73.179z"/><path id="l" d="M412.553 599.651h73.179v40.151h-73.179z"/><path id="o" d="M129.151 889.973h100.5v56.776h-100.5z"/><path id="p" d="M129.151 889.973h100.5v56.776h-100.5z"/><path id="u" d="M49.794 529.455h48.499v31.217H49.794z"/><path id="v" d="M49.794 529.455h48.499v31.217H49.794z"/><path id="w" d="M78.242 578.258h43.515v30.272H78.242z"/><path id="x" d="M78.242 578.258h43.515v30.272H78.242z"/><path id="C" d="M49.794 529.455h48.499v31.217H49.794z"/><path id="D" d="M49.794 529.455h48.499v31.217H49.794z"/><path id="E" d="M78.242 578.258h43.515v30.272H78.242z"/><path id="F" d="M78.242 578.258h43.515v30.272H78.242z"/></defs><path d="M16.687 227.105h122.761V341.04H16.687z" style="fill:#fff;stroke:#fff;stroke-width:.264999;stroke-linejoin:bevel" transform="translate(-16.555 -226.973)"/><path d="M46.451 267.1h34.571v52.485H46.451z" style="fill:none;stroke:#666;stroke-width:.264999;stroke-linejoin:bevel" transform="translate(-16.555 -226.973)"/><path d="M51.83 267.1h24.077v52.485H51.83z" style="fill:none;stroke:#666;stroke-width:.264999;stroke-linejoin:bevel" transform="translate(-16.555 -226.973)"/><path d="M37.278 284.716h52.917v17.427H37.278z" style="fill:none;stroke:#666;stroke-width:.264583;stroke-linejoin:bevel" transform="translate(-16.555 -226.973)"/><path d="M37.278 287.76h52.917v11.339H37.278z" style="fill:none;stroke:#666;stroke-width:.264583;stroke-linejoin:bevel" transform="translate(-16.555 -226.973)"/><path d="M90.484 287.76h30.329m-30.618 11.339h30.328" style="fill:none;stroke:#e6e6e6;stroke-width:.264584px;stroke-linecap:butt;stroke-linejoin:miter;stroke-opacity:1" transform="translate(-16.555 -226.973)"/><path d="m120.792 289.06.132 9.082" style="fill:none;stroke:#000;stroke-width:.265;stroke-linecap:butt;stroke-linejoin:miter;stroke-opacity:1;marker-start:url(#a);marker-end:url(#a)" transform="translate(-16.555 -226.973)"/><text xml:space="preserve" style="font-size:14.6667px;line-height:1.25;font-family:sans-serif;white-space:pre;shape-inside:url(#b);display:inline" transform="translate(14.466 41.467)scale(.26458)"><tspan x="340.375" y="101.242">D4</tspan></text><path d="M90.327 284.584h40.766m-40.766 17.559h40.766" style="fill:none;stroke:#e6e6e6;stroke-width:.264583px;stroke-linecap:butt;stroke-linejoin:miter;stroke-opacity:1" transform="translate(-16.555 -226.973)"/><path d="m131.388 286.071.133 14.733" style="fill:none;stroke:#000;stroke-width:.265;stroke-linecap:butt;stroke-linejoin:miter;stroke-opacity:1;marker-start:url(#c);marker-end:url(#c)" transform="translate(-16.555 -226.973)"/><text xml:space="preserve" style="font-size:14.6667px;line-height:1.25;font-family:sans-serif;white-space:pre;shape-inside:url(#d);display:inline" transform="translate(21.096 26.6)scale(.26458)"><tspan x="355.383" y="156.096">D3</tspan></text><path d="M46.45 266.967V233.22m34.704 33.747V233.22M51.83 266.967V242.52m24.077 24.447V242.52" style="fill:none;stroke:#e6e6e6;stroke-width:.264583px;stroke-linecap:butt;stroke-linejoin:miter;stroke-opacity:1" transform="translate(-16.555 -226.973)"/><path d="m47.675 233.371 32.295-.213" style="fill:none;stroke:#000;stroke-width:.265;stroke-linecap:butt;stroke-linejoin:miter;stroke-opacity:1;marker-start:url(#e);marker-end:url(#e)" transform="translate(-16.555 -226.973)"/><path d="m53.184 242.625 21.368-.213" style="fill:none;stroke:#000;stroke-width:.265;stroke-linecap:butt;stroke-linejoin:miter;stroke-opacity:1;marker-start:url(#f);marker-end:url(#f)" transform="translate(-16.555 -226.973)"/><text xml:space="preserve" style="font-size:14.6667px;line-height:1.25;font-family:sans-serif;white-space:pre;shape-inside:url(#g);display:inline" transform="translate(-43.94 -16.893)scale(.26458)"><tspan x="338.514" y="84.078">D1</tspan></text><text xml:space="preserve" style="font-size:14.6667px;line-height:1.25;font-family:sans-serif;white-space:pre;shape-inside:url(#h);display:inline" transform="translate(-43.068 -19.332)scale(.26458)"><tspan x="334.631" y="130.055">D2</tspan></text><path d="M81.286 267.1h40.342" style="fill:none;stroke:#e6e6e6;stroke-width:.264582px;stroke-linecap:butt;stroke-linejoin:miter;stroke-opacity:1" transform="translate(-16.555 -226.973)"/><path d="M81.154 319.585h41.02" style="fill:none;stroke:#e6e6e6;stroke-width:.264583px;stroke-linecap:butt;stroke-linejoin:miter;stroke-opacity:1" transform="translate(-16.555 -226.973)"/><path d="m120.58 268.286.212 14.953" style="fill:none;stroke:#000;stroke-width:.265;stroke-linecap:butt;stroke-linejoin:miter;stroke-opacity:1;marker-start:url(#i);marker-end:url(#i)" transform="translate(-16.555 -226.973)"/><path d="m120.974 303.332.213 14.953" style="fill:none;stroke:#000;stroke-width:.265;stroke-linecap:butt;stroke-linejoin:miter;stroke-opacity:1;marker-start:url(#j);marker-end:url(#j)" transform="translate(-16.555 -226.973)"/><text xml:space="preserve" style="font-size:14.6667px;line-height:1.25;font-family:sans-serif;white-space:pre;shape-inside:url(#k);display:inline" transform="translate(-4.13 -112.046)scale(.26458)"><tspan x="412.553" y="612.629">D1 / 2</tspan></text><text xml:space="preserve" style="font-size:14.6667px;line-height:1.25;font-family:sans-serif;white-space:pre;shape-inside:url(#l);display:inline" transform="translate(-3.762 -77.264)scale(.26458)"><tspan x="412.553" y="612.629">D1 / 2</tspan></text><path d="m82.685 242.21 6.222-.133" style="fill:none;stroke:#000;stroke-width:.265;stroke-linecap:butt;stroke-linejoin:miter;stroke-opacity:1;marker-start:url(#m);marker-end:url(#m)" transform="translate(-16.555 -226.973)"/><path d="M90.195 284.584v-42.485m-52.917 42.485v-42.485" style="fill:none;stroke:#e6e6e6;stroke-width:.264583px;stroke-linecap:butt;stroke-linejoin:miter;stroke-opacity:1" transform="translate(-16.555 -226.973)"/><path d="m38.665 242.21 6.222-.133" style="fill:none;stroke:#000;stroke-width:.265;stroke-linecap:butt;stroke-linejoin:miter;stroke-opacity:1;marker-start:url(#n);marker-end:url(#n)" transform="translate(-16.555 -226.973)"/><text xml:space="preserve" style="font-size:14.6667px;line-height:1.25;font-family:sans-serif;white-space:pre;shape-inside:url(#o);display:inline" transform="translate(-14.66 -226.126)scale(.26458)"><tspan x="129.15" y="902.949">D3 / 2</tspan></text><text xml:space="preserve" style="font-size:14.6667px;line-height:1.25;font-family:sans-serif;white-space:pre;shape-inside:url(#p);display:inline" transform="translate(29.366 -225.762)scale(.26458)"><tspan x="129.15" y="902.949">D3 / 2</tspan></text><path d="M19.995 284.716h10.281v17.427H19.995z" style="fill:none;stroke:#666;stroke-width:.264583;stroke-linejoin:bevel" transform="translate(-16.555 -226.973)"/><path d="M19.995 287.76h10.281v11.339H19.995zm77.201-3.044h10.281v17.427H97.196z" style="fill:none;stroke:#666;stroke-width:.264583;stroke-linejoin:bevel" transform="translate(-16.555 -226.973)"/><path d="M97.196 287.76h10.281v11.339H97.196z" style="fill:none;stroke:#666;stroke-width:.264583;stroke-linejoin:bevel" transform="translate(-16.555 -226.973)"/><path d="M46.451 326.587h34.571v10.281H46.451z" style="fill:none;stroke:#666;stroke-width:.264999;stroke-linejoin:bevel" transform="translate(-16.555 -226.973)"/><path d="M51.83 326.587h24.077v10.281H51.83zm-5.379-76.77h34.571v10.281H46.451z" style="fill:none;stroke:#666;stroke-width:.264999;stroke-linejoin:bevel" transform="translate(-16.555 -226.973)"/><path d="M51.83 249.817h24.077v10.281H51.83z" style="fill:none;stroke:#666;stroke-width:.264999;stroke-linejoin:bevel" transform="translate(-16.555 -226.973)"/><path d="M81.154 260.23h40.342m-40.342-10.413h40.342m-40.342 76.77h40.342m-40.342 10.281h40.342" style="fill:none;stroke:#e6e6e6;stroke-width:.264582px;stroke-linecap:butt;stroke-linejoin:miter;stroke-opacity:1" transform="translate(-16.555 -226.973)"/><path d="M121.496 250.935v8.308" style="fill:none;stroke:#000;stroke-width:.264583px;stroke-linecap:butt;stroke-linejoin:miter;stroke-opacity:1;marker-start:url(#q);marker-end:url(#q)" transform="translate(-16.555 -226.973)"/><path d="M121.496 327.972v8.308" style="fill:none;stroke:#000;stroke-width:.264583px;stroke-linecap:butt;stroke-linejoin:miter;stroke-opacity:1;marker-start:url(#r);marker-end:url(#r)" transform="translate(-16.555 -226.973)"/><path d="M114.17 320.824v4.655" style="fill:none;stroke:#000;stroke-width:.264583px;stroke-linecap:butt;stroke-linejoin:miter;stroke-opacity:1;marker-start:url(#s);marker-end:url(#s)" transform="translate(-16.555 -226.973)"/><path d="M113.385 261.594v4.503" style="fill:none;stroke:#000;stroke-width:.264583px;stroke-linecap:butt;stroke-linejoin:miter;stroke-opacity:1;marker-start:url(#t);marker-end:url(#t)" transform="translate(-16.555 -226.973)"/><text xml:space="preserve" style="font-size:14.6667px;line-height:1.25;font-family:sans-serif;white-space:pre;shape-inside:url(#u);display:inline" transform="translate(92.496 -114.392)scale(.26458)"><tspan x="49.795" y="542.432">L1</tspan></text><text xml:space="preserve" style="font-size:14.6667px;line-height:1.25;font-family:sans-serif;white-space:pre;shape-inside:url(#v);display:inline" transform="translate(92.73 -37.425)scale(.26458)"><tspan x="49.795" y="542.432">L1</tspan></text><text xml:space="preserve" style="font-size:14.6667px;line-height:1.25;font-family:sans-serif;white-space:pre;shape-inside:url(#w);display:inline" transform="translate(77.488 -118.161)scale(.26458)"><tspan x="78.242" y="591.234">L2</tspan></text><text xml:space="preserve" style="font-size:14.6667px;line-height:1.25;font-family:sans-serif;white-space:pre;shape-inside:url(#x);display:inline" transform="translate(77.896 -58.868)scale(.26458)"><tspan x="78.242" y="591.234">L2</tspan></text><path d="M97.196 284.584v-42.485m10.281 42.485v-42.485m-77.201 42.485v-42.485m-10.281 42.485v-42.485" style="fill:none;stroke:#e6e6e6;stroke-width:.264583px;stroke-linecap:butt;stroke-linejoin:miter;stroke-opacity:1" transform="translate(-16.555 -226.973)"/><path d="M98.052 242.099h8.309" style="fill:none;stroke:#000;stroke-width:.264583px;stroke-linecap:butt;stroke-linejoin:miter;stroke-opacity:1;marker-start:url(#y);marker-end:url(#y)" transform="translate(-16.555 -226.973)"/><path d="M20.851 242.099h8.309" style="fill:none;stroke:#000;stroke-width:.264583px;stroke-linecap:butt;stroke-linejoin:miter;stroke-opacity:1;marker-start:url(#z);marker-end:url(#z)" transform="translate(-16.555 -226.973)"/><path d="M31.665 253.27h4.503" style="fill:none;stroke:#000;stroke-width:.264583px;stroke-linecap:butt;stroke-linejoin:miter;stroke-opacity:1;marker-start:url(#A);marker-end:url(#A)" transform="translate(-16.555 -226.973)"/><path d="M91.57 252.71h4.502" style="fill:none;stroke:#000;stroke-width:.264583px;stroke-linecap:butt;stroke-linejoin:miter;stroke-opacity:1;marker-start:url(#B);marker-end:url(#B)" transform="translate(-16.555 -226.973)"/><text xml:space="preserve" style="font-size:14.6667px;line-height:1.25;font-family:sans-serif;white-space:pre;shape-inside:url(#C);display:inline" transform="translate(-6.64 -129.482)scale(.26458)"><tspan x="49.795" y="542.432">L1</tspan></text><text xml:space="preserve" style="font-size:14.6667px;line-height:1.25;font-family:sans-serif;white-space:pre;shape-inside:url(#D);display:inline" transform="translate(70.645 -129.882)scale(.26458)"><tspan x="49.795" y="542.432">L1</tspan></text><text xml:space="preserve" style="font-size:14.6667px;line-height:1.25;font-family:sans-serif;white-space:pre;shape-inside:url(#E);display:inline" transform="translate(-5.652 -131.556)scale(.26458)"><tspan x="78.242" y="591.234">L2</tspan></text><text xml:space="preserve" style="font-size:14.6667px;line-height:1.25;font-family:sans-serif;white-space:pre;shape-inside:url(#F);display:inline" transform="translate(54.869 -132.116)scale(.26458)"><tspan x="78.242" y="591.234">L2</tspan></text></svg>