<svg xmlns="http://www.w3.org/2000/svg" width="600" height="3000" viewBox="0 0 158.75 793.75"><defs><path id="r" d="M461.889 351.036h29.901v20.204h-29.901z"/><path id="q" d="M117.696 306.206h45.952v39.425h-45.952z"/><path id="p" d="M105.432 309.458h77.963v50.491h-77.963z"/><path id="k" d="M347.871 364.234h24.466v24.078h-24.466z"/><path id="j" d="M182.281 244.367h27.082v21.436h-27.082z"/><path id="i" d="M213.844 304.004h31.27v24.722h-31.27z"/><path id="h" d="M229.376 295.62h37.378v28.576h-37.378z"/><path id="f" d="M154.994 235.096h104.905v55.043H154.994z"/><path id="e" d="M196.428 229.023H300v53.946H196.428z"/><path id="d" d="M80.528 238.502h87.543v48.753H80.528z"/><path id="a" d="M16.321 19.4h165.487v65.344H16.321z"/><marker id="b" markerHeight="1" markerWidth="1" orient="auto-start-reverse" preserveAspectRatio="xMidYMid" refX="0" refY="0" style="overflow:visible" viewBox="0 0 1 1"><path d="M3-3 0 0l3 3" style="fill:none;stroke:context-stroke;stroke-width:1;stroke-linecap:butt" transform="rotate(180 .125 0)"/></marker><marker id="c" markerHeight="1" markerWidth="1" orient="auto-start-reverse" preserveAspectRatio="xMidYMid" refX="0" refY="0" style="overflow:visible" viewBox="0 0 1 1"><path d="M3-3 0 0l3 3" style="fill:none;stroke:context-stroke;stroke-width:1;stroke-linecap:butt" transform="rotate(180 .125 0)"/></marker><marker id="g" markerHeight="1" markerWidth="1" orient="auto-start-reverse" preserveAspectRatio="xMidYMid" refX="0" refY="0" style="overflow:visible" viewBox="0 0 1 1"><path d="M3-3 0 0l3 3" style="fill:none;stroke:context-stroke;stroke-width:1;stroke-linecap:butt" transform="rotate(180 .125 0)"/></marker><marker id="l" markerHeight="1" markerWidth="1" orient="auto-start-reverse" preserveAspectRatio="xMidYMid" refX="0" refY="0" style="overflow:visible" viewBox="0 0 1 1"><path d="M3-3 0 0l3 3" style="fill:none;stroke:context-stroke;stroke-width:1;stroke-linecap:butt" transform="rotate(180 .125 0)"/></marker><marker id="m" markerHeight="1" markerWidth="1" orient="auto-start-reverse" preserveAspectRatio="xMidYMid" refX="0" refY="0" style="overflow:visible" viewBox="0 0 1 1"><path d="M3-3 0 0l3 3" style="fill:none;stroke:context-stroke;stroke-width:1;stroke-linecap:butt" transform="rotate(180 .125 0)"/></marker><marker id="n" markerHeight="1" markerWidth="1" orient="auto-start-reverse" preserveAspectRatio="xMidYMid" refX="0" refY="0" style="overflow:visible" viewBox="0 0 1 1"><path d="M3-3 0 0l3 3" style="fill:none;stroke:context-stroke;stroke-width:1;stroke-linecap:butt" transform="rotate(180 .125 0)"/></marker></defs><path d="M20.396 43.221h109.486v70.583H20.396z" style="fill:#fff;stroke:#fff;stroke-width:.264584;stroke-linejoin:bevel;stroke-dasharray:none;stroke-dashoffset:0"/><path d="M67.317 64.755c4.351 3.554 9.593 5.876 14.115 9.209 4.02 2.962 8.029 6.002 11.531 9.56 3.18 3.231 5.24 7.471 8.513 10.608.327.313.657.689 1.095.804.408.107.923.106 1.255-.153.359-.278.46-.816.493-1.269.034-.463-.176-.913-.311-1.357-1.168-3.84-2.589-7.615-4.296-11.246-2.134-4.543-3.98-9.44-7.4-13.112-2.91-3.127-6.72-5.486-10.684-7.081-2.875-1.157-6.05-1.524-9.146-1.662-1.43-.064-2.959-.168-4.279.387-.866.365-1.779.964-2.144 1.829-.307.729-.167 1.646.157 2.368.214.476.697.785 1.101 1.115z" style="fill:none;stroke:#000;stroke-width:.529167;stroke-linecap:butt;stroke-linejoin:miter;stroke-opacity:1"/><text xml:space="preserve" style="font-size:14.6667px;line-height:1.25;font-family:sans-serif;white-space:pre;shape-inside:url(#a);display:inline" transform="scale(.26458)"><tspan x="16.322" y="32.377">myPartS.svg</tspan></text><path d="M31.015 84.902h23.092" style="fill:none;stroke:#000;stroke-width:.264583px;stroke-linecap:butt;stroke-linejoin:miter;stroke-opacity:1;marker-end:url(#b)"/><path d="M31.015 84.902v13.562" style="fill:none;stroke:#000;stroke-width:.264583px;stroke-linecap:butt;stroke-linejoin:miter;stroke-opacity:1;marker-end:url(#c)"/><text xml:space="preserve" style="font-size:14.6667px;line-height:1.25;font-family:sans-serif;white-space:pre;shape-inside:url(#d);display:inline" transform="translate(4.477 36.98)scale(.26458)"><tspan x="80.527" y="251.479">speed
</tspan><tspan x="80.527" y="269.812">wind</tspan></text><text xml:space="preserve" style="font-size:14.6667px;line-height:1.25;font-family:sans-serif;white-space:pre;shape-inside:url(#e);display:inline" transform="translate(-13.413 15.147)scale(.26458)"><tspan x="196.428" y="242">original
</tspan><tspan x="196.428" y="260.333">wind</tspan></text><text xml:space="preserve" style="font-size:14.6667px;line-height:1.25;font-family:sans-serif;white-space:pre;shape-inside:url(#f);display:inline;fill:#00f" transform="translate(13.922 30.927)scale(.26458)"><tspan x="154.994" y="248.072">apparent
</tspan><tspan x="154.994" y="266.406">wind</tspan></text><path d="M31.015 98.464h22.918" style="fill:none;stroke:#ececec;stroke-width:.264583;stroke-linecap:butt;stroke-linejoin:miter;stroke-dasharray:1,1;stroke-dashoffset:0;stroke-opacity:1"/><path d="M54.107 84.902v13.666" style="fill:none;stroke:#ececec;stroke-width:.264583px;stroke-linecap:butt;stroke-linejoin:miter;stroke-dasharray:1,1;stroke-dashoffset:0;stroke-opacity:1"/><path d="m31.015 84.902 22.918 13.562" style="fill:#00f;stroke:#00f;stroke-width:.264583px;stroke-linecap:butt;stroke-linejoin:miter;stroke-opacity:1;marker-end:url(#b)"/><path d="m67.276 64.728 51.734 30.81" style="fill:#00f;stroke:#00f;stroke-width:.264583px;stroke-linecap:butt;stroke-linejoin:miter;stroke-opacity:1;marker-end:url(#g)"/><path d="m67.317 64.755-3.271 5.318M101.819 94.615l-4.378 4.269" style="fill:none;stroke:#e6e6e6;stroke-width:.264583px;stroke-linecap:butt;stroke-linejoin:miter;stroke-opacity:1"/><path d="M64.046 70.073C77.275 76.38 87.744 86.6 97.098 98.4" style="fill:none;stroke:#000;stroke-width:.264583px;stroke-linecap:butt;stroke-linejoin:miter;stroke-opacity:1;marker-start:url(#b);marker-end:url(#b-9)"/><text xml:space="preserve" style="font-size:14.6667px;line-height:1.25;font-family:sans-serif;white-space:pre;shape-inside:url(#h);display:inline" transform="translate(15.096 2.858)scale(.26458)"><tspan x="229.375" y="308.596">Li</tspan></text><path d="m69.908 73.408-4.717 6.937" style="fill:none;stroke:#000;stroke-width:.264583px;stroke-linecap:butt;stroke-linejoin:miter;stroke-opacity:1;marker-start:url(#b)"/><text xml:space="preserve" style="font-size:14.6667px;line-height:1.25;font-family:sans-serif;white-space:pre;shape-inside:url(#i);display:inline" transform="translate(5.457 -4.904)scale(.26458)"><tspan x="213.844" y="316.981">Ri</tspan></text><path d="m66.088 61.248-5.318-3.272" style="fill:none;stroke:#e6e6e6;stroke-width:.264583px;stroke-linecap:butt;stroke-linejoin:miter;stroke-opacity:1"/><path d="M60.705 58.022c-4.221 7.117.103 8.983 3.26 11.567" style="fill:none;stroke:#000;stroke-width:.264583px;stroke-linecap:butt;stroke-linejoin:miter;stroke-opacity:1;marker-start:url(#b);marker-end:url(#b)"/><text xml:space="preserve" style="font-size:14.6667px;line-height:1.25;font-family:sans-serif;white-space:pre;shape-inside:url(#j);display:inline" transform="translate(4.484 -1.473)scale(.26458)"><tspan x="182.281" y="257.344">Rai</tspan></text><path d="m103.643 94.727 4.269 4.378" style="fill:none;stroke:#e6e6e6;stroke-width:.264583px;stroke-linecap:butt;stroke-linejoin:miter;stroke-opacity:1"/><path d="M97.68 98.785c3.772 4.443 6.931 3.566 9.801.184" style="fill:none;stroke:#000;stroke-width:.264583px;stroke-linecap:butt;stroke-linejoin:miter;stroke-opacity:1;marker-start:url(#b);marker-end:url(#b)"/><text xml:space="preserve" style="font-size:14.6667px;line-height:1.25;font-family:sans-serif;white-space:pre;shape-inside:url(#k);display:inline" transform="translate(6.447 5.769)scale(.26458)"><tspan x="347.871" y="377.211">Rqi</tspan></text><path d="m84.243 61.903 39.274 23.352" style="fill:#00f;stroke:#00f;stroke-width:.264583px;stroke-linecap:butt;stroke-linejoin:miter;stroke-opacity:1;marker-end:url(#l)"/><path d="m63.339 59.261 4.121-7.245" style="fill:#00f;stroke:green;stroke-width:.264583px;stroke-linecap:butt;stroke-linejoin:miter;stroke-opacity:1;marker-start:url(#m);marker-end:url(#n)"/><path d="m67.69 52.174 16.598 9.693" style="fill:#00f;stroke:#ccc;stroke-width:.264582px;stroke-linecap:butt;stroke-linejoin:miter;stroke-opacity:1"/><path d="m87.47 56.523-3.272 5.318M73.62 48.78l-7.66 12.315" style="fill:none;stroke:#e6e6e6;stroke-width:.264583px;stroke-linecap:butt;stroke-linejoin:miter;stroke-opacity:1"/><path d="m73.53 49.522 13.357 7.786" style="fill:#00f;stroke:green;stroke-width:.264583px;stroke-linecap:butt;stroke-linejoin:miter;stroke-opacity:1;marker-start:url(#b);marker-end:url(#b-9-3-8)"/><text xml:space="preserve" style="font-size:14.6667px;line-height:1.25;font-family:sans-serif;white-space:pre;shape-inside:url(#p);display:inline;fill:green" transform="translate(30.93 -29.445)scale(.26458)"><tspan x="105.432" y="322.434">He</tspan></text><text xml:space="preserve" style="font-size:14.6667px;line-height:1.25;font-family:sans-serif;white-space:pre;shape-inside:url(#q);display:inline;fill:green" transform="translate(49.185 -32.068)scale(.26458)"><tspan x="117.695" y="319.182">Pe</tspan></text><path d="M109.885 89.892h11.938" style="fill:none;stroke:#999;stroke-width:.264583px;stroke-linecap:butt;stroke-linejoin:miter;stroke-opacity:1"/><path d="M116.625 89.933s.176 1.286-.038 1.873c-.208.57-1.145 1.418-1.145 1.418" style="fill:none;stroke:#000;stroke-width:.264583px;stroke-linecap:butt;stroke-linejoin:miter;stroke-opacity:1"/><text xml:space="preserve" style="font-size:14.6667px;line-height:1.25;font-family:sans-serif;white-space:pre;shape-inside:url(#r);display:inline" transform="translate(-4.413 -3.046)scale(.26458)"><tspan x="461.889" y="364.012">ai</tspan></text></svg>