<svg xmlns="http://www.w3.org/2000/svg" width="600" height="3000" viewBox="0 0 158.75 793.75"><defs><path id="r" d="M197.87 1067.233h44.55v29.299h-44.55z"/><path id="q" d="M343.382 1085.649h41.337v23.816h-41.337z"/><path id="p" d="M108.25 949.813h37.046v26.822H108.25z"/><path id="o" d="M269.136 861.035h50.038v29.917h-50.038z"/><path id="m" d="M136.735 632.194h50.504v27.422h-50.504z"/><path id="l" d="M148.32 660.243h48.44v29.633h-48.44z"/><path id="k" d="M116.524 611.198h53.631v43.765h-53.631z"/><path id="j" d="M497.268 703.324h44.752v30.358h-44.752z"/><path id="i" d="M464.018 752.241h46.691v37.674h-46.691z"/><path id="h" d="M468.241 619.33h56.744v42.197h-56.744z"/><path id="d" d="M264.861 646.876h58.693v25.529h-58.693z"/><path id="b" d="M356.025 529.161h34.264v19.321h-34.264z"/><path id="a" d="M23.238 10.814h238.62v52.057H23.238z"/><marker id="c" markerHeight="1" markerWidth="1" orient="auto-start-reverse" preserveAspectRatio="xMidYMid" refX="0" refY="0" style="overflow:visible" viewBox="0 0 1 1"><path d="M3-3 0 0l3 3" style="fill:none;stroke:context-stroke;stroke-width:1;stroke-linecap:butt" transform="rotate(180 .125 0)"/></marker><marker id="e" markerHeight="1" markerWidth="1" orient="auto-start-reverse" preserveAspectRatio="xMidYMid" refX="0" refY="0" style="overflow:visible" viewBox="0 0 1 1"><path d="M3-3 0 0l3 3" style="fill:none;stroke:context-stroke;stroke-width:1;stroke-linecap:butt" transform="rotate(180 .125 0)"/></marker><marker id="f" markerHeight="1" markerWidth="1" orient="auto-start-reverse" preserveAspectRatio="xMidYMid" refX="0" refY="0" style="overflow:visible" viewBox="0 0 1 1"><path d="M3-3 0 0l3 3" style="fill:none;stroke:context-stroke;stroke-width:1;stroke-linecap:butt" transform="rotate(180 .125 0)"/></marker><marker id="g" markerHeight="1" markerWidth="1" orient="auto-start-reverse" preserveAspectRatio="xMidYMid" refX="0" refY="0" style="overflow:visible" viewBox="0 0 1 1"><path d="M3-3 0 0l3 3" style="fill:none;stroke:context-stroke;stroke-width:1;stroke-linecap:butt" transform="rotate(180 .125 0)"/></marker><marker id="n" markerHeight="1" markerWidth="1" orient="auto-start-reverse" preserveAspectRatio="xMidYMid" refX="0" refY="0" style="overflow:visible" viewBox="0 0 1 1"><path d="M3-3 0 0l3 3" style="fill:none;stroke:context-stroke;stroke-width:1;stroke-linecap:butt" transform="rotate(180 .125 0)"/></marker></defs><path d="M34.108 229.608h82.385v61.22H34.108z" style="fill:#fff;stroke:#fff;stroke-width:.264583;stroke-linejoin:bevel"/><rect width="98.501" height="96.223" x="31.643" y="112.042" rx="0" ry="0" style="fill:#fff;stroke:#fff;stroke-width:.264583;stroke-linejoin:bevel"/><text xml:space="preserve" style="font-size:14.6667px;line-height:1.25;font-family:sans-serif;white-space:pre;shape-inside:url(#a)" transform="scale(.26458)"><tspan x="23.238" y="23.791">myPartR.svg</tspan></text><path d="m28.363 36.2 12.763-9.1 7.553-1.85 1.52 3.509 5.399 1.045.056 51.481-21.285-.034s10.063-19.904 12.182-30.71c.754-3.844.902-7.914.113-11.75-.44-2.138-2.642-5.991-2.642-5.991l-13.34 7.463z" style="fill:none;stroke:#000;stroke-width:.264583px;stroke-linecap:butt;stroke-linejoin:miter;stroke-opacity:1"/><path d="M82.832 36.2 70.07 27.1l-7.552-1.85-1.52 3.509-5.4 1.045-.056 51.481 21.285-.034s-10.062-19.904-12.182-30.71c-.753-3.844-.902-7.914-.113-11.75.44-2.138 2.643-5.991 2.643-5.991l13.339 7.463zM50.087 147.408l12.764-9.1 7.552-1.85 1.52 3.508 5.4 1.046 5.398-1.046 1.52-3.508 7.553 1.85 12.763 9.1-2.32 4.063-13.339-7.464s-2.203 3.854-2.642 5.991c-.79 3.837-.64 7.906.113 11.75 2.119 10.807 12.182 30.71 12.182 30.71H56.094s10.062-19.903 12.181-30.71c.754-3.844.903-7.913.114-11.75-.44-2.137-2.643-5.99-2.643-5.99l-13.339 7.463zM96.934 60.205 101.84 39.8h12.926v10.239l-5.937 12.706zM132.864 60.205 127.957 39.8H115.03v10.239l5.937 12.706zM63.736 248.306H89.85l4.908 20.405-11.897 2.54-6.2-12.706-5.937 12.706-11.897-2.54z" style="fill:none;stroke:#000;stroke-width:.264583px;stroke-linecap:butt;stroke-linejoin:miter;stroke-opacity:1"/><path d="M56.094 192.459v10.465M98.55 192.459v10.465" style="fill:none;stroke:#b3b3b3;stroke-width:.264583px;stroke-linecap:butt;stroke-linejoin:miter;stroke-opacity:1"/><path d="M98.418 192.59h22.146" style="fill:none;stroke:#b3b3b3;stroke-width:.264582px;stroke-linecap:butt;stroke-linejoin:miter;stroke-opacity:1"/><path d="M88.898 144.007h31.666M98.55 182.097v10.466" style="fill:none;stroke:#b3b3b3;stroke-width:.264583px;stroke-linecap:butt;stroke-linejoin:miter;stroke-opacity:1"/><path d="M98.302 183.69s-1.301-.239-1.906-.045c-.549.177-1.382 1.04-1.382 1.04" style="fill:none;stroke:#000;stroke-width:.264583px;stroke-linecap:butt;stroke-linejoin:miter;stroke-opacity:1"/><text xml:space="preserve" style="font-size:14.6667px;line-height:1.25;font-family:sans-serif;white-space:pre;shape-inside:url(#b)" transform="translate(.28 38.03)scale(.26458)"><tspan x="356.025" y="542.137">a1</tspan></text><path d="M56.094 202.924H98.55" style="fill:none;stroke:#000;stroke-width:.264583px;stroke-linecap:butt;stroke-linejoin:miter;stroke-opacity:1;marker-start:url(#c);marker-end:url(#c)"/><text xml:space="preserve" style="font-size:14.6667px;line-height:1.25;font-family:sans-serif;white-space:pre;shape-inside:url(#d)" transform="translate(6.038 32.718)scale(.26458)"><tspan x="264.861" y="659.854">B1</tspan></text><path d="M120.564 144.007v48.584" style="fill:none;stroke:#000;stroke-width:.264583px;stroke-linecap:butt;stroke-linejoin:miter;stroke-opacity:1;marker-start:url(#c);marker-end:url(#c)"/><path d="M70.403 125.993v10.465M84.241 125.993v10.465M63.736 237.84v10.466" style="fill:none;stroke:#b3b3b3;stroke-width:.264583px;stroke-linecap:butt;stroke-linejoin:miter;stroke-opacity:1"/><path d="M70.615 126.88H84.03" style="fill:none;stroke:#000;stroke-width:.264583px;stroke-linecap:butt;stroke-linejoin:miter;stroke-opacity:1;marker-start:url(#e);marker-end:url(#e)"/><path d="M65.746 120.802v23.205M89.03 120.67v23.205" style="fill:none;stroke:#b3b3b3;stroke-width:.264582px;stroke-linecap:butt;stroke-linejoin:miter;stroke-opacity:1"/><path d="M66.137 120.802H88.64" style="fill:none;stroke:#000;stroke-width:.264582px;stroke-linecap:butt;stroke-linejoin:miter;stroke-opacity:1;marker-start:url(#f);marker-end:url(#f)"/><path d="m91.794 138.308 9.099-12.763M104.557 147.408l9.099-12.764" style="fill:none;stroke:#ccc;stroke-width:.264583px;stroke-linecap:butt;stroke-linejoin:miter;stroke-opacity:1"/><path d="m113.656 134.644-12.763-9.099" style="fill:none;stroke:#000;stroke-width:.264583px;stroke-linecap:butt;stroke-linejoin:miter;stroke-opacity:1;marker-start:url(#c);marker-end:url(#c)"/><path d="m104.557 147.408 9.806 6.98M102.237 151.47l9.807 6.98" style="fill:none;stroke:#ccc;stroke-width:.264583px;stroke-linecap:butt;stroke-linejoin:miter;stroke-opacity:1"/><path d="m111.18 157.582 2.525-3.602" style="fill:none;stroke:#000;stroke-width:.264582px;stroke-linecap:butt;stroke-linejoin:miter;stroke-opacity:1;marker-start:url(#c);marker-end:url(#c)"/><path d="M39.152 136.326h31.119" style="fill:none;stroke:#b3b3b3;stroke-width:.264581px;stroke-linecap:butt;stroke-linejoin:miter;stroke-opacity:1"/><path d="M39.152 141.012h38.17" style="fill:none;stroke:#b3b3b3;stroke-width:.264582px;stroke-linecap:butt;stroke-linejoin:miter;stroke-opacity:1"/><path d="M40.04 140.794v-4.515" style="fill:none;stroke:#000;stroke-width:.264583px;stroke-linecap:butt;stroke-linejoin:miter;stroke-opacity:1;marker-start:url(#g);marker-end:url(#g)"/><text xml:space="preserve" style="font-size:14.6667px;line-height:1.25;font-family:sans-serif;white-space:pre;shape-inside:url(#h)" transform="translate(-2.53 2.552)scale(.26458)"><tspan x="468.24" y="632.307">H1</tspan></text><text xml:space="preserve" style="font-size:14.6667px;line-height:1.25;font-family:sans-serif;white-space:pre;shape-inside:url(#i)" transform="translate(-14.66 -73.826)scale(.26458)"><tspan x="464.018" y="765.219">M1</tspan></text><text xml:space="preserve" style="font-size:14.6667px;line-height:1.25;font-family:sans-serif;white-space:pre;shape-inside:url(#j)" transform="translate(-18.711 -29.547)scale(.26458)"><tspan x="497.268" y="716.301">M2</tspan></text><text xml:space="preserve" style="font-size:14.6667px;line-height:1.25;font-family:sans-serif;white-space:pre;shape-inside:url(#k)" transform="translate(44.254 -39.032)scale(.26458)"><tspan x="116.523" y="624.174">C1</tspan></text><text xml:space="preserve" style="font-size:14.6667px;line-height:1.25;font-family:sans-serif;white-space:pre;shape-inside:url(#l)" transform="translate(-5.602 -38.008)scale(.26458)"><tspan x="148.32" y="673.219">C2</tspan></text><text xml:space="preserve" style="font-size:14.6667px;line-height:1.25;font-family:sans-serif;white-space:pre;shape-inside:url(#m)" transform="translate(39.851 -52.014)scale(.26458)"><tspan x="136.734" y="645.17">P1</tspan></text><path d="M89.851 237.84v10.466" style="fill:none;stroke:#b3b3b3;stroke-width:.264583px;stroke-linecap:butt;stroke-linejoin:miter;stroke-opacity:1"/><path d="m94.759 268.71 3.171 13.321M82.862 271.25l3.172 13.321" style="fill:none;stroke:#ccc;stroke-width:.264583px;stroke-linecap:butt;stroke-linejoin:miter;stroke-opacity:1"/><path d="m85.895 283.553 11.669-2.762" style="fill:none;stroke:#000;stroke-width:.264583px;stroke-linecap:butt;stroke-linejoin:miter;stroke-opacity:1;marker-start:url(#c);marker-end:url(#c)"/><path d="m89.851 248.306 13.32-3.172M94.759 268.71l13.32-3.17" style="fill:none;stroke:#ccc;stroke-width:.264583px;stroke-linecap:butt;stroke-linejoin:miter;stroke-opacity:1"/><path d="m103.188 245.125 4.83 20.119" style="fill:none;stroke:#000;stroke-width:.264583px;stroke-linecap:butt;stroke-linejoin:miter;stroke-opacity:1;marker-start:url(#c);marker-end:url(#c)"/><path d="M63.603 248.173H42.257M76.661 258.545H42.257" style="fill:none;stroke:#b3b3b3;stroke-width:.264584px;stroke-linecap:butt;stroke-linejoin:miter;stroke-opacity:1"/><path d="M42.257 248.297v9.851" style="fill:none;stroke:#000;stroke-width:.264583px;stroke-linecap:butt;stroke-linejoin:miter;stroke-opacity:1;marker-start:url(#c);marker-end:url(#c)"/><path d="M89.822 237.84H63.765" style="fill:none;stroke:#000;stroke-width:.264582px;stroke-linecap:butt;stroke-linejoin:miter;stroke-opacity:1;marker-start:url(#n);marker-end:url(#n)"/><text xml:space="preserve" style="font-size:14.6667px;line-height:1.25;font-family:sans-serif;white-space:pre;shape-inside:url(#o)" transform="translate(3.17 4.35)scale(.26458)"><tspan x="269.137" y="874.012">S1</tspan></text><text xml:space="preserve" style="font-size:14.6667px;line-height:1.25;font-family:sans-serif;white-space:pre;shape-inside:url(#p)" transform="translate(7.938 -.103)scale(.26458)"><tspan x="108.25" y="962.789">S2</tspan></text><text xml:space="preserve" style="font-size:14.6667px;line-height:1.25;font-family:sans-serif;white-space:pre;shape-inside:url(#q)" transform="translate(.24 -3.2)scale(.26458)"><tspan x="343.381" y="1098.625">S4</tspan></text><text xml:space="preserve" style="font-size:14.6667px;line-height:1.25;font-family:sans-serif;white-space:pre;shape-inside:url(#r)" transform="translate(54.764 -30.912)scale(.26458)"><tspan x="197.869" y="1080.209">S3</tspan></text></svg>