<svg xmlns="http://www.w3.org/2000/svg" width="201" height="201" viewBox="0 0 53.181 53.181"><defs><path id="g" d="M83.159 287.133H203.32v27.926H83.159z"/><path id="b" d="M211.156 245.168h109.79v27.406h-109.79z"/><path id="a" d="M197.564 342.285h131.197v23.669H197.564z"/><path id="d" d="M202.875 294.396h79.482v46.297h-79.482z"/><path id="f" d="M202.875 294.396h79.482v46.297h-79.482z"/><marker id="c" markerHeight="1" markerWidth="1" orient="auto-start-reverse" preserveAspectRatio="xMidYMid" refX="0" refY="0" style="overflow:visible" viewBox="0 0 1 1"><path d="M-.211-4.106 6.21-.894a1 1 90 0 1 0 1.788L-.21 4.106A1.236 1.236 31.717 0 1-2 3v-6A1.236 1.236 148.283 0 1-.211-4.106" style="fill:context-stroke;fill-rule:evenodd;stroke:none" transform="scale(0.7)"/></marker><marker id="e" markerHeight="1" markerWidth="1" orient="auto-start-reverse" preserveAspectRatio="xMidYMid" refX="0" refY="0" style="overflow:visible" viewBox="0 0 1 1"><path d="M-.211-4.106 6.21-.894a1 1 90 0 1 0 1.788L-.21 4.106A1.236 1.236 31.717 0 1-2 3v-6A1.236 1.236 148.283 0 1-.211-4.106" style="fill:context-stroke;fill-rule:evenodd;stroke:none" transform="scale(0.7)"/></marker></defs><path d="M19.311 73.297h52.917v52.917H19.311z" style="fill:#fff;stroke:#fff;stroke-width:.264583;stroke-linejoin:bevel" transform="translate(-19.178663,-73.164619)"/><path d="M32.272 90.037h15.875v15.875H32.272z" style="fill:none;stroke:#0a8;stroke-width:.264583;stroke-linejoin:bevel" transform="translate(-19.178663,-73.164619)"/><path d="M90.254 31.827h15.875v15.875H90.254z" style="fill:none;stroke:#7f2aff;stroke-width:.264583;stroke-linejoin:bevel" transform="translate(-19.178663,-73.164619) rotate(45.597143)"/><text xml:space="preserve" style="font-size:14.6667px;line-height:1.25;font-family:sans-serif;white-space:pre;shape-inside:url(#a);display:inline;fill:#0a8" transform="translate(-19.178663,-73.164619) matrix(0.26458333,0,0,0.26458333,-7.5496078,-5.0429694)"><tspan x="197.564" y="355.262">0: horizontal</tspan></text><text xml:space="preserve" style="font-size:14.6667px;line-height:1.25;font-family:sans-serif;white-space:pre;shape-inside:url(#b);display:inline;fill:#7f2aff" transform="translate(-19.178663,-73.164619) matrix(0.26458333,0,0,0.26458333,-12.665083,41.504544)"><tspan x="211.156" y="258.145">1: slanted</tspan></text><path d="m52.99 91.554.057 12.888" style="fill:none;stroke:#000;stroke-width:.264583px;stroke-linecap:butt;stroke-linejoin:miter;stroke-opacity:1;marker-start:url(#c);marker-end:url(#c)" transform="translate(-19.178663,-73.164619)"/><text xml:space="preserve" style="font-size:14.6667px;line-height:1.25;font-family:sans-serif;white-space:pre;shape-inside:url(#d);display:inline" transform="translate(-19.178663,-73.164619) matrix(0.26458333,0,0,0.26458333,1.431139,18.275737)"><tspan x="202.875" y="307.373">S1</tspan></text><path d="m26.353 101.498 10.192 10.41" style="fill:none;stroke:#000;stroke-width:.264583px;stroke-linecap:butt;stroke-linejoin:miter;stroke-opacity:1;marker-start:url(#e);marker-end:url(#e)" transform="translate(-19.178663,-73.164619)"/><text xml:space="preserve" style="font-size:14.6667px;line-height:1.25;font-family:sans-serif;white-space:pre;shape-inside:url(#f);display:inline" transform="translate(-19.178663,-73.164619) matrix(0.26458333,0,0,0.26458333,-27.389406,29.53989)"><tspan x="202.875" y="307.373">S1</tspan></text><text xml:space="preserve" style="font-size:14.6667px;line-height:1.25;font-family:sans-serif;white-space:pre;shape-inside:url(#g)" transform="translate(-19.178663,-73.164619) matrix(0.26458333,0,0,0.26458333,1.4008789,4.1284179)"><tspan x="83.158" y="300.109">intShape [0..1]</tspan></text></svg>