<svg xmlns="http://www.w3.org/2000/svg" width="600" height="3000" viewBox="0 0 158.75 793.75"><defs><path id="t" d="M430.054 495.247h97.028v22.345h-97.028z"/><path id="s" d="M434.029 454.341h171.548v42.922H434.029z"/><path id="r" d="M442.338 499.603h89.402v35.337h-89.402z"/><path id="q" d="M413.367 487.799h73.513v40.977h-73.513z"/><path id="p" d="M83.159 287.133H203.32v27.926H83.159z"/><path id="o" d="M84.836 71.473h126.055v25.949H84.836z"/><path id="n" d="M308.663 884.301h55.488v42.891h-55.488z"/><path id="m" d="M279.593 706.07h105.896v26.18H279.593z"/><path id="h" d="M211.156 245.168h109.79v27.406h-109.79z"/><path id="g" d="M197.564 342.285h131.197v23.669H197.564z"/><path id="f" d="M202.875 294.396h79.482v46.297h-79.482z"/><path id="d" d="M174.749 326.722h132.213v32.224H174.749z"/><path id="c" d="M174.356 294.161h108.19v19.519h-108.19z"/><path id="b" d="M186.495 263.098h94.854v20.065h-94.854z"/><path id="a" d="M22.02 17.436h179.099v50.352H22.02z"/><path id="j" d="M202.875 294.396h79.482v46.297h-79.482z"/><path id="l" d="M202.875 294.396h79.482v46.297h-79.482z"/><marker id="e" markerHeight="1" markerWidth="1" orient="auto-start-reverse" preserveAspectRatio="xMidYMid" refX="0" refY="0" style="overflow:visible" viewBox="0 0 1 1"><path d="M-.211-4.106 6.21-.894a1 1 90 0 1 0 1.788L-.21 4.106A1.236 1.236 31.717 0 1-2 3v-6A1.236 1.236 148.283 0 1-.211-4.106" style="fill:context-stroke;fill-rule:evenodd;stroke:none" transform="scale(.7)"/></marker><marker id="i" markerHeight="1" markerWidth="1" orient="auto-start-reverse" preserveAspectRatio="xMidYMid" refX="0" refY="0" style="overflow:visible" viewBox="0 0 1 1"><path d="M-.211-4.106 6.21-.894a1 1 90 0 1 0 1.788L-.21 4.106A1.236 1.236 31.717 0 1-2 3v-6A1.236 1.236 148.283 0 1-.211-4.106" style="fill:context-stroke;fill-rule:evenodd;stroke:none" transform="scale(.7)"/></marker><marker id="k" markerHeight="1" markerWidth="1" orient="auto-start-reverse" preserveAspectRatio="xMidYMid" refX="0" refY="0" style="overflow:visible" viewBox="0 0 1 1"><path d="M-.211-4.106 6.21-.894a1 1 90 0 1 0 1.788L-.21 4.106A1.236 1.236 31.717 0 1-2 3v-6A1.236 1.236 148.283 0 1-.211-4.106" style="fill:context-stroke;fill-rule:evenodd;stroke:none" transform="scale(.7)"/></marker></defs><path d="M18.291 191.919h52.917v52.917H18.291zm-.072-57.354h52.917v52.917H18.219zm1.092-61.268h52.917v52.917H19.311zm-.203-57.148h52.917v52.917H19.108z" style="fill:#fff;stroke:#fff;stroke-width:.264583;stroke-linejoin:bevel"/><circle cx="42.32" cy="159.264" r="7.893" style="fill:#e6e6e6;stroke:#e6e6e6;stroke-width:.264584;stroke-linejoin:bevel"/><text xml:space="preserve" style="font-size:14.6667px;line-height:1.25;font-family:sans-serif;white-space:pre;shape-inside:url(#a);display:inline" transform="scale(.26458)"><tspan x="22.02" y="30.412">myPartB.svg</tspan></text><circle cx="42.384" cy="41.842" r="9.372" style="fill:none;stroke:#7f2aff;stroke-width:.264583;stroke-linejoin:bevel"/><circle cx="123.686" cy="37.909" r="9.372" style="fill:none;stroke:#666;stroke-width:.264583;stroke-linejoin:bevel"/><path d="M34.306 37.09H50.46l-8.077 14.124-8.078-14.124" style="fill:none;stroke:#00aad4;stroke-width:.264583px;stroke-linecap:butt;stroke-linejoin:miter;stroke-opacity:1"/><path d="M117.15 90.462h27.59l-13.795 24.12-13.795-24.12" style="fill:none;stroke:#000;stroke-width:.264582px;stroke-linecap:butt;stroke-linejoin:miter;stroke-opacity:1"/><path d="M34.306 46.594H50.46L42.384 32.47l-8.078 14.124" style="fill:none;stroke:#447821;stroke-width:.264583px;stroke-linecap:butt;stroke-linejoin:miter;stroke-opacity:1"/><text xml:space="preserve" style="font-size:14.6667px;line-height:1.25;font-family:sans-serif;white-space:pre;shape-inside:url(#b);display:inline;fill:#7f2aff" transform="translate(-27.449 -39.79)scale(.26458)"><tspan x="186.494" y="276.074">0: circle</tspan></text><text xml:space="preserve" style="font-size:14.6667px;line-height:1.25;font-family:sans-serif;white-space:pre;shape-inside:url(#c);display:inline;fill:#447821" transform="translate(-5.915 -50.535)scale(.26458)"><tspan x="174.355" y="307.137">1: triangle-up</tspan></text><text xml:space="preserve" style="font-size:14.6667px;line-height:1.25;font-family:sans-serif;white-space:pre;shape-inside:url(#d);display:inline;fill:#00aad4" transform="translate(-12.15 -34.15)scale(.26458)"><tspan x="174.75" y="339.699">2: triangle-down</tspan></text><path d="M42.384 32.47h20.17M42.44 51.48h20.171" style="fill:none;stroke:#000;stroke-width:.264583px;stroke-linecap:butt;stroke-linejoin:miter;stroke-opacity:1"/><path d="m62.555 33.719.056 16.513" style="fill:none;stroke:#000;stroke-width:.264583px;stroke-linecap:butt;stroke-linejoin:miter;stroke-opacity:1;marker-start:url(#e);marker-end:url(#e)"/><text xml:space="preserve" style="font-size:14.6667px;line-height:1.25;font-family:sans-serif;white-space:pre;shape-inside:url(#f);display:inline" transform="translate(9.937 -37.995)scale(.26458)"><tspan x="202.875" y="307.373">D1</tspan></text><path d="M32.272 90.037h15.875v15.875H32.272z" style="fill:none;stroke:#0a8;stroke-width:.264583;stroke-linejoin:bevel"/><path d="M90.254 31.827h15.875v15.875H90.254z" style="fill:none;stroke:#7f2aff;stroke-width:.264583;stroke-linejoin:bevel" transform="rotate(45.597)"/><text xml:space="preserve" style="font-size:14.6667px;line-height:1.25;font-family:sans-serif;white-space:pre;shape-inside:url(#g);display:inline;fill:#0a8" transform="translate(-7.55 -5.043)scale(.26458)"><tspan x="197.564" y="355.262">0: horizontal</tspan></text><text xml:space="preserve" style="font-size:14.6667px;line-height:1.25;font-family:sans-serif;white-space:pre;shape-inside:url(#h);display:inline;fill:#7f2aff" transform="translate(-12.665 41.505)scale(.26458)"><tspan x="211.156" y="258.145">1: slanted</tspan></text><path d="m52.99 91.554.057 12.888" style="fill:none;stroke:#000;stroke-width:.264583px;stroke-linecap:butt;stroke-linejoin:miter;stroke-opacity:1;marker-start:url(#i);marker-end:url(#i)"/><text xml:space="preserve" style="font-size:14.6667px;line-height:1.25;font-family:sans-serif;white-space:pre;shape-inside:url(#j);display:inline" transform="translate(1.431 18.276)scale(.26458)"><tspan x="202.875" y="307.373">S1</tspan></text><path d="m26.353 101.498 10.192 10.41" style="fill:none;stroke:#000;stroke-width:.264583px;stroke-linecap:butt;stroke-linejoin:miter;stroke-opacity:1;marker-start:url(#k);marker-end:url(#k)"/><text xml:space="preserve" style="font-size:14.6667px;line-height:1.25;font-family:sans-serif;white-space:pre;shape-inside:url(#l);display:inline" transform="translate(-27.39 29.54)scale(.26458)"><tspan x="202.875" y="307.373">S1</tspan></text><ellipse cx="42.32" cy="159.006" rx="22.587" ry="22.584" style="fill:none;stroke:#7f2aff;stroke-width:.264583;stroke-linejoin:bevel"/><path d="M22.851 147.555h38.937L42.32 181.589l-19.47-34.034" style="fill:none;stroke:#00aad4;stroke-width:.264583px;stroke-linecap:butt;stroke-linejoin:miter;stroke-opacity:1"/><path d="M22.851 170.457h38.937L42.32 136.422l-19.47 34.035" style="fill:none;stroke:#447821;stroke-width:.264583px;stroke-linecap:butt;stroke-linejoin:miter;stroke-opacity:1"/><path d="M37.012 153.957h10.615v10.615H37.012z" style="fill:none;stroke:#0a8;stroke-width:.264583;stroke-linejoin:bevel"/><path d="M138.128 75.854h10.615v10.615h-10.615z" style="fill:none;stroke:#7f2aff;stroke-width:.264583;stroke-linejoin:bevel" transform="rotate(45.597)"/><text xml:space="preserve" style="font-size:14.6667px;line-height:1.25;font-family:sans-serif;white-space:pre;shape-inside:url(#m);display:inline" transform="translate(-19.299 -6.945)scale(.26458)"><tspan x="279.592" y="719.047">hollow?</tspan></text><path d="m46.565 166.066 9.419 13.988" style="fill:none;stroke:#000;stroke-width:.264583px;stroke-linecap:butt;stroke-linejoin:miter;stroke-opacity:1;marker-start:url(#e)"/><path d="M21.391 212.755h47.437v7.003H21.391z" style="fill:none;stroke:#ccc;stroke-width:.264583;stroke-linejoin:bevel"/><path d="M22.58 228.983h45.06" style="fill:none;stroke:#000;stroke-width:.264583px;stroke-linecap:butt;stroke-linejoin:miter;stroke-opacity:1;marker-start:url(#e);marker-end:url(#e-9-2)"/><text xml:space="preserve" style="font-size:14.6667px;line-height:1.25;font-family:sans-serif;white-space:pre;shape-inside:url(#n);display:inline" transform="translate(-39.827 -4.014)scale(.26458)"><tspan x="308.662" y="897.277">L1</tspan></text><path d="M21.391 205.647h47.437v21.22H21.391z" style="fill:none;stroke:#666;stroke-width:.264583;stroke-linejoin:bevel"/><text xml:space="preserve" style="font-size:14.6667px;line-height:1.25;font-family:sans-serif;white-space:pre;shape-inside:url(#o)" transform="scale(.26458)"><tspan x="84.836" y="84.449">extShape [0..2]</tspan></text><text xml:space="preserve" style="font-size:14.6667px;line-height:1.25;font-family:sans-serif;white-space:pre;shape-inside:url(#p)" transform="translate(1.4 4.128)scale(.26458)"><tspan x="83.158" y="300.109">intShape [0..1]</tspan></text><ellipse cx="130.945" cy="98.577" rx="16.005" ry="16.004" style="fill:none;stroke:#666;stroke-width:.264582;stroke-linejoin:bevel"/><path d="m130.945 98.577 13.796-8.115m-13.796 24.12v-24.12" style="fill:none;stroke:#000;stroke-width:.264583px;stroke-linecap:butt;stroke-linejoin:miter;stroke-opacity:1"/><path d="M130.945 98.577v-8.115" style="fill:none;stroke:#d45500;stroke-width:.79375;stroke-linecap:butt;stroke-linejoin:miter;stroke-opacity:1"/><text xml:space="preserve" style="font-size:14.6667px;line-height:1.25;font-family:sans-serif;white-space:pre;shape-inside:url(#q);fill:#d45500" transform="translate(13.901 -37.087)scale(.26458)"><tspan x="413.367" y="500.775">triA</tspan></text><path d="M130.945 90.462h13.796" style="fill:none;stroke:#00aad4;stroke-width:.52916667;stroke-linecap:butt;stroke-linejoin:miter;stroke-opacity:1"/><text xml:space="preserve" style="font-size:14.6667px;line-height:1.25;font-family:sans-serif;white-space:pre;shape-inside:url(#r);fill:#00aad4" transform="translate(13.626 -46.55)scale(.26458)"><tspan x="442.338" y="512.58">2*triA</tspan></text><path d="M130.945 98.577v16.005" style="fill:none;stroke:#00d400;stroke-width:.529167;stroke-linecap:butt;stroke-linejoin:miter;stroke-opacity:1"/><text xml:space="preserve" style="font-size:14.6667px;line-height:1.25;font-family:sans-serif;white-space:pre;shape-inside:url(#s);fill:#00d400" transform="translate(.214 -1.622)scale(.26458)"><tspan x="434.029" y="467.316">sqrt(1+2*2)=2.23</tspan></text><text xml:space="preserve" style="font-size:14.6667px;line-height:1.25;font-family:sans-serif;white-space:pre;shape-inside:url(#t);fill:#00d400" transform="translate(-1.618 -27.242)scale(.26458)"><tspan x="430.055" y="508.225">2.23*triA</tspan></text></svg>