<svg xmlns="http://www.w3.org/2000/svg" width="318.731" height="262.079" viewBox="0 0 84.331 69.342"><defs><marker id="b" markerHeight="1" markerWidth="1" orient="auto-start-reverse" preserveAspectRatio="xMidYMid" refX="0" refY="0" style="overflow:visible" viewBox="0 0 1 1"><path d="M3-3 0 0l3 3" style="fill:none;stroke:context-stroke;stroke-width:1;stroke-linecap:butt" transform="rotate(180 .125 0)"/></marker><marker id="a" markerHeight="1" markerWidth="1" orient="auto-start-reverse" preserveAspectRatio="xMidYMid" refX="0" refY="0" style="overflow:visible" viewBox="0 0 1 1"><path d="M3-3 0 0l3 3" style="fill:none;stroke:context-stroke;stroke-width:1;stroke-linecap:butt" transform="rotate(180 .125 0)"/></marker><path id="d" d="M356.604 374.494h55.719v51.876h-55.719z"/><path id="c" d="M183.735 350.385h56.934v41.896h-56.934z"/></defs><g transform="translate(-15.301 -21.253)"><path d="M15.434 21.386H99.5v69.077H15.434z" style="fill:#fff;stroke:#fff;stroke-width:.264583;stroke-linejoin:bevel"/><circle cx="69.579" cy="49.355" r="18.098" style="fill:none;stroke:#ffd5d5;stroke-width:.264583;stroke-linejoin:bevel"/><path d="m63.424 49.355 6.155-18.097" style="fill:none;stroke:#f60;stroke-width:.264583px;stroke-linecap:butt;stroke-linejoin:miter;stroke-opacity:1;marker-end:url(#a)"/><path d="M63.424 49.355v30.537M26.964 49.355v30.537" style="fill:none;stroke:#ccc;stroke-width:.264583px;stroke-linecap:butt;stroke-linejoin:miter;stroke-opacity:1"/><path d="M26.964 79.892h36.46" style="fill:none;stroke:#000;stroke-width:.264583px;stroke-linecap:butt;stroke-linejoin:miter;stroke-opacity:1;marker-start:url(#a);marker-end:url(#b)"/><text xml:space="preserve" style="font-size:14.6667px;line-height:1.25;font-family:sans-serif;white-space:pre;shape-inside:url(#c)" transform="translate(-5.917 -12.002)scale(.26458)"><tspan x="183.734" y="363.361">D1</tspan></text><rect width="25.956" height="25.223" x="57.237" y="36.744" rx="5.903" ry="5.903" style="fill:none;stroke:#ffd5d5;stroke-width:.264583;stroke-linejoin:bevel"/><circle cx="45.326" cy="49.355" r="18.098" style="fill:none;stroke:#000;stroke-width:.264583;stroke-linejoin:bevel"/><rect width="25.956" height="25.223" x="32.348" y="36.744" rx="5.903" ry="5.903" style="fill:none;stroke:#000;stroke-width:.264583;stroke-linejoin:bevel"/><path d="m45.326 49.355 12.383.043-.256-13.476-12.127 13.433" style="fill:none;stroke:#f0f;stroke-width:.264583px;stroke-linecap:butt;stroke-linejoin:miter;stroke-opacity:1"/><text xml:space="preserve" style="font-size:14.6667px;line-height:1.25;font-family:sans-serif;white-space:pre;shape-inside:url(#d)" transform="translate(-72.89 -75.125)scale(.26458)"><tspan x="356.604" y="387.471">R2</tspan></text><path d="m24.94 28.49 8.584 9.045" style="fill:none;stroke:#000;stroke-width:.264583px;stroke-linecap:butt;stroke-linejoin:miter;stroke-opacity:1;marker-end:url(#b)"/></g></svg>