<svg xmlns="http://www.w3.org/2000/svg" width="379.975" height="268.235" viewBox="0 0 100.535 70.971"><defs><marker id="a" markerHeight="1" markerWidth="1" orient="auto-start-reverse" preserveAspectRatio="xMidYMid" refX="0" refY="0" style="overflow:visible" viewBox="0 0 1 1"><path d="M-.211-4.106 6.21-.894a1 1 90 0 1 0 1.788L-.21 4.106A1.236 1.236 31.717 0 1-2 3v-6A1.236 1.236 148.283 0 1-.211-4.106" style="fill:context-stroke;fill-rule:evenodd;stroke:none" transform="scale(.7)"/></marker><marker id="b" markerHeight="1" markerWidth="1" orient="auto-start-reverse" preserveAspectRatio="xMidYMid" refX="0" refY="0" style="overflow:visible" viewBox="0 0 1 1"><path d="M-.211-4.106 6.21-.894a1 1 90 0 1 0 1.788L-.21 4.106A1.236 1.236 31.717 0 1-2 3v-6A1.236 1.236 148.283 0 1-.211-4.106" style="fill:context-stroke;fill-rule:evenodd;stroke:none" transform="scale(.7)"/></marker><marker id="d" markerHeight="1" markerWidth="1" orient="auto-start-reverse" preserveAspectRatio="xMidYMid" refX="0" refY="0" style="overflow:visible" viewBox="0 0 1 1"><path d="M-.211-4.106 6.21-.894a1 1 90 0 1 0 1.788L-.21 4.106A1.236 1.236 31.717 0 1-2 3v-6A1.236 1.236 148.283 0 1-.211-4.106" style="fill:context-stroke;fill-rule:evenodd;stroke:none" transform="scale(.7)"/></marker><marker id="j" markerHeight="1" markerWidth="1" orient="auto-start-reverse" preserveAspectRatio="xMidYMid" refX="0" refY="0" style="overflow:visible" viewBox="0 0 1 1"><path d="M-.211-4.106 6.21-.894a1 1 90 0 1 0 1.788L-.21 4.106A1.236 1.236 31.717 0 1-2 3v-6A1.236 1.236 148.283 0 1-.211-4.106" style="fill:context-stroke;fill-rule:evenodd;stroke:none" transform="scale(.7)"/></marker><marker id="c" markerHeight="1" markerWidth="1" orient="auto-start-reverse" preserveAspectRatio="xMidYMid" refX="0" refY="0" style="overflow:visible" viewBox="0 0 1 1"><path d="M-.211-4.106 6.21-.894a1 1 90 0 1 0 1.788L-.21 4.106A1.236 1.236 31.717 0 1-2 3v-6A1.236 1.236 148.283 0 1-.211-4.106" style="fill:context-stroke;fill-rule:evenodd;stroke:none" transform="scale(.7)"/></marker><marker id="k" markerHeight="1" markerWidth="1" orient="auto-start-reverse" preserveAspectRatio="xMidYMid" refX="0" refY="0" style="overflow:visible" viewBox="0 0 1 1"><path d="M-.211-4.106 6.21-.894a1 1 90 0 1 0 1.788L-.21 4.106A1.236 1.236 31.717 0 1-2 3v-6A1.236 1.236 148.283 0 1-.211-4.106" style="fill:context-stroke;fill-rule:evenodd;stroke:none" transform="scale(.7)"/></marker><marker id="l" markerHeight="1" markerWidth="1" orient="auto-start-reverse" preserveAspectRatio="xMidYMid" refX="0" refY="0" style="overflow:visible" viewBox="0 0 1 1"><path d="M-.211-4.106 6.21-.894a1 1 90 0 1 0 1.788L-.21 4.106A1.236 1.236 31.717 0 1-2 3v-6A1.236 1.236 148.283 0 1-.211-4.106" style="fill:context-stroke;fill-rule:evenodd;stroke:none" transform="scale(.7)"/></marker><marker id="m" markerHeight="1" markerWidth="1" orient="auto-start-reverse" preserveAspectRatio="xMidYMid" refX="0" refY="0" style="overflow:visible" viewBox="0 0 1 1"><path d="M-.211-4.106 6.21-.894a1 1 90 0 1 0 1.788L-.21 4.106A1.236 1.236 31.717 0 1-2 3v-6A1.236 1.236 148.283 0 1-.211-4.106" style="fill:context-stroke;fill-rule:evenodd;stroke:none" transform="scale(.7)"/></marker><marker id="q" markerHeight="1" markerWidth="1" orient="auto-start-reverse" preserveAspectRatio="xMidYMid" refX="0" refY="0" style="overflow:visible" viewBox="0 0 1 1"><path d="M-.211-4.106 6.21-.894a1 1 90 0 1 0 1.788L-.21 4.106A1.236 1.236 31.717 0 1-2 3v-6A1.236 1.236 148.283 0 1-.211-4.106" style="fill:context-stroke;fill-rule:evenodd;stroke:none" transform="scale(.7)"/></marker><path id="r" d="M116.367 88.749h54.364v31.841h-54.364z"/><path id="p" d="M348.144 127.418h49.547v16.895h-49.547z"/><path id="o" d="M311.292 93.167h56.211v23.781h-56.211z"/><path id="n" d="M318.37 136.608h38.258v16.57H318.37z"/><path id="i" d="M364.331 365.45h44.487v23.31h-44.487z"/><path id="h" d="M277.52 359.005h57.998v26.049H277.52z"/><path id="g" d="M162.354 360.869h48.711V387.8h-48.711z"/><path id="f" d="M192.916 231.003h51.981v30.613h-51.981z"/><path id="e" d="M136.026 219.709h49.61v34.516h-49.61z"/></defs><path d="M28.758 26.145h100.271v70.706H28.758z" style="fill:#fff;stroke:#fff;stroke-width:.264583;stroke-linejoin:bevel" transform="translate(-28.626 -26.012)"/><path d="M111.144 67.411h-7.578m7.578-7.937h-7.578" style="fill:none;stroke:#ececec;stroke-width:.264583px;stroke-linecap:butt;stroke-linejoin:miter;stroke-opacity:1" transform="translate(-28.626 -26.012)"/><path d="m34.14 85.246 56.386-17.703h12.907L72.771 85.246H34.14m36.866-47.931 1.765-.132v4.72l30.662 17.703H90.526l-19.52-6.128V37.315" style="fill:#ffd5d5;stroke:#ffd5d5;stroke-width:.264583px;stroke-linecap:butt;stroke-linejoin:bevel;stroke-opacity:1" transform="translate(-28.626 -26.012)"/><path d="M43.677 41.903h20.639v-4.588h1.765V51.93l-23.02-7.227.616-2.8" style="fill:#ffd5d5;stroke:#ffd5d5;stroke-width:.264583px;stroke-linecap:butt;stroke-linejoin:miter;stroke-opacity:1" transform="translate(-28.626 -26.012)"/><path d="M43.677 36.72v5.183m-9.491-5.169v5.184m31.895 10.246v5.184m4.967-3.87v3.866" style="fill:none;stroke:#ececec;stroke-width:.264583px;stroke-linecap:butt;stroke-linejoin:miter;stroke-opacity:1" transform="translate(-28.626 -26.012)"/><path d="M34.14 85.246h38.63l30.662-17.703H90.526Z" style="fill:none;stroke:#4d4d4d;stroke-width:.264583;stroke-linecap:butt;stroke-linejoin:bevel;stroke-opacity:1" transform="translate(-28.626 -26.012)"/><path d="M34.14 41.903h38.63l30.662 17.703H90.526Z" style="fill:none;stroke:#4d4d4d;stroke-width:.264583px;stroke-linecap:butt;stroke-linejoin:bevel;stroke-opacity:1" transform="translate(-28.626 -26.012)"/><path d="M34.872 88.421H71.67" style="fill:none;stroke:#000;stroke-width:.264583;stroke-linecap:butt;stroke-linejoin:miter;stroke-opacity:1;marker-start:url(#a);marker-end:url(#a)" transform="translate(-28.626 -26.012)"/><path d="M73.906 88.421h28.91" style="fill:none;stroke:#000;stroke-width:.264583;stroke-linecap:butt;stroke-linejoin:miter;stroke-opacity:1;marker-start:url(#b);marker-end:url(#b)" transform="translate(-28.626 -26.012)"/><path d="M111.144 66.383v-5.696" style="fill:none;stroke:#000;stroke-width:.264584;stroke-linecap:butt;stroke-linejoin:miter;stroke-opacity:1;marker-start:url(#c);marker-end:url(#c)" transform="translate(-28.626 -26.012)"/><path d="m73.83 41.903 45.172-.044M73.83 85.246l45.172-.044" style="fill:none;stroke:#ececec;stroke-width:.264583px;stroke-linecap:butt;stroke-linejoin:miter;stroke-opacity:1" transform="translate(-28.626 -26.012)"/><path d="M119.786 84.11V43.209" style="fill:none;stroke:#000;stroke-width:.264584;stroke-linecap:butt;stroke-linejoin:miter;stroke-opacity:1;marker-start:url(#d);marker-end:url(#d)" transform="translate(-28.626 -26.012)"/><text xml:space="preserve" style="font-size:14.6667px;line-height:1.25;font-family:sans-serif;white-space:pre;shape-inside:url(#e);display:inline" transform="translate(46.723 -22.675)scale(.26458)"><tspan x="136.025" y="232.686">D1</tspan></text><text xml:space="preserve" style="font-size:14.6667px;line-height:1.25;font-family:sans-serif;white-space:pre;shape-inside:url(#f);display:inline" transform="translate(40.57 -25.477)scale(.26458)"><tspan x="192.916" y="243.981">D2</tspan></text><path d="M103.826 68.073v19.691" style="fill:none;stroke:#ececec;stroke-width:.264583px;stroke-linecap:butt;stroke-linejoin:miter;stroke-opacity:1" transform="translate(-28.626 -26.012)"/><text xml:space="preserve" style="font-size:14.6667px;line-height:1.25;font-family:sans-serif;white-space:pre;shape-inside:url(#g);display:inline" transform="translate(-18.462 -32.726)scale(.26458)"><tspan x="162.354" y="373.846">L1</tspan></text><text xml:space="preserve" style="font-size:14.6667px;line-height:1.25;font-family:sans-serif;white-space:pre;shape-inside:url(#h);display:inline" transform="translate(-12.589 -32.414)scale(.26458)"><tspan x="277.52" y="371.982">L2</tspan></text><text xml:space="preserve" style="font-size:14.6667px;line-height:1.25;font-family:sans-serif;white-space:pre;shape-inside:url(#i);display:inline" transform="translate(-29.758 -60.97)scale(.26458)"><tspan x="364.332" y="378.426">L3</tspan></text><path d="M34.186 41.903v43.475" style="fill:#999;stroke:#999;stroke-width:.264583px;stroke-linecap:butt;stroke-linejoin:miter;stroke-opacity:1" transform="translate(-28.626 -26.012)"/><path d="M90.526 59.606v7.937m12.907-7.937v7.937" style="fill:none;stroke:#999;stroke-width:.264583px;stroke-linecap:butt;stroke-linejoin:miter;stroke-opacity:1" transform="translate(-28.626 -26.012)"/><path d="M91.995 65.896h10.292" style="fill:none;stroke:#000;stroke-width:.264583;stroke-linecap:butt;stroke-linejoin:miter;stroke-opacity:1;marker-start:url(#j);marker-end:url(#j)" transform="translate(-28.626 -26.012)"/><path d="M64.316 37.315h8.456v4.588h-8.456z" style="fill:none;stroke:#4d4d4d;stroke-width:.264583;stroke-linejoin:bevel" transform="translate(-28.626 -26.012)"/><path d="M66.081 37.315h4.925v16.163l-4.925-1.547V37.315" style="fill:none;stroke:#000;stroke-width:.264583px;stroke-linecap:butt;stroke-linejoin:miter;stroke-opacity:1" transform="translate(-28.626 -26.012)"/><path d="M67.201 56.563h2.502" style="fill:none;stroke:#000;stroke-width:.264583;stroke-linecap:butt;stroke-linejoin:miter;stroke-opacity:1;marker-start:url(#k);marker-end:url(#k)" transform="translate(-28.626 -26.012)"/><path d="M64.316 32v5.183M72.771 32v5.183" style="fill:none;stroke:#ececec;stroke-width:.264583px;stroke-linecap:butt;stroke-linejoin:miter;stroke-opacity:1" transform="translate(-28.626 -26.012)"/><path d="M65.62 31.999h5.773" style="fill:none;stroke:#000;stroke-width:.264583;stroke-linecap:butt;stroke-linejoin:miter;stroke-opacity:1;marker-start:url(#l);marker-end:url(#l)" transform="translate(-28.626 -26.012)"/><path d="M78.087 37.315h-5.183" style="fill:none;stroke:#ececec;stroke-width:.264583px;stroke-linecap:butt;stroke-linejoin:miter;stroke-opacity:1" transform="translate(-28.626 -26.012)"/><path d="M78.087 38.5v2.102" style="fill:none;stroke:#000;stroke-width:.264583;stroke-linecap:butt;stroke-linejoin:miter;stroke-opacity:1;marker-start:url(#m);marker-end:url(#m)" transform="translate(-28.626 -26.012)"/><text xml:space="preserve" style="font-size:14.6667px;line-height:1.25;font-family:sans-serif;white-space:pre;shape-inside:url(#n);display:inline" transform="translate(-33.437 -24.562)scale(.26458)"><tspan x="318.369" y="149.584">H1</tspan></text><text xml:space="preserve" style="font-size:14.6667px;line-height:1.25;font-family:sans-serif;white-space:pre;shape-inside:url(#o);display:inline" transform="translate(-45.379 6.794)scale(.26458)"><tspan x="311.293" y="106.143">D3</tspan></text><text xml:space="preserve" style="font-size:14.6667px;line-height:1.25;font-family:sans-serif;white-space:pre;shape-inside:url(#p);display:inline" transform="translate(-54.47 -32.263)scale(.26458)"><tspan x="348.145" y="140.395">D4</tspan></text><path d="M34.14 85.246q-.327-.573 0 0m0 0 9.537-43.343" style="fill:none;stroke:#000;stroke-width:.264583px;stroke-linecap:butt;stroke-linejoin:miter;stroke-opacity:1" transform="translate(-28.626 -26.012)"/><path d="M35.371 36.734H42.3" style="fill:none;stroke:#000;stroke-width:.264583;stroke-linecap:butt;stroke-linejoin:miter;stroke-opacity:1;marker-start:url(#q);marker-end:url(#q)" transform="translate(-28.626 -26.012)"/><text xml:space="preserve" style="font-size:14.6667px;line-height:1.25;font-family:sans-serif;white-space:pre;shape-inside:url(#r);display:inline" transform="translate(-22.893 -17.758)scale(.26458)"><tspan x="116.367" y="101.727">L4</tspan></text></svg>