<svg xmlns="http://www.w3.org/2000/svg" width="414.489" height="315.528" viewBox="0 0 109.667 83.483"><defs><path id="k" d="M449.218 65.476h33.025v32.448h-33.025z"/><path id="g" d="M278.486 415.704h62.063v42.261h-62.063z"/><path id="f" d="M363.027 408.126h57.752v55.903h-57.752z"/><path id="e" d="M169.438 415.892h144.639v81.264H169.438z"/><path id="h" d="M278.486 415.704h62.063v42.261h-62.063z"/><path id="j" d="M119.555 369.442h51.656v35.639h-51.656z"/><marker id="b" markerHeight="1" markerWidth="1" orient="auto-start-reverse" preserveAspectRatio="xMidYMid" refX="0" refY="0" style="overflow:visible" viewBox="0 0 1 1"><path d="M3-3 0 0l3 3" style="fill:none;stroke:context-stroke;stroke-width:1;stroke-linecap:butt" transform="rotate(180 .125 0)"/></marker><marker id="a" markerHeight="1" markerWidth="1" orient="auto-start-reverse" preserveAspectRatio="xMidYMid" refX="0" refY="0" style="overflow:visible" viewBox="0 0 1 1"><path d="M3-3 0 0l3 3" style="fill:none;stroke:context-stroke;stroke-width:1;stroke-linecap:butt" transform="rotate(180 .125 0)"/></marker><marker id="c" markerHeight="1" markerWidth="1" orient="auto-start-reverse" preserveAspectRatio="xMidYMid" refX="0" refY="0" style="overflow:visible" viewBox="0 0 1 1"><path d="M3-3 0 0l3 3" style="fill:none;stroke:context-stroke;stroke-width:1;stroke-linecap:butt" transform="rotate(180 .125 0)"/></marker><marker id="d" markerHeight="1" markerWidth="1" orient="auto-start-reverse" preserveAspectRatio="xMidYMid" refX="0" refY="0" style="overflow:visible" viewBox="0 0 1 1"><path d="M3-3 0 0l3 3" style="fill:none;stroke:context-stroke;stroke-width:1;stroke-linecap:butt" transform="rotate(180 .125 0)"/></marker><marker id="i" markerHeight="1" markerWidth="1" orient="auto-start-reverse" preserveAspectRatio="xMidYMid" refX="0" refY="0" style="overflow:visible" viewBox="0 0 1 1"><path d="M3-3 0 0l3 3" style="fill:none;stroke:context-stroke;stroke-width:1;stroke-linecap:butt" transform="rotate(180 .125 0)"/></marker></defs><path d="M17.293 16.547h109.402v83.219H17.293z" style="fill:#fff;stroke:#fff;stroke-width:.264583;stroke-linejoin:bevel" transform="translate(-17.16 -16.415)"/><path d="M44.963 41.426h62.564v41.015H44.963z" style="fill:none;stroke:#00f;stroke-width:.264583;stroke-linejoin:bevel" transform="translate(-17.16 -16.415)"/><path d="M52.049 48.512h48.393v26.843H52.049z" style="fill:none;stroke:#00f;stroke-width:.264583;stroke-linejoin:bevel" transform="translate(-17.16 -16.415)"/><path d="M44.963 25.022h62.564" style="fill:none;stroke:#000;stroke-width:.264583px;stroke-linecap:butt;stroke-linejoin:miter;stroke-opacity:1;marker-start:url(#a);marker-end:url(#a)" transform="translate(-17.16 -16.415)"/><path d="M28.559 41.426V82.44" style="fill:none;stroke:#000;stroke-width:.264583px;stroke-linecap:butt;stroke-linejoin:miter;stroke-opacity:1;marker-start:url(#b);marker-end:url(#b)" transform="translate(-17.16 -16.415)"/><path d="M94.151 75.371v6.932" style="fill:none;stroke:#000;stroke-width:.264582px;stroke-linecap:butt;stroke-linejoin:miter;stroke-opacity:1;marker-start:url(#c);marker-end:url(#c)" transform="translate(-17.16 -16.415)"/><path d="M100.815 62.82h6.603" style="fill:none;stroke:#000;stroke-width:.264582px;stroke-linecap:butt;stroke-linejoin:miter;stroke-opacity:1;marker-start:url(#d);marker-end:url(#d)" transform="translate(-17.16 -16.415)"/><text xml:space="preserve" style="font-size:14.6667px;line-height:1.25;font-family:sans-serif;white-space:pre;shape-inside:url(#e);display:inline" transform="translate(-39.664 -66.53)scale(.26458)"><tspan x="169.438" y="428.869">T1</tspan></text><text xml:space="preserve" style="font-size:14.6667px;line-height:1.25;font-family:sans-serif;white-space:pre;shape-inside:url(#f);display:inline" transform="translate(-39.146 -104.416)scale(.26458)"><tspan x="363.027" y="421.104">W1</tspan></text><text xml:space="preserve" style="font-size:14.6667px;line-height:1.25;font-family:sans-serif;white-space:pre;shape-inside:url(#g);display:inline" transform="translate(3.637 -49.536)scale(.26458)"><tspan x="278.486" y="428.68">E1</tspan></text><text xml:space="preserve" style="font-size:14.6667px;line-height:1.25;font-family:sans-serif;white-space:pre;shape-inside:url(#h);display:inline" transform="translate(10.801 -68.36)scale(.26458)"><tspan x="278.486" y="428.68">E1</tspan></text><path d="M31.652 28.498h44.461v66.871H31.652z" style="fill:none;stroke:green;stroke-width:.264583;stroke-linejoin:bevel" transform="translate(-17.16 -16.415)"/><path d="M31.773 82.44h13.19" style="fill:none;stroke:#000;stroke-width:.264583px;stroke-linecap:butt;stroke-linejoin:miter;stroke-opacity:1;marker-start:url(#i);marker-end:url(#i)" transform="translate(-17.16 -16.415)"/><text xml:space="preserve" style="font-size:14.6667px;line-height:1.25;font-family:sans-serif;white-space:pre;shape-inside:url(#j);display:inline" transform="translate(-13.299 -36.793)scale(.26458)"><tspan x="119.555" y="382.418">L1</tspan></text><path d="M76.377 28.498h44.461v66.871H76.377z" style="fill:none;stroke:green;stroke-width:.264583;stroke-linejoin:bevel" transform="translate(-17.16 -16.415)"/><path d="M44.963 41.426H28.559M44.963 25.022v16.404" style="fill:none;stroke:#b3b3b3;stroke-width:.264583px;stroke-linecap:butt;stroke-linejoin:miter;stroke-opacity:1" transform="translate(-17.16 -16.415)"/><path d="M107.527 28.883v12.543" style="fill:none;stroke:#000;stroke-width:.264583px;stroke-linecap:butt;stroke-linejoin:miter;stroke-opacity:1;marker-start:url(#b);marker-end:url(#b)" transform="translate(-17.16 -16.415)"/><text xml:space="preserve" style="font-size:14.6667px;line-height:1.25;font-family:sans-serif;white-space:pre;shape-inside:url(#k);display:inline" transform="translate(-27.824 -.512)scale(.26458)"><tspan x="449.217" y="78.451">L2</tspan></text></svg>