<svg xmlns="http://www.w3.org/2000/svg" width="600" height="3000" viewBox="0 0 158.75 793.75"><defs><path id="k" d="M271.51 404.17h89.243v52.991H271.51z"/><path id="i" d="M157.023 409.573h66.286v49.544h-66.286z"/><path id="g" d="M285.539 377.868h74.668v42.354h-74.668z"/><path id="e" d="M102.787 402.173h78.333v49.241h-78.333z"/><path id="d" d="M111.175 334.938h108.422v65.566H111.175z"/><path id="a" d="M10.947 16.853h196.484v51.791H10.947z"/><marker id="b" markerHeight="1" markerWidth="1" orient="auto-start-reverse" preserveAspectRatio="xMidYMid" refX="0" refY="0" style="overflow:visible" viewBox="0 0 1 1"><path d="M-.211-4.106 6.21-.894a1 1 90 0 1 0 1.788L-.21 4.106A1.236 1.236 31.717 0 1-2 3v-6A1.236 1.236 148.283 0 1-.211-4.106" style="fill:context-stroke;fill-rule:evenodd;stroke:none" transform="scale(.7)"/></marker><marker id="c" markerHeight="1" markerWidth="1" orient="auto-start-reverse" preserveAspectRatio="xMidYMid" refX="0" refY="0" style="overflow:visible" viewBox="0 0 1 1"><path d="M-.211-4.106 6.21-.894a1 1 90 0 1 0 1.788L-.21 4.106A1.236 1.236 31.717 0 1-2 3v-6A1.236 1.236 148.283 0 1-.211-4.106" style="fill:context-stroke;fill-rule:evenodd;stroke:none" transform="scale(.7)"/></marker><marker id="f" markerHeight="1" markerWidth="1" orient="auto-start-reverse" preserveAspectRatio="xMidYMid" refX="0" refY="0" style="overflow:visible" viewBox="0 0 1 1"><path d="M-.211-4.106 6.21-.894a1 1 90 0 1 0 1.788L-.21 4.106A1.236 1.236 31.717 0 1-2 3v-6A1.236 1.236 148.283 0 1-.211-4.106" style="fill:context-stroke;fill-rule:evenodd;stroke:none" transform="scale(.7)"/></marker><marker id="h" markerHeight="1" markerWidth="1" orient="auto-start-reverse" preserveAspectRatio="xMidYMid" refX="0" refY="0" style="overflow:visible" viewBox="0 0 1 1"><path d="M-.211-4.106 6.21-.894a1 1 90 0 1 0 1.788L-.21 4.106A1.236 1.236 31.717 0 1-2 3v-6A1.236 1.236 148.283 0 1-.211-4.106" style="fill:context-stroke;fill-rule:evenodd;stroke:none" transform="scale(.7)"/></marker><marker id="j" markerHeight="1" markerWidth="1" orient="auto-start-reverse" preserveAspectRatio="xMidYMid" refX="0" refY="0" style="overflow:visible" viewBox="0 0 1 1"><path d="M-.211-4.106 6.21-.894a1 1 90 0 1 0 1.788L-.21 4.106A1.236 1.236 31.717 0 1-2 3v-6A1.236 1.236 148.283 0 1-.211-4.106" style="fill:context-stroke;fill-rule:evenodd;stroke:none" transform="scale(.7)"/></marker></defs><path d="M72.307 31.076h52.917v52.917H72.307z" style="fill:#fff;stroke:#fff;stroke-width:.264583;stroke-linejoin:bevel"/><text xml:space="preserve" style="font-size:14.6667px;line-height:1.25;font-family:sans-serif;white-space:pre;shape-inside:url(#a)" transform="scale(.26458)"><tspan x="10.947" y="29.83">myPartA.svg</tspan></text><path d="M12.469 25.402h52.917v52.917H12.469z" style="fill:#fff;stroke:#fff;stroke-width:.264583;stroke-linejoin:bevel"/><circle cx="37.559" cy="50.913" r="14.095" style="fill:none;stroke:gray;stroke-width:.264583;stroke-linejoin:bevel"/><circle cx="37.559" cy="50.913" r="10.23" style="fill:none;stroke:gray;stroke-width:.264583;stroke-linejoin:bevel"/><path d="M23.464 50.913v19.01m28.454-19.01v19.01" style="fill:none;stroke:#000;stroke-width:.264583px;stroke-linecap:butt;stroke-linejoin:miter;stroke-opacity:1"/><path d="m46.369 38.423 3.687-4.31" style="fill:none;stroke:#000;stroke-width:.264583px;stroke-linecap:butt;stroke-linejoin:miter;stroke-opacity:1;marker-start:url(#b)"/><path d="m42.672 43.247-3.028 3.566" style="fill:none;stroke:#000;stroke-width:.264583px;stroke-linecap:butt;stroke-linejoin:miter;stroke-opacity:1;marker-start:url(#c)"/><path d="M24.826 69.924h25.982" style="fill:none;stroke:#000;stroke-width:.264583px;stroke-linecap:butt;stroke-linejoin:miter;stroke-opacity:1;marker-start:url(#b);marker-end:url(#b)"/><text xml:space="preserve" style="font-size:14.6667px;line-height:1.25;font-family:sans-serif;white-space:pre;shape-inside:url(#d)" transform="translate(5.373 -18.067)scale(.26458)"><tspan x="111.176" y="347.914">D1</tspan></text><text xml:space="preserve" style="font-size:14.6667px;line-height:1.25;font-family:sans-serif;white-space:pre;shape-inside:url(#e)" transform="translate(22.27 -76.453)scale(.26458)"><tspan x="102.787" y="415.148">E1</tspan></text><path d="M83.984 40.818h32.085v28.189H83.984z" style="fill:none;stroke:#666;stroke-width:.264583;stroke-linejoin:bevel"/><path d="M83.984 44.682h32.085v20.461H83.984z" style="fill:none;stroke:#666;stroke-width:.264583;stroke-linejoin:bevel"/><path d="M91.025 70.392v5.344" style="fill:none;stroke:#000;stroke-width:.264583px;stroke-linecap:butt;stroke-linejoin:miter;stroke-opacity:1;marker-start:url(#b)"/><path d="M91.025 63.776v-5.343" style="fill:none;stroke:#000;stroke-width:.264583px;stroke-linecap:butt;stroke-linejoin:miter;stroke-opacity:1;marker-start:url(#f)"/><text xml:space="preserve" style="font-size:14.6667px;line-height:1.25;font-family:sans-serif;white-space:pre;shape-inside:url(#g)" transform="translate(13.005 -24.144)scale(.26458)"><tspan x="285.539" y="390.844">E1</tspan></text><path d="M81.206 41.921v25.983" style="fill:none;stroke:#000;stroke-width:.264583px;stroke-linecap:butt;stroke-linejoin:miter;stroke-opacity:1;marker-start:url(#h);marker-end:url(#h)"/><text xml:space="preserve" style="font-size:14.6667px;line-height:1.25;font-family:sans-serif;white-space:pre;shape-inside:url(#i)" transform="translate(33.719 -55.046)scale(.26458)"><tspan x="157.023" y="422.549">D1</tspan></text><path d="M84.95 38.7h30.153" style="fill:none;stroke:#000;stroke-width:.264583px;stroke-linecap:butt;stroke-linejoin:miter;stroke-opacity:1;marker-start:url(#j);marker-end:url(#j)"/><text xml:space="preserve" style="font-size:14.6667px;line-height:1.25;font-family:sans-serif;white-space:pre;shape-inside:url(#k)" transform="translate(24.927 -72.831)scale(.26458)"><tspan x="271.51" y="417.147">L1</tspan></text></svg>