<svg xmlns="http://www.w3.org/2000/svg" width="419.166" height="435.749" viewBox="0 0 110.904 115.292"><defs><path id="c" d="M113.007 378.823h78.251v51.869h-78.251z"/><path id="d" d="M40.37 366.157h32.861v38.551H40.37z"/><path id="e" d="M32.34 172.913h131.564v47.759H32.34z"/><path id="g" d="M173.772 394.811h53.572v38.325h-53.572z"/><path id="i" d="M229.263 409.431h65.175v31.772h-65.175z"/><path id="l" d="M173.772 394.811h53.572v38.325h-53.572z"/><path id="m" d="M229.263 409.431h65.175v31.772h-65.175z"/><path id="o" d="M173.772 394.811h53.572v38.325h-53.572z"/><path id="q" d="M173.772 394.811h53.572v38.325h-53.572z"/><path id="r" d="M182.835 433.723h165.096v73.265H182.835z"/><path id="s" d="M182.835 433.723h165.096v73.265H182.835z"/><path id="u" d="M347.783 105.413h149.878v56.501H347.783z"/><path id="w" d="M347.783 105.413h149.878v56.501H347.783z"/><marker id="a" markerHeight="1" markerWidth="1" orient="auto-start-reverse" preserveAspectRatio="xMidYMid" refX="0" refY="0" style="overflow:visible" viewBox="0 0 1 1"><path d="M-.211-4.106 6.21-.894a1 1 90 0 1 0 1.788L-.21 4.106A1.236 1.236 31.717 0 1-2 3v-6A1.236 1.236 148.283 0 1-.211-4.106" style="fill:context-stroke;fill-rule:evenodd;stroke:none" transform="scale(.7)"/></marker><marker id="b" markerHeight="1" markerWidth="1" orient="auto-start-reverse" preserveAspectRatio="xMidYMid" refX="0" refY="0" style="overflow:visible" viewBox="0 0 1 1"><path d="M-.211-4.106 6.21-.894a1 1 90 0 1 0 1.788L-.21 4.106A1.236 1.236 31.717 0 1-2 3v-6A1.236 1.236 148.283 0 1-.211-4.106" style="fill:context-stroke;fill-rule:evenodd;stroke:none" transform="scale(.7)"/></marker><marker id="f" markerHeight="1" markerWidth="1" orient="auto-start-reverse" preserveAspectRatio="xMidYMid" refX="0" refY="0" style="overflow:visible" viewBox="0 0 1 1"><path d="M-.211-4.106 6.21-.894a1 1 90 0 1 0 1.788L-.21 4.106A1.236 1.236 31.717 0 1-2 3v-6A1.236 1.236 148.283 0 1-.211-4.106" style="fill:context-stroke;fill-rule:evenodd;stroke:none" transform="scale(.7)"/></marker><marker id="h" markerHeight="1" markerWidth="1" orient="auto-start-reverse" preserveAspectRatio="xMidYMid" refX="0" refY="0" style="overflow:visible" viewBox="0 0 1 1"><path d="M-.211-4.106 6.21-.894a1 1 90 0 1 0 1.788L-.21 4.106A1.236 1.236 31.717 0 1-2 3v-6A1.236 1.236 148.283 0 1-.211-4.106" style="fill:context-stroke;fill-rule:evenodd;stroke:none" transform="scale(.7)"/></marker><marker id="j" markerHeight="1" markerWidth="1" orient="auto-start-reverse" preserveAspectRatio="xMidYMid" refX="0" refY="0" style="overflow:visible" viewBox="0 0 1 1"><path d="M-.211-4.106 6.21-.894a1 1 90 0 1 0 1.788L-.21 4.106A1.236 1.236 31.717 0 1-2 3v-6A1.236 1.236 148.283 0 1-.211-4.106" style="fill:context-stroke;fill-rule:evenodd;stroke:none" transform="scale(.7)"/></marker><marker id="k" markerHeight="1" markerWidth="1" orient="auto-start-reverse" preserveAspectRatio="xMidYMid" refX="0" refY="0" style="overflow:visible" viewBox="0 0 1 1"><path d="M-.211-4.106 6.21-.894a1 1 90 0 1 0 1.788L-.21 4.106A1.236 1.236 31.717 0 1-2 3v-6A1.236 1.236 148.283 0 1-.211-4.106" style="fill:context-stroke;fill-rule:evenodd;stroke:none" transform="scale(.7)"/></marker><marker id="n" markerHeight="1" markerWidth="1" orient="auto-start-reverse" preserveAspectRatio="xMidYMid" refX="0" refY="0" style="overflow:visible" viewBox="0 0 1 1"><path d="M-.211-4.106 6.21-.894a1 1 90 0 1 0 1.788L-.21 4.106A1.236 1.236 31.717 0 1-2 3v-6A1.236 1.236 148.283 0 1-.211-4.106" style="fill:context-stroke;fill-rule:evenodd;stroke:none" transform="scale(.7)"/></marker><marker id="p" markerHeight="1" markerWidth="1" orient="auto-start-reverse" preserveAspectRatio="xMidYMid" refX="0" refY="0" style="overflow:visible" viewBox="0 0 1 1"><path d="M-.211-4.106 6.21-.894a1 1 90 0 1 0 1.788L-.21 4.106A1.236 1.236 31.717 0 1-2 3v-6A1.236 1.236 148.283 0 1-.211-4.106" style="fill:context-stroke;fill-rule:evenodd;stroke:none" transform="scale(.7)"/></marker><marker id="t" markerHeight="1" markerWidth="1" orient="auto-start-reverse" preserveAspectRatio="xMidYMid" refX="0" refY="0" style="overflow:visible" viewBox="0 0 1 1"><path d="M-.211-4.106 6.21-.894a1 1 90 0 1 0 1.788L-.21 4.106A1.236 1.236 31.717 0 1-2 3v-6A1.236 1.236 148.283 0 1-.211-4.106" style="fill:context-stroke;fill-rule:evenodd;stroke:none" transform="scale(.7)"/></marker><marker id="v" markerHeight="1" markerWidth="1" orient="auto-start-reverse" preserveAspectRatio="xMidYMid" refX="0" refY="0" style="overflow:visible" viewBox="0 0 1 1"><path d="M-.211-4.106 6.21-.894a1 1 90 0 1 0 1.788L-.21 4.106A1.236 1.236 31.717 0 1-2 3v-6A1.236 1.236 148.283 0 1-.211-4.106" style="fill:context-stroke;fill-rule:evenodd;stroke:none" transform="scale(.7)"/></marker><marker id="x" markerHeight="1" markerWidth="1" orient="auto-start-reverse" preserveAspectRatio="xMidYMid" refX="0" refY="0" style="overflow:visible" viewBox="0 0 1 1"><path d="M-.211-4.106 6.21-.894a1 1 90 0 1 0 1.788L-.21 4.106A1.236 1.236 31.717 0 1-2 3v-6A1.236 1.236 148.283 0 1-.211-4.106" style="fill:context-stroke;fill-rule:evenodd;stroke:none" transform="scale(.7)"/></marker></defs><path d="M28.623 155.793h110.64V270.82H28.623z" style="fill:#fff;stroke:#fff;stroke-width:.264582;stroke-linejoin:bevel" transform="translate(-28.491 -155.66)"/><path d="m53.11 212.719 4.674 17.6h-9.346z" style="fill:none;stroke:#000;stroke-width:.264583px;stroke-linecap:butt;stroke-linejoin:miter;stroke-opacity:1" transform="translate(-28.491 -155.66)"/><path d="M48.438 230.319v10.843m9.346-10.843v10.843m-20.322-10.711h10.843m-10.843-17.732H53.11" style="fill:none;stroke:#ccc;stroke-width:.264583px;stroke-linecap:butt;stroke-linejoin:miter;stroke-opacity:1" transform="translate(-28.491 -155.66)"/><path d="M49.823 241.162h6.919" style="fill:none;stroke:#000;stroke-width:.264583px;stroke-linecap:butt;stroke-linejoin:miter;stroke-opacity:1;marker-start:url(#a);marker-end:url(#a)" transform="translate(-28.491 -155.66)"/><path d="M41.695 229.006V213.88" style="fill:none;stroke:#000;stroke-width:.264583px;stroke-linecap:butt;stroke-linejoin:miter;stroke-opacity:1;marker-start:url(#b);marker-end:url(#b)" transform="translate(-28.491 -155.66)"/><text xml:space="preserve" style="font-size:14.6667px;line-height:1.25;font-family:sans-serif;white-space:pre;shape-inside:url(#c);display:inline" transform="translate(-9.104 -13.314)scale(.26458)"><tspan x="113.008" y="391.799">F2A</tspan></text><text xml:space="preserve" style="font-size:14.6667px;line-height:1.25;font-family:sans-serif;white-space:pre;shape-inside:url(#d);display:inline" transform="translate(-4.968 -33.825)scale(.26458)"><tspan x="40.369" y="379.135">F2B</tspan></text><text xml:space="preserve" x="29.126" style="font-size:14.6667px;line-height:1.25;font-family:sans-serif;text-align:center;white-space:pre;shape-inside:url(#e);display:inline" transform="translate(-12.308 -11.377)scale(.26458)"><tspan x="67.664" y="185.891">rounded
</tspan><tspan x="84.143" y="204.224">F2R</tspan></text><path d="m43.6 198.56 8.262 12.37" style="fill:none;stroke:#000;stroke-width:.264583px;stroke-linecap:butt;stroke-linejoin:miter;stroke-opacity:1;marker-end:url(#a)" transform="translate(-28.491 -155.66)"/><path d="M59.247 241.162h13.41" style="fill:none;stroke:#000;stroke-width:.264582px;stroke-linecap:butt;stroke-linejoin:miter;stroke-opacity:1;marker-start:url(#f);marker-end:url(#f)" transform="translate(-28.491 -155.66)"/><path d="M74.042 230.319v10.843" style="fill:none;stroke:#ccc;stroke-width:.264583px;stroke-linecap:butt;stroke-linejoin:miter;stroke-opacity:1" transform="translate(-28.491 -155.66)"/><path d="m80.984 204.374 6.941 25.945H74.042z" style="fill:none;stroke:#000;stroke-width:.264583px;stroke-linecap:butt;stroke-linejoin:miter;stroke-opacity:1" transform="translate(-28.491 -155.66)"/><text xml:space="preserve" style="font-size:14.6667px;line-height:1.25;font-family:sans-serif;white-space:pre;shape-inside:url(#g);display:inline" transform="translate(-12.774 -19.133)scale(.26458)"><tspan x="173.771" y="407.787">F2C</tspan></text><path d="M87.925 230.319v10.843" style="fill:none;stroke:#ccc;stroke-width:.264583px;stroke-linecap:butt;stroke-linejoin:miter;stroke-opacity:1" transform="translate(-28.491 -155.66)"/><path d="M75.267 241.162h11.698" style="fill:none;stroke:#000;stroke-width:.264582px;stroke-linecap:butt;stroke-linejoin:miter;stroke-opacity:1;marker-start:url(#h);marker-end:url(#h)" transform="translate(-28.491 -155.66)"/><text xml:space="preserve" style="font-size:14.6667px;line-height:1.25;font-family:sans-serif;white-space:pre;shape-inside:url(#i);display:inline" transform="translate(-16.374 -20.885)scale(.26458)"><tspan x="229.264" y="422.408">F2SF1*A</tspan></text><path d="M89.47 241.162h13.41" style="fill:none;stroke:#000;stroke-width:.264582px;stroke-linecap:butt;stroke-linejoin:miter;stroke-opacity:1;marker-start:url(#j);marker-end:url(#j)" transform="translate(-28.491 -155.66)"/><path d="M104.265 230.319v10.843" style="fill:none;stroke:#ccc;stroke-width:.264583px;stroke-linecap:butt;stroke-linejoin:miter;stroke-opacity:1" transform="translate(-28.491 -155.66)"/><path d="m111.206 204.374 6.942 25.945h-13.883Z" style="fill:none;stroke:#000;stroke-width:.264583px;stroke-linecap:butt;stroke-linejoin:miter;stroke-opacity:1" transform="translate(-28.491 -155.66)"/><path d="M118.148 230.319v10.843" style="fill:none;stroke:#ccc;stroke-width:.264583px;stroke-linecap:butt;stroke-linejoin:miter;stroke-opacity:1" transform="translate(-28.491 -155.66)"/><path d="M105.49 241.162h11.698" style="fill:none;stroke:#000;stroke-width:.264582px;stroke-linecap:butt;stroke-linejoin:miter;stroke-opacity:1;marker-start:url(#k);marker-end:url(#k)" transform="translate(-28.491 -155.66)"/><text xml:space="preserve" style="font-size:14.6667px;line-height:1.25;font-family:sans-serif;white-space:pre;shape-inside:url(#l);display:inline" transform="translate(17.256 -19.133)scale(.26458)"><tspan x="173.771" y="407.787">F2C</tspan></text><text xml:space="preserve" style="font-size:14.6667px;line-height:1.25;font-family:sans-serif;white-space:pre;shape-inside:url(#m);display:inline" transform="translate(14.07 -20.356)scale(.26458)"><tspan x="229.264" y="422.408">F2SF1*A</tspan></text><path d="M33.643 241.162h13.41" style="fill:none;stroke:#000;stroke-width:.264582px;stroke-linecap:butt;stroke-linejoin:miter;stroke-opacity:1;marker-start:url(#n);marker-end:url(#n)" transform="translate(-28.491 -155.66)"/><text xml:space="preserve" style="font-size:14.6667px;line-height:1.25;font-family:sans-serif;white-space:pre;shape-inside:url(#o);display:inline" transform="translate(-37.32 -17.546)scale(.26458)"><tspan x="173.771" y="407.787">F2C</tspan></text><path d="M119.693 241.162h13.41" style="fill:none;stroke:#000;stroke-width:.264582px;stroke-linecap:butt;stroke-linejoin:miter;stroke-opacity:1;marker-start:url(#p);marker-end:url(#p)" transform="translate(-28.491 -155.66)"/><text xml:space="preserve" style="font-size:14.6667px;line-height:1.25;font-family:sans-serif;white-space:pre;shape-inside:url(#q);display:inline" transform="translate(48.201 -18.604)scale(.26458)"><tspan x="173.771" y="407.787">F2C</tspan></text><text xml:space="preserve" x="18.108" style="font-size:14.6667px;line-height:1.25;font-family:sans-serif;text-align:center;white-space:pre;shape-inside:url(#r);display:inline" transform="translate(-28.02 -15.828)scale(.26458)"><tspan x="246.488" y="446.699">scale
</tspan><tspan x="216.804" y="465.033">factor: F2SF1
</tspan><tspan x="201.582" y="483.366">corner not scaled</tspan></text><text xml:space="preserve" x="18.108" style="font-size:14.6667px;line-height:1.25;font-family:sans-serif;text-align:center;white-space:pre;shape-inside:url(#s);display:inline" transform="translate(6.591 -15.38)scale(.26458)"><tspan x="246.488" y="446.699">scale
</tspan><tspan x="216.804" y="465.033">factor: F2SF1
</tspan><tspan x="215.923" y="483.366">corner scaled</tspan></text><path d="M71.468 253.255s-2.784-11.85-3.277-17.894c-.256-3.14-1.4-6.722.174-9.452.81-1.404 4.162-2.514 4.162-2.514" style="fill:none;stroke:#000;stroke-width:.264583px;stroke-linecap:butt;stroke-linejoin:miter;stroke-opacity:1;marker-end:url(#a)" transform="translate(-28.491 -155.66)"/><path d="M102.166 255.16s-2.784-11.849-3.277-17.893c-.256-3.14-1.4-6.722.174-9.452.809-1.404 4.162-2.514 4.162-2.514" style="fill:none;stroke:#000;stroke-width:.264583px;stroke-linecap:butt;stroke-linejoin:miter;stroke-opacity:1;marker-end:url(#t)" transform="translate(-28.491 -155.66)"/><path d="m76.36 178.26-7.156 16.744-7.364-5.755z" style="fill:none;stroke:#000;stroke-width:.264583px;stroke-linecap:butt;stroke-linejoin:miter;stroke-opacity:1" transform="translate(-28.491 -155.66)"/><text xml:space="preserve" style="font-size:14.6667px;line-height:1.25;font-family:sans-serif;white-space:pre;shape-inside:url(#u);display:inline" transform="translate(-70.45 -25.425)scale(.26458)"><tspan x="347.783" y="118.391">rotate
</tspan><tspan x="347.783" y="136.724">angle: F2Z1</tspan></text><path d="m58.585 168.899 8.261 12.37" style="fill:none;stroke:#000;stroke-width:.264583px;stroke-linecap:butt;stroke-linejoin:miter;stroke-opacity:1;marker-end:url(#v)" transform="translate(-28.491 -155.66)"/><path d="M32.523 173.458h101.7v63.093h-101.7z" style="fill:none;stroke:#1a1a1a;stroke-width:.264583;stroke-linejoin:bevel" transform="translate(-28.491 -155.66)"/><path d="m90.119 178.26 7.157 16.744 7.363-5.755z" style="fill:none;stroke:#000;stroke-width:.264583px;stroke-linecap:butt;stroke-linejoin:miter;stroke-opacity:1" transform="translate(-28.491 -155.66)"/><text xml:space="preserve" style="font-size:14.6667px;line-height:1.25;font-family:sans-serif;white-space:pre;shape-inside:url(#w);display:inline" transform="translate(-17.576 -24.35)scale(.26458)"><tspan x="347.783" y="118.391">rotate
</tspan><tspan x="347.783" y="136.724">angle: -F2Z1</tspan></text><path d="m107.59 169.112-8.26 12.37" style="fill:none;stroke:#000;stroke-width:.264583px;stroke-linecap:butt;stroke-linejoin:miter;stroke-opacity:1;marker-end:url(#x)" transform="translate(-28.491 -155.66)"/></svg>