<svg xmlns="http://www.w3.org/2000/svg" width="527.949" height="277.56" viewBox="0 0 139.687 73.438"><defs><marker id="a" markerHeight="1" markerWidth="1" orient="auto-start-reverse" preserveAspectRatio="xMidYMid" refX="0" refY="0" style="overflow:visible" viewBox="0 0 1 1"><path d="M-.211-4.106 6.21-.894a1 1 90 0 1 0 1.788L-.21 4.106A1.236 1.236 31.717 0 1-2 3v-6A1.236 1.236 148.283 0 1-.211-4.106" style="fill:context-stroke;fill-rule:evenodd;stroke:none" transform="scale(.7)"/></marker><marker id="b" markerHeight="1" markerWidth="1" orient="auto-start-reverse" preserveAspectRatio="xMidYMid" refX="0" refY="0" style="overflow:visible" viewBox="0 0 1 1"><path d="M-.211-4.106 6.21-.894a1 1 90 0 1 0 1.788L-.21 4.106A1.236 1.236 31.717 0 1-2 3v-6A1.236 1.236 148.283 0 1-.211-4.106" style="fill:context-stroke;fill-rule:evenodd;stroke:none" transform="scale(.7)"/></marker><marker id="c" markerHeight="1" markerWidth="1" orient="auto-start-reverse" preserveAspectRatio="xMidYMid" refX="0" refY="0" style="overflow:visible" viewBox="0 0 1 1"><path d="M-.211-4.106 6.21-.894a1 1 90 0 1 0 1.788L-.21 4.106A1.236 1.236 31.717 0 1-2 3v-6A1.236 1.236 148.283 0 1-.211-4.106" style="fill:context-stroke;fill-rule:evenodd;stroke:none" transform="scale(.7)"/></marker><marker id="d" markerHeight="1" markerWidth="1" orient="auto-start-reverse" preserveAspectRatio="xMidYMid" refX="0" refY="0" style="overflow:visible" viewBox="0 0 1 1"><path d="M-.211-4.106 6.21-.894a1 1 90 0 1 0 1.788L-.21 4.106A1.236 1.236 31.717 0 1-2 3v-6A1.236 1.236 148.283 0 1-.211-4.106" style="fill:context-stroke;fill-rule:evenodd;stroke:none" transform="scale(.7)"/></marker><marker id="e" markerHeight="1" markerWidth="1" orient="auto-start-reverse" preserveAspectRatio="xMidYMid" refX="0" refY="0" style="overflow:visible" viewBox="0 0 1 1"><path d="M-.211-4.106 6.21-.894a1 1 90 0 1 0 1.788L-.21 4.106A1.236 1.236 31.717 0 1-2 3v-6A1.236 1.236 148.283 0 1-.211-4.106" style="fill:context-stroke;fill-rule:evenodd;stroke:none" transform="scale(.7)"/></marker><marker id="k" markerHeight="1" markerWidth="1" orient="auto-start-reverse" preserveAspectRatio="xMidYMid" refX="0" refY="0" style="overflow:visible" viewBox="0 0 1 1"><path d="M-.211-4.106 6.21-.894a1 1 90 0 1 0 1.788L-.21 4.106A1.236 1.236 31.717 0 1-2 3v-6A1.236 1.236 148.283 0 1-.211-4.106" style="fill:context-stroke;fill-rule:evenodd;stroke:none" transform="scale(.7)"/></marker><marker id="m" markerHeight="1" markerWidth="1" orient="auto-start-reverse" preserveAspectRatio="xMidYMid" refX="0" refY="0" style="overflow:visible" viewBox="0 0 1 1"><path d="M-.211-4.106 6.21-.894a1 1 90 0 1 0 1.788L-.21 4.106A1.236 1.236 31.717 0 1-2 3v-6A1.236 1.236 148.283 0 1-.211-4.106" style="fill:context-stroke;fill-rule:evenodd;stroke:none" transform="scale(.7)"/></marker><marker id="o" markerHeight="1" markerWidth="1" orient="auto-start-reverse" preserveAspectRatio="xMidYMid" refX="0" refY="0" style="overflow:visible" viewBox="0 0 1 1"><path d="M-.211-4.106 6.21-.894a1 1 90 0 1 0 1.788L-.21 4.106A1.236 1.236 31.717 0 1-2 3v-6A1.236 1.236 148.283 0 1-.211-4.106" style="fill:context-stroke;fill-rule:evenodd;stroke:none" transform="scale(.7)"/></marker><marker id="p" markerHeight="1" markerWidth="1" orient="auto-start-reverse" preserveAspectRatio="xMidYMid" refX="0" refY="0" style="overflow:visible" viewBox="0 0 1 1"><path d="M-.211-4.106 6.21-.894a1 1 90 0 1 0 1.788L-.21 4.106A1.236 1.236 31.717 0 1-2 3v-6A1.236 1.236 148.283 0 1-.211-4.106" style="fill:context-stroke;fill-rule:evenodd;stroke:none" transform="scale(.7)"/></marker><marker id="q" markerHeight="1" markerWidth="1" orient="auto-start-reverse" preserveAspectRatio="xMidYMid" refX="0" refY="0" style="overflow:visible" viewBox="0 0 1 1"><path d="M-.211-4.106 6.21-.894a1 1 90 0 1 0 1.788L-.21 4.106A1.236 1.236 31.717 0 1-2 3v-6A1.236 1.236 148.283 0 1-.211-4.106" style="fill:context-stroke;fill-rule:evenodd;stroke:none" transform="scale(.7)"/></marker><marker id="r" markerHeight="1" markerWidth="1" orient="auto-start-reverse" preserveAspectRatio="xMidYMid" refX="0" refY="0" style="overflow:visible" viewBox="0 0 1 1"><path d="M-.211-4.106 6.21-.894a1 1 90 0 1 0 1.788L-.21 4.106A1.236 1.236 31.717 0 1-2 3v-6A1.236 1.236 148.283 0 1-.211-4.106" style="fill:context-stroke;fill-rule:evenodd;stroke:none" transform="scale(.7)"/></marker><path id="t" d="M78.242 578.258h43.515v30.272H78.242z"/><path id="s" d="M49.794 529.455h48.499v31.217H49.794z"/><path id="f" d="M338.513 71.102h28.147v20.057h-28.147z"/><path id="g" d="M334.63 117.079h38.96v26.595h-38.96z"/><path id="h" d="M338.301 156.245h53.308v23.209h-53.308z"/><path id="i" d="M340.375 88.265h46.133v32.905h-46.133z"/><path id="j" d="M355.383 143.118h43.365v27.859h-43.365z"/><path id="l" d="M129.151 889.973h100.5v56.776h-100.5z"/><path id="n" d="M129.151 889.973h100.5v56.776h-100.5z"/><path id="u" d="M78.242 578.258h43.515v30.272H78.242z"/><path id="v" d="M49.794 529.455h48.499v31.217H49.794z"/></defs><g transform="translate(-6.851 -132.938)"><path d="M6.984 133.07h139.422v73.173H6.984z" style="fill:#fff;stroke:#fff;stroke-width:.265;stroke-linejoin:bevel"/><circle cx="75.786" cy="176.142" r="17.087" style="fill:none;stroke:#666;stroke-width:.264583;stroke-linejoin:bevel"/><circle cx="75.786" cy="176.142" r="11.972" style="fill:#fff;stroke:#666;stroke-width:.264583;stroke-linejoin:bevel"/><path d="M49.327 181.278h52.917v17.427H49.327z" style="fill:none;stroke:#666;stroke-width:.264583;stroke-linejoin:bevel"/><path d="M49.327 184.322h52.917v11.339H49.327z" style="fill:none;stroke:#666;stroke-width:.264583;stroke-linejoin:bevel"/><path d="M102.244 181.278h24.26m-24.128 17.691h24.26" style="fill:none;stroke:#e6e6e6;stroke-width:.264583px;stroke-linecap:butt;stroke-linejoin:miter;stroke-opacity:1"/><path d="m122.271 182.898.132 14.732" style="fill:none;stroke:#000;stroke-width:.265;stroke-linecap:butt;stroke-linejoin:miter;stroke-opacity:1;marker-start:url(#a);marker-end:url(#a)"/><path d="M102.376 184.322h13.846m-13.846 11.603h13.846" style="fill:none;stroke:#e6e6e6;stroke-width:.264583px;stroke-linecap:butt;stroke-linejoin:miter;stroke-opacity:1"/><path d="m114.32 185.622.133 9.082" style="fill:none;stroke:#000;stroke-width:.265;stroke-linecap:butt;stroke-linejoin:miter;stroke-opacity:1;marker-start:url(#b);marker-end:url(#b)"/><path d="M58.434 176.142v-33.75m34.703 33.75v-33.75m-29.324 33.75v-24.45m24.077 24.45v-24.45" style="fill:none;stroke:#e6e6e6;stroke-width:.264583px;stroke-linecap:butt;stroke-linejoin:miter;stroke-opacity:1"/><path d="m59.658 142.545 32.295-.213" style="fill:none;stroke:#000;stroke-width:.265;stroke-linecap:butt;stroke-linejoin:miter;stroke-opacity:1;marker-start:url(#c);marker-end:url(#c)"/><path d="M75.786 176.274h32.618m-6.028 13.585h6.723" style="fill:none;stroke:#e6e6e6;stroke-width:.264583px;stroke-linecap:butt;stroke-linejoin:miter;stroke-opacity:1"/><path d="m106.984 177.474.132 11.265" style="fill:none;stroke:#000;stroke-width:.265;stroke-linecap:butt;stroke-linejoin:miter;stroke-opacity:1;marker-start:url(#d);marker-end:url(#d)"/><path d="m65.168 151.8 21.368-.214" style="fill:none;stroke:#000;stroke-width:.265;stroke-linecap:butt;stroke-linejoin:miter;stroke-opacity:1;marker-start:url(#e);marker-end:url(#e)"/><text xml:space="preserve" style="font-size:14.6667px;line-height:1.25;font-family:sans-serif;white-space:pre;shape-inside:url(#f);display:inline" transform="translate(-15.402 119.254)scale(.26458)"><tspan x="338.514" y="84.078">D1</tspan></text><text xml:space="preserve" style="font-size:14.6667px;line-height:1.25;font-family:sans-serif;white-space:pre;shape-inside:url(#g);display:inline" transform="translate(-14.53 116.814)scale(.26458)"><tspan x="334.631" y="130.055">D2</tspan></text><text xml:space="preserve" style="font-size:14.6667px;line-height:1.25;font-family:sans-serif;white-space:pre;shape-inside:url(#h);display:inline" transform="translate(17.613 139.284)scale(.26458)"><tspan x="338.301" y="169.221">H1</tspan></text><text xml:space="preserve" style="font-size:14.6667px;line-height:1.25;font-family:sans-serif;white-space:pre;shape-inside:url(#i);display:inline" transform="translate(24.55 165.002)scale(.26458)"><tspan x="340.375" y="101.242">D4</tspan></text><text xml:space="preserve" style="font-size:14.6667px;line-height:1.25;font-family:sans-serif;white-space:pre;shape-inside:url(#j);display:inline" transform="translate(28.533 150.4)scale(.26458)"><tspan x="355.383" y="156.096">D3</tspan></text><path d="M102.112 181.145v-24.448m-52.785 24.448v-24.448" style="fill:none;stroke:#e6e6e6;stroke-width:.264583px;stroke-linecap:butt;stroke-linejoin:miter;stroke-opacity:1"/><path d="m94.503 157.612 6.222-.133" style="fill:none;stroke:#000;stroke-width:.265;stroke-linecap:butt;stroke-linejoin:miter;stroke-opacity:1;marker-start:url(#k);marker-end:url(#k)"/><text xml:space="preserve" style="font-size:14.6667px;line-height:1.25;font-family:sans-serif;white-space:pre;shape-inside:url(#l);display:inline" transform="translate(57.738 -83.387)scale(.26458)"><tspan x="129.15" y="902.949">D3 / 2</tspan></text><path d="m50.714 157.612 6.222-.133" style="fill:none;stroke:#000;stroke-width:.265;stroke-linecap:butt;stroke-linejoin:miter;stroke-opacity:1;marker-start:url(#m);marker-end:url(#m)"/><text xml:space="preserve" style="font-size:14.6667px;line-height:1.25;font-family:sans-serif;white-space:pre;shape-inside:url(#n);display:inline" transform="translate(13.95 -83.387)scale(.26458)"><tspan x="129.15" y="902.949">D3 / 2</tspan></text><path d="M9.702 181.278h11.596v17.427H9.702z" style="fill:none;stroke:#666;stroke-width:.264583;stroke-linejoin:bevel"/><path d="M9.702 184.322h11.596v11.339H9.702zm120.571-3.044h11.596v17.427h-11.596z" style="fill:none;stroke:#666;stroke-width:.264583;stroke-linejoin:bevel"/><path d="M130.273 184.322h11.596v11.339h-11.596z" style="fill:none;stroke:#666;stroke-width:.264583;stroke-linejoin:bevel"/><path d="M21.298 181.278v-24.449M9.702 181.145v-24.448" style="fill:none;stroke:#e6e6e6;stroke-width:.264583px;stroke-linecap:butt;stroke-linejoin:miter;stroke-opacity:1"/><path d="m11.19 156.895 8.62-.132" style="fill:none;stroke:#000;stroke-width:.265;stroke-linecap:butt;stroke-linejoin:miter;stroke-opacity:1;marker-start:url(#o);marker-end:url(#o)"/><path d="m22.523 164.954 25.55-.132" style="fill:none;stroke:#000;stroke-width:.265;stroke-linecap:butt;stroke-linejoin:miter;stroke-opacity:1;marker-start:url(#p);marker-end:url(#p)"/><path d="M130.273 181.145v-24.448m11.596 24.581v-24.449" style="fill:none;stroke:#e6e6e6;stroke-width:.264583px;stroke-linecap:butt;stroke-linejoin:miter;stroke-opacity:1"/><path d="m131.66 156.763 8.619-.132" style="fill:none;stroke:#000;stroke-width:.265;stroke-linecap:butt;stroke-linejoin:miter;stroke-opacity:1;marker-start:url(#q);marker-end:url(#q)"/><path d="m103.366 163.252 25.55-.132" style="fill:none;stroke:#000;stroke-width:.265;stroke-linecap:butt;stroke-linejoin:miter;stroke-opacity:1;marker-start:url(#r);marker-end:url(#r)"/><text xml:space="preserve" style="font-size:14.6667px;line-height:1.25;font-family:sans-serif;white-space:pre;shape-inside:url(#s);display:inline" transform="translate(.078 11.873)scale(.26458)"><tspan x="49.795" y="542.432">L1</tspan></text><text xml:space="preserve" style="font-size:14.6667px;line-height:1.25;font-family:sans-serif;white-space:pre;shape-inside:url(#t);display:inline" transform="translate(11.96 7.245)scale(.26458)"><tspan x="78.242" y="591.234">L2</tspan></text><text xml:space="preserve" style="font-size:14.6667px;line-height:1.25;font-family:sans-serif;white-space:pre;shape-inside:url(#u);display:inline" transform="translate(93.686 5.342)scale(.26458)"><tspan x="78.242" y="591.234">L2</tspan></text><text xml:space="preserve" style="font-size:14.6667px;line-height:1.25;font-family:sans-serif;white-space:pre;shape-inside:url(#v);display:inline" transform="translate(120.486 11.62)scale(.26458)"><tspan x="49.795" y="542.432">L1</tspan></text></g></svg>