<svg xmlns="http://www.w3.org/2000/svg" width="600" height="3000" viewBox="0 0 158.75 793.75"><defs><path id="I" d="M179.483 897.032h250.224v41.929H179.483z"/><path id="H" d="M195.613 554.601h269.195v76.727H195.613z"/><path id="G" d="M72.881 678.263h300.428v79.658H72.881z"/><path id="a" d="M12.306 12.726h207.712v48.263H12.306z"/><path id="j" d="M34.141 125.336h77.356v33.489H34.141z"/><path id="k" d="M61.598 368.419h105.715v30.464H61.598z"/><path id="l" d="M182.436 394.916h52.279v32.488h-52.279z"/><path id="m" d="M128.581 374.528H261.39v48.53H128.581z"/><path id="p" d="M128.581 374.528H261.39v48.53H128.581z"/><path id="q" d="M66.173 368.458h150.46v25.397H66.173z"/><path id="r" d="M66.173 368.458h150.46v25.397H66.173z"/><path id="s" d="M21.605 140.865h93.484v40.309H21.605z"/><path id="u" d="M21.605 140.865h93.484v40.309H21.605z"/><path id="w" d="M21.605 140.865h93.484v40.309H21.605z"/><path id="z" d="M88.453 451.506h214.37v58.431H88.453z"/><path id="C" d="M451.797 170.429h107.189v137.528H451.797z"/><path id="E" d="M305.621 82.219h66.681v39.076h-66.681z"/><path id="L" d="M113.007 378.823h78.251v51.869h-78.251z"/><path id="M" d="M40.37 366.157h32.861v38.551H40.37z"/><path id="N" d="M32.34 172.913h131.564v47.759H32.34z"/><path id="P" d="M173.772 394.811h53.572v38.325h-53.572z"/><path id="R" d="M229.263 409.431h65.175v31.772h-65.175z"/><path id="U" d="M173.772 394.811h53.572v38.325h-53.572z"/><path id="V" d="M229.263 409.431h65.175v31.772h-65.175z"/><path id="X" d="M173.772 394.811h53.572v38.325h-53.572z"/><path id="Z" d="M173.772 394.811h53.572v38.325h-53.572z"/><path id="aa" d="M182.835 433.723h165.096v73.265H182.835z"/><path id="ab" d="M182.835 433.723h165.096v73.265H182.835z"/><path id="ad" d="M347.783 105.413h149.878v56.501H347.783z"/><path id="af" d="M347.783 105.413h149.878v56.501H347.783z"/><path id="ao" d="M134.782 709.39h61.399v44.6h-61.399z"/><path id="as" d="M479.871 577.127h46.022v30.31h-46.022z"/><path id="at" d="M479.871 577.127h46.022v30.31h-46.022z"/><path id="au" d="M479.871 577.127h46.022v30.31h-46.022z"/><path id="av" d="M463.465 300.76h118.747v58.885H463.465z"/><path id="ah" d="M134.782 709.39h61.399v44.6h-61.399z"/><path id="aw" d="M134.782 709.39h61.399v44.6h-61.399z"/><path id="ax" d="M134.782 709.39h61.399v44.6h-61.399z"/><path id="ay" d="M134.782 709.39h61.399v44.6h-61.399z"/><path id="az" d="M134.782 709.39h61.399v44.6h-61.399z"/><marker id="b" markerHeight="1" markerWidth="1" orient="auto-start-reverse" preserveAspectRatio="xMidYMid" refX="0" refY="0" style="overflow:visible" viewBox="0 0 1 1"><path d="M-.211-4.106 6.21-.894a1 1 90 0 1 0 1.788L-.21 4.106A1.236 1.236 31.717 0 1-2 3v-6A1.236 1.236 148.283 0 1-.211-4.106" style="fill:context-stroke;fill-rule:evenodd;stroke:none" transform="scale(.7)"/></marker><marker id="c" markerHeight="1" markerWidth="1" orient="auto-start-reverse" preserveAspectRatio="xMidYMid" refX="0" refY="0" style="overflow:visible" viewBox="0 0 1 1"><path d="M-.211-4.106 6.21-.894a1 1 90 0 1 0 1.788L-.21 4.106A1.236 1.236 31.717 0 1-2 3v-6A1.236 1.236 148.283 0 1-.211-4.106" style="fill:context-stroke;fill-rule:evenodd;stroke:none" transform="scale(.7)"/></marker><marker id="d" markerHeight="1" markerWidth="1" orient="auto-start-reverse" preserveAspectRatio="xMidYMid" refX="0" refY="0" style="overflow:visible" viewBox="0 0 1 1"><path d="M-.211-4.106 6.21-.894a1 1 90 0 1 0 1.788L-.21 4.106A1.236 1.236 31.717 0 1-2 3v-6A1.236 1.236 148.283 0 1-.211-4.106" style="fill:context-stroke;fill-rule:evenodd;stroke:none" transform="scale(.7)"/></marker><marker id="e" markerHeight="1" markerWidth="1" orient="auto-start-reverse" preserveAspectRatio="xMidYMid" refX="0" refY="0" style="overflow:visible" viewBox="0 0 1 1"><path d="M-.211-4.106 6.21-.894a1 1 90 0 1 0 1.788L-.21 4.106A1.236 1.236 31.717 0 1-2 3v-6A1.236 1.236 148.283 0 1-.211-4.106" style="fill:context-stroke;fill-rule:evenodd;stroke:none" transform="scale(.7)"/></marker><marker id="f" markerHeight="1" markerWidth="1" orient="auto-start-reverse" preserveAspectRatio="xMidYMid" refX="0" refY="0" style="overflow:visible" viewBox="0 0 1 1"><path d="M-.211-4.106 6.21-.894a1 1 90 0 1 0 1.788L-.21 4.106A1.236 1.236 31.717 0 1-2 3v-6A1.236 1.236 148.283 0 1-.211-4.106" style="fill:context-stroke;fill-rule:evenodd;stroke:none" transform="scale(.7)"/></marker><marker id="g" markerHeight="1" markerWidth="1" orient="auto-start-reverse" preserveAspectRatio="xMidYMid" refX="0" refY="0" style="overflow:visible" viewBox="0 0 1 1"><path d="M-.211-4.106 6.21-.894a1 1 90 0 1 0 1.788L-.21 4.106A1.236 1.236 31.717 0 1-2 3v-6A1.236 1.236 148.283 0 1-.211-4.106" style="fill:context-stroke;fill-rule:evenodd;stroke:none" transform="scale(.7)"/></marker><marker id="h" markerHeight="1" markerWidth="1" orient="auto-start-reverse" preserveAspectRatio="xMidYMid" refX="0" refY="0" style="overflow:visible" viewBox="0 0 1 1"><path d="M-.211-4.106 6.21-.894a1 1 90 0 1 0 1.788L-.21 4.106A1.236 1.236 31.717 0 1-2 3v-6A1.236 1.236 148.283 0 1-.211-4.106" style="fill:context-stroke;fill-rule:evenodd;stroke:none" transform="scale(.7)"/></marker><marker id="i" markerHeight="1" markerWidth="1" orient="auto-start-reverse" preserveAspectRatio="xMidYMid" refX="0" refY="0" style="overflow:visible" viewBox="0 0 1 1"><path d="M-.211-4.106 6.21-.894a1 1 90 0 1 0 1.788L-.21 4.106A1.236 1.236 31.717 0 1-2 3v-6A1.236 1.236 148.283 0 1-.211-4.106" style="fill:context-stroke;fill-rule:evenodd;stroke:none" transform="scale(.7)"/></marker><marker id="n" markerHeight="1" markerWidth="1" orient="auto-start-reverse" preserveAspectRatio="xMidYMid" refX="0" refY="0" style="overflow:visible" viewBox="0 0 1 1"><path d="M-.211-4.106 6.21-.894a1 1 90 0 1 0 1.788L-.21 4.106A1.236 1.236 31.717 0 1-2 3v-6A1.236 1.236 148.283 0 1-.211-4.106" style="fill:context-stroke;fill-rule:evenodd;stroke:none" transform="scale(.7)"/></marker><marker id="o" markerHeight="1" markerWidth="1" orient="auto-start-reverse" preserveAspectRatio="xMidYMid" refX="0" refY="0" style="overflow:visible" viewBox="0 0 1 1"><path d="M-.211-4.106 6.21-.894a1 1 90 0 1 0 1.788L-.21 4.106A1.236 1.236 31.717 0 1-2 3v-6A1.236 1.236 148.283 0 1-.211-4.106" style="fill:context-stroke;fill-rule:evenodd;stroke:none" transform="scale(.7)"/></marker><marker id="t" markerHeight="1" markerWidth="1" orient="auto-start-reverse" preserveAspectRatio="xMidYMid" refX="0" refY="0" style="overflow:visible" viewBox="0 0 1 1"><path d="M-.211-4.106 6.21-.894a1 1 90 0 1 0 1.788L-.21 4.106A1.236 1.236 31.717 0 1-2 3v-6A1.236 1.236 148.283 0 1-.211-4.106" style="fill:context-stroke;fill-rule:evenodd;stroke:none" transform="scale(.7)"/></marker><marker id="v" markerHeight="1" markerWidth="1" orient="auto-start-reverse" preserveAspectRatio="xMidYMid" refX="0" refY="0" style="overflow:visible" viewBox="0 0 1 1"><path d="M-.211-4.106 6.21-.894a1 1 90 0 1 0 1.788L-.21 4.106A1.236 1.236 31.717 0 1-2 3v-6A1.236 1.236 148.283 0 1-.211-4.106" style="fill:context-stroke;fill-rule:evenodd;stroke:none" transform="scale(.7)"/></marker><marker id="x" markerHeight="1" markerWidth="1" orient="auto-start-reverse" preserveAspectRatio="xMidYMid" refX="0" refY="0" style="overflow:visible" viewBox="0 0 1 1"><path d="M-.211-4.106 6.21-.894a1 1 90 0 1 0 1.788L-.21 4.106A1.236 1.236 31.717 0 1-2 3v-6A1.236 1.236 148.283 0 1-.211-4.106" style="fill:context-stroke;fill-rule:evenodd;stroke:none" transform="scale(.7)"/></marker><marker id="y" markerHeight="1" markerWidth="1" orient="auto-start-reverse" preserveAspectRatio="xMidYMid" refX="0" refY="0" style="overflow:visible" viewBox="0 0 1 1"><path d="M-.211-4.106 6.21-.894a1 1 90 0 1 0 1.788L-.21 4.106A1.236 1.236 31.717 0 1-2 3v-6A1.236 1.236 148.283 0 1-.211-4.106" style="fill:context-stroke;fill-rule:evenodd;stroke:none" transform="scale(.7)"/></marker><marker id="A" markerHeight="1" markerWidth="1" orient="auto-start-reverse" preserveAspectRatio="xMidYMid" refX="0" refY="0" style="overflow:visible" viewBox="0 0 1 1"><path d="M-.211-4.106 6.21-.894a1 1 90 0 1 0 1.788L-.21 4.106A1.236 1.236 31.717 0 1-2 3v-6A1.236 1.236 148.283 0 1-.211-4.106" style="fill:context-stroke;fill-rule:evenodd;stroke:none" transform="scale(.7)"/></marker><marker id="B" markerHeight="1" markerWidth="1" orient="auto-start-reverse" preserveAspectRatio="xMidYMid" refX="0" refY="0" style="overflow:visible" viewBox="0 0 1 1"><path d="M-.211-4.106 6.21-.894a1 1 90 0 1 0 1.788L-.21 4.106A1.236 1.236 31.717 0 1-2 3v-6A1.236 1.236 148.283 0 1-.211-4.106" style="fill:context-stroke;fill-rule:evenodd;stroke:none" transform="scale(.7)"/></marker><marker id="D" markerHeight="1" markerWidth="1" orient="auto-start-reverse" preserveAspectRatio="xMidYMid" refX="0" refY="0" style="overflow:visible" viewBox="0 0 1 1"><path d="M-.211-4.106 6.21-.894a1 1 90 0 1 0 1.788L-.21 4.106A1.236 1.236 31.717 0 1-2 3v-6A1.236 1.236 148.283 0 1-.211-4.106" style="fill:context-stroke;fill-rule:evenodd;stroke:none" transform="scale(.7)"/></marker><marker id="F" markerHeight="1" markerWidth="1" orient="auto-start-reverse" preserveAspectRatio="xMidYMid" refX="0" refY="0" style="overflow:visible" viewBox="0 0 1 1"><path d="M-.211-4.106 6.21-.894a1 1 90 0 1 0 1.788L-.21 4.106A1.236 1.236 31.717 0 1-2 3v-6A1.236 1.236 148.283 0 1-.211-4.106" style="fill:context-stroke;fill-rule:evenodd;stroke:none" transform="scale(.7)"/></marker><marker id="J" markerHeight="1" markerWidth="1" orient="auto-start-reverse" preserveAspectRatio="xMidYMid" refX="0" refY="0" style="overflow:visible" viewBox="0 0 1 1"><path d="M-.211-4.106 6.21-.894a1 1 90 0 1 0 1.788L-.21 4.106A1.236 1.236 31.717 0 1-2 3v-6A1.236 1.236 148.283 0 1-.211-4.106" style="fill:context-stroke;fill-rule:evenodd;stroke:none" transform="scale(.7)"/></marker><marker id="K" markerHeight="1" markerWidth="1" orient="auto-start-reverse" preserveAspectRatio="xMidYMid" refX="0" refY="0" style="overflow:visible" viewBox="0 0 1 1"><path d="M-.211-4.106 6.21-.894a1 1 90 0 1 0 1.788L-.21 4.106A1.236 1.236 31.717 0 1-2 3v-6A1.236 1.236 148.283 0 1-.211-4.106" style="fill:context-stroke;fill-rule:evenodd;stroke:none" transform="scale(.7)"/></marker><marker id="O" markerHeight="1" markerWidth="1" orient="auto-start-reverse" preserveAspectRatio="xMidYMid" refX="0" refY="0" style="overflow:visible" viewBox="0 0 1 1"><path d="M-.211-4.106 6.21-.894a1 1 90 0 1 0 1.788L-.21 4.106A1.236 1.236 31.717 0 1-2 3v-6A1.236 1.236 148.283 0 1-.211-4.106" style="fill:context-stroke;fill-rule:evenodd;stroke:none" transform="scale(.7)"/></marker><marker id="Q" markerHeight="1" markerWidth="1" orient="auto-start-reverse" preserveAspectRatio="xMidYMid" refX="0" refY="0" style="overflow:visible" viewBox="0 0 1 1"><path d="M-.211-4.106 6.21-.894a1 1 90 0 1 0 1.788L-.21 4.106A1.236 1.236 31.717 0 1-2 3v-6A1.236 1.236 148.283 0 1-.211-4.106" style="fill:context-stroke;fill-rule:evenodd;stroke:none" transform="scale(.7)"/></marker><marker id="S" markerHeight="1" markerWidth="1" orient="auto-start-reverse" preserveAspectRatio="xMidYMid" refX="0" refY="0" style="overflow:visible" viewBox="0 0 1 1"><path d="M-.211-4.106 6.21-.894a1 1 90 0 1 0 1.788L-.21 4.106A1.236 1.236 31.717 0 1-2 3v-6A1.236 1.236 148.283 0 1-.211-4.106" style="fill:context-stroke;fill-rule:evenodd;stroke:none" transform="scale(.7)"/></marker><marker id="T" markerHeight="1" markerWidth="1" orient="auto-start-reverse" preserveAspectRatio="xMidYMid" refX="0" refY="0" style="overflow:visible" viewBox="0 0 1 1"><path d="M-.211-4.106 6.21-.894a1 1 90 0 1 0 1.788L-.21 4.106A1.236 1.236 31.717 0 1-2 3v-6A1.236 1.236 148.283 0 1-.211-4.106" style="fill:context-stroke;fill-rule:evenodd;stroke:none" transform="scale(.7)"/></marker><marker id="W" markerHeight="1" markerWidth="1" orient="auto-start-reverse" preserveAspectRatio="xMidYMid" refX="0" refY="0" style="overflow:visible" viewBox="0 0 1 1"><path d="M-.211-4.106 6.21-.894a1 1 90 0 1 0 1.788L-.21 4.106A1.236 1.236 31.717 0 1-2 3v-6A1.236 1.236 148.283 0 1-.211-4.106" style="fill:context-stroke;fill-rule:evenodd;stroke:none" transform="scale(.7)"/></marker><marker id="Y" markerHeight="1" markerWidth="1" orient="auto-start-reverse" preserveAspectRatio="xMidYMid" refX="0" refY="0" style="overflow:visible" viewBox="0 0 1 1"><path d="M-.211-4.106 6.21-.894a1 1 90 0 1 0 1.788L-.21 4.106A1.236 1.236 31.717 0 1-2 3v-6A1.236 1.236 148.283 0 1-.211-4.106" style="fill:context-stroke;fill-rule:evenodd;stroke:none" transform="scale(.7)"/></marker><marker id="ac" markerHeight="1" markerWidth="1" orient="auto-start-reverse" preserveAspectRatio="xMidYMid" refX="0" refY="0" style="overflow:visible" viewBox="0 0 1 1"><path d="M-.211-4.106 6.21-.894a1 1 90 0 1 0 1.788L-.21 4.106A1.236 1.236 31.717 0 1-2 3v-6A1.236 1.236 148.283 0 1-.211-4.106" style="fill:context-stroke;fill-rule:evenodd;stroke:none" transform="scale(.7)"/></marker><marker id="ae" markerHeight="1" markerWidth="1" orient="auto-start-reverse" preserveAspectRatio="xMidYMid" refX="0" refY="0" style="overflow:visible" viewBox="0 0 1 1"><path d="M-.211-4.106 6.21-.894a1 1 90 0 1 0 1.788L-.21 4.106A1.236 1.236 31.717 0 1-2 3v-6A1.236 1.236 148.283 0 1-.211-4.106" style="fill:context-stroke;fill-rule:evenodd;stroke:none" transform="scale(.7)"/></marker><marker id="ag" markerHeight="1" markerWidth="1" orient="auto-start-reverse" preserveAspectRatio="xMidYMid" refX="0" refY="0" style="overflow:visible" viewBox="0 0 1 1"><path d="M-.211-4.106 6.21-.894a1 1 90 0 1 0 1.788L-.21 4.106A1.236 1.236 31.717 0 1-2 3v-6A1.236 1.236 148.283 0 1-.211-4.106" style="fill:context-stroke;fill-rule:evenodd;stroke:none" transform="scale(.7)"/></marker><marker id="ai" markerHeight="1" markerWidth="1" orient="auto-start-reverse" preserveAspectRatio="xMidYMid" refX="0" refY="0" style="overflow:visible" viewBox="0 0 1 1"><path d="M-.211-4.106 6.21-.894a1 1 90 0 1 0 1.788L-.21 4.106A1.236 1.236 31.717 0 1-2 3v-6A1.236 1.236 148.283 0 1-.211-4.106" style="fill:context-stroke;fill-rule:evenodd;stroke:none" transform="scale(.7)"/></marker><marker id="aj" markerHeight="1" markerWidth="1" orient="auto-start-reverse" preserveAspectRatio="xMidYMid" refX="0" refY="0" style="overflow:visible" viewBox="0 0 1 1"><path d="M-.211-4.106 6.21-.894a1 1 90 0 1 0 1.788L-.21 4.106A1.236 1.236 31.717 0 1-2 3v-6A1.236 1.236 148.283 0 1-.211-4.106" style="fill:context-stroke;fill-rule:evenodd;stroke:none" transform="scale(.7)"/></marker><marker id="ak" markerHeight="1" markerWidth="1" orient="auto-start-reverse" preserveAspectRatio="xMidYMid" refX="0" refY="0" style="overflow:visible" viewBox="0 0 1 1"><path d="M-.211-4.106 6.21-.894a1 1 90 0 1 0 1.788L-.21 4.106A1.236 1.236 31.717 0 1-2 3v-6A1.236 1.236 148.283 0 1-.211-4.106" style="fill:context-stroke;fill-rule:evenodd;stroke:none" transform="scale(.7)"/></marker><marker id="al" markerHeight="1" markerWidth="1" orient="auto-start-reverse" preserveAspectRatio="xMidYMid" refX="0" refY="0" style="overflow:visible" viewBox="0 0 1 1"><path d="M-.211-4.106 6.21-.894a1 1 90 0 1 0 1.788L-.21 4.106A1.236 1.236 31.717 0 1-2 3v-6A1.236 1.236 148.283 0 1-.211-4.106" style="fill:context-stroke;fill-rule:evenodd;stroke:none" transform="scale(.7)"/></marker><marker id="am" markerHeight="1" markerWidth="1" orient="auto-start-reverse" preserveAspectRatio="xMidYMid" refX="0" refY="0" style="overflow:visible" viewBox="0 0 1 1"><path d="M-.211-4.106 6.21-.894a1 1 90 0 1 0 1.788L-.21 4.106A1.236 1.236 31.717 0 1-2 3v-6A1.236 1.236 148.283 0 1-.211-4.106" style="fill:context-stroke;fill-rule:evenodd;stroke:none" transform="scale(.7)"/></marker><marker id="an" markerHeight="1" markerWidth="1" orient="auto-start-reverse" preserveAspectRatio="xMidYMid" refX="0" refY="0" style="overflow:visible" viewBox="0 0 1 1"><path d="M-.211-4.106 6.21-.894a1 1 90 0 1 0 1.788L-.21 4.106A1.236 1.236 31.717 0 1-2 3v-6A1.236 1.236 148.283 0 1-.211-4.106" style="fill:context-stroke;fill-rule:evenodd;stroke:none" transform="scale(.7)"/></marker><marker id="ap" markerHeight="1" markerWidth="1" orient="auto-start-reverse" preserveAspectRatio="xMidYMid" refX="0" refY="0" style="overflow:visible" viewBox="0 0 1 1"><path d="M-.211-4.106 6.21-.894a1 1 90 0 1 0 1.788L-.21 4.106A1.236 1.236 31.717 0 1-2 3v-6A1.236 1.236 148.283 0 1-.211-4.106" style="fill:context-stroke;fill-rule:evenodd;stroke:none" transform="scale(.7)"/></marker><marker id="aq" markerHeight="1" markerWidth="1" orient="auto-start-reverse" preserveAspectRatio="xMidYMid" refX="0" refY="0" style="overflow:visible" viewBox="0 0 1 1"><path d="M-.211-4.106 6.21-.894a1 1 90 0 1 0 1.788L-.21 4.106A1.236 1.236 31.717 0 1-2 3v-6A1.236 1.236 148.283 0 1-.211-4.106" style="fill:context-stroke;fill-rule:evenodd;stroke:none" transform="scale(.7)"/></marker><marker id="ar" markerHeight="1" markerWidth="1" orient="auto-start-reverse" preserveAspectRatio="xMidYMid" refX="0" refY="0" style="overflow:visible" viewBox="0 0 1 1"><path d="M-.211-4.106 6.21-.894a1 1 90 0 1 0 1.788L-.21 4.106A1.236 1.236 31.717 0 1-2 3v-6A1.236 1.236 148.283 0 1-.211-4.106" style="fill:context-stroke;fill-rule:evenodd;stroke:none" transform="scale(.7)"/></marker></defs><text xml:space="preserve" style="font-size:14.6667px;line-height:1.25;font-family:sans-serif;white-space:pre;shape-inside:url(#a);display:inline" transform="scale(.26458)"><tspan x="12.305" y="25.703">myPartJ.svg</tspan></text><path d="M12.796 39.688h135.595v83.711H12.796z" style="fill:#fff;stroke:#fff;stroke-width:.264583;stroke-linejoin:bevel"/><path d="M48.324 66.093h53.816v40.359H48.324z" style="fill:#fff;stroke:#1a1a1a;stroke-width:.264583;stroke-linejoin:bevel"/><path d="M56.226 77.56h16.275v16.816H56.226z" style="fill:#fff;stroke:#1a1a1a;stroke-width:.264583;stroke-linejoin:bevel"/><path d="M82.572 94.376h8.063L86.604 77.56l-4.032 16.816" style="fill:none;stroke:#000;stroke-width:.264583px;stroke-linecap:butt;stroke-linejoin:miter;stroke-opacity:1"/><path d="m64.364 93.89 7.668-7.922v-7.923h-7.668l-7.668 7.923v7.923h7.668" style="fill:none;stroke:#f4d7d7;stroke-width:.264583px;stroke-linecap:butt;stroke-linejoin:miter;stroke-opacity:1"/><path d="M102.14 66.093h9.886m-9.886 40.359h9.886" style="fill:none;stroke:#b3b3b3;stroke-width:.264583px;stroke-linecap:butt;stroke-linejoin:miter;stroke-opacity:1"/><path d="m112.026 67.76.132 37.29" style="fill:none;stroke:#000;stroke-width:.264583px;stroke-linecap:butt;stroke-linejoin:miter;stroke-opacity:1;marker-start:url(#b);marker-end:url(#c)"/><path d="M48.324 66.093v-9.886m53.684 10.018V56.34" style="fill:none;stroke:#b3b3b3;stroke-width:.264583px;stroke-linecap:butt;stroke-linejoin:miter;stroke-opacity:1"/><path d="m49.804 56.273 50.818-.132" style="fill:none;stroke:#000;stroke-width:.264583px;stroke-linecap:butt;stroke-linejoin:miter;stroke-opacity:1;marker-start:url(#d);marker-end:url(#e)"/><path d="M40.554 77.56h15.54m-15.54 16.816h15.54" style="fill:none;stroke:#b3b3b3;stroke-width:.264583px;stroke-linecap:butt;stroke-linejoin:miter;stroke-opacity:1"/><path d="m40.488 78.945.132 14.37" style="fill:none;stroke:#000;stroke-width:.264583px;stroke-linecap:butt;stroke-linejoin:miter;stroke-opacity:1;marker-start:url(#f);marker-end:url(#g)"/><path d="M56.226 110.049v-15.54m16.276 15.407v-15.54" style="fill:none;stroke:#b3b3b3;stroke-width:.264583px;stroke-linecap:butt;stroke-linejoin:miter;stroke-opacity:1"/><path d="m57.6 110.115 13.792-.133" style="fill:none;stroke:#000;stroke-width:.264583px;stroke-linecap:butt;stroke-linejoin:miter;stroke-opacity:1;marker-start:url(#h);marker-end:url(#i)"/><text xml:space="preserve" style="font-style:italic;font-variant:normal;font-weight:400;font-stretch:normal;font-size:14.6667px;line-height:1.25;font-family:Arial;-inkscape-font-specification:&quot;Arial Italic&quot;;white-space:pre;shape-inside:url(#j);display:inline" transform="translate(56.605 19)scale(.26458)"><tspan x="34.141" y="138.583">see Face2</tspan></text><text xml:space="preserve" style="font-style:italic;font-variant:normal;font-weight:400;font-stretch:normal;font-size:14.6667px;line-height:1.25;font-family:Arial;-inkscape-font-specification:&quot;Arial Italic&quot;;white-space:pre;shape-inside:url(#k);display:inline" transform="translate(96.646 -12.94)scale(.26458)"><tspan x="61.598" y="381.667">see Face3</tspan></text><text xml:space="preserve" style="font-size:14.6667px;line-height:1.25;font-family:sans-serif;white-space:pre;shape-inside:url(#l);display:inline" transform="translate(-18.085 -20.119)scale(.26458)"><tspan x="182.436" y="407.893">F1H2</tspan></text><text xml:space="preserve" style="font-size:14.6667px;line-height:1.25;font-family:sans-serif;white-space:pre;shape-inside:url(#m);display:inline" transform="translate(25.734 11.14)scale(.26458)"><tspan x="128.582" y="387.504">F1L2</tspan></text><path d="M82.444 110.049v-15.54m8.226 15.54v-15.54" style="fill:none;stroke:#b3b3b3;stroke-width:.264583px;stroke-linecap:butt;stroke-linejoin:miter;stroke-opacity:1"/><path d="m83.858 110.115 5.398-.133" style="fill:none;stroke:#000;stroke-width:.264583px;stroke-linecap:butt;stroke-linejoin:miter;stroke-opacity:1;marker-start:url(#n);marker-end:url(#o)"/><text xml:space="preserve" style="font-size:14.6667px;line-height:1.25;font-family:sans-serif;white-space:pre;shape-inside:url(#p);display:inline" transform="translate(47.623 11.786)scale(.26458)"><tspan x="128.582" y="387.504">F1L3</tspan></text><text xml:space="preserve" style="font-size:14.6667px;line-height:1.25;font-family:sans-serif;white-space:pre;shape-inside:url(#q);display:inline;fill:#d45500" transform="translate(9.852 13.705)scale(.26458)"><tspan x="66.174" y="381.434">pointed</tspan></text><text xml:space="preserve" style="font-size:14.6667px;line-height:1.25;font-family:sans-serif;white-space:pre;shape-inside:url(#r);display:inline;fill:#d45500" transform="translate(93.84 -46.825)scale(.26458)"><tspan x="66.174" y="381.434">pointed</tspan></text><path d="m42.712 113.58 3.81-5.52" style="fill:none;stroke:#ff7f2a;stroke-width:.264583px;stroke-linecap:butt;stroke-linejoin:miter;stroke-opacity:1;marker-end:url(#c)"/><text xml:space="preserve" x="29.126" style="font-size:14.6667px;line-height:1.25;font-family:sans-serif;text-align:center;white-space:pre;shape-inside:url(#s);display:inline;fill:#d45500" transform="translate(10.846 19.895)scale(.26458)"><tspan x="37.89" y="153.842">rounded
</tspan><tspan x="49.703" y="172.175">F1R1</tspan></text><path d="m33.56 63.837 13.077 2.1" style="fill:none;stroke:#ff7f2a;stroke-width:.264583px;stroke-linecap:butt;stroke-linejoin:miter;stroke-opacity:1;marker-end:url(#c)"/><path d="m114.153 54.97-10.144 9.421" style="fill:none;stroke:#ff7f2a;stroke-width:.264583px;stroke-linecap:butt;stroke-linejoin:miter;stroke-opacity:1;marker-end:url(#t)"/><text xml:space="preserve" x="29.126" style="font-size:14.6667px;line-height:1.25;font-family:sans-serif;text-align:center;white-space:pre;shape-inside:url(#u);display:inline;fill:#d45500" transform="translate(90.952 76.083)scale(.26458)"><tspan x="37.89" y="153.842">rounded
</tspan><tspan x="49.703" y="172.175">F1R2</tspan></text><path d="m107.27 113.688-3.81-5.52" style="fill:none;stroke:#ff7f2a;stroke-width:.264583px;stroke-linecap:butt;stroke-linejoin:miter;stroke-opacity:1;marker-end:url(#v)"/><text xml:space="preserve" x="29.126" style="font-size:14.6667px;line-height:1.25;font-family:sans-serif;text-align:center;white-space:pre;shape-inside:url(#w);display:inline;fill:#d45500" transform="translate(39.145 3.867)scale(.26458)"><tspan x="37.89" y="153.842">rounded
</tspan><tspan x="49.703" y="172.175">F1R3</tspan></text><path d="m57.006 51.435-.388 23.815" style="fill:none;stroke:#ff7f2a;stroke-width:.264583px;stroke-linecap:butt;stroke-linejoin:miter;stroke-opacity:1;marker-end:url(#x)"/><path d="M59.404 51.715c19.804 12.193 22.393 41.561 14.978 42.197" style="fill:none;stroke:#ff7f2a;stroke-width:.264583px;stroke-linecap:butt;stroke-linejoin:miter;stroke-opacity:1;marker-end:url(#y)"/><text xml:space="preserve" x="30.042" style="font-size:14.6667px;line-height:1.25;font-family:sans-serif;text-align:center;white-space:pre;shape-inside:url(#z);display:inline;fill:purple" transform="translate(-29.05 -24.65)scale(.26458)"><tspan x="164.622" y="464.482">widened
</tspan><tspan x="176.994" y="482.816">F1R4</tspan></text><path d="M28.081 101.605 54.15 95.62" style="fill:none;stroke:purple;stroke-width:.264583px;stroke-linecap:butt;stroke-linejoin:miter;stroke-opacity:1;marker-end:url(#A)"/><path d="M23.185 94.702c5.43-26.256 45.939-33.42 48.058-19.69" style="fill:none;stroke:purple;stroke-width:.264583px;stroke-linecap:butt;stroke-linejoin:miter;stroke-opacity:1;marker-end:url(#B)"/><text xml:space="preserve" style="font-size:14.6667px;line-height:1.25;font-family:sans-serif;white-space:pre;shape-inside:url(#C);display:inline;fill:purple" transform="translate(7.51 12.79)scale(.26458)"><tspan x="451.797" y="183.406">F1CS:
</tspan><tspan x="451.797" y="201.74">- pointed
</tspan><tspan x="451.797" y="220.073">- rounded
</tspan><tspan x="451.797" y="238.406">- widened
</tspan><tspan x="451.797" y="256.74">- wideAcc</tspan></text><path d="M125.103 60.688c-12.287 1.995-25.138 6.32-36.875 15.427" style="fill:none;stroke:purple;stroke-width:.264583px;stroke-linecap:butt;stroke-linejoin:miter;stroke-opacity:1;marker-end:url(#D)"/><text xml:space="preserve" style="font-size:14.6667px;line-height:1.25;font-family:sans-serif;white-space:pre;shape-inside:url(#E);display:inline;fill:purple" transform="translate(1.604 19.769)scale(.26458)"><tspan x="305.621" y="95.195">F1R5</tspan></text><path d="m84.783 46.326 1.236 29.235" style="fill:none;stroke:purple;stroke-width:.264583px;stroke-linecap:butt;stroke-linejoin:miter;stroke-opacity:1;marker-end:url(#F)"/><text xml:space="preserve" style="font-size:14.6667px;line-height:1.25;font-family:sans-serif;white-space:pre;shape-inside:url(#G);display:inline" transform="translate(19.482 -154.8)scale(.26458)"><tspan x="72.881" y="691.24">myPartF_corners.svg</tspan></text><text xml:space="preserve" style="font-size:14.6667px;line-height:1.25;font-family:sans-serif;white-space:pre;shape-inside:url(#H);display:inline" transform="scale(.26458)"><tspan x="195.613" y="567.578">myPartG_transforms.svg</tspan></text><text xml:space="preserve" style="font-size:14.6667px;line-height:1.25;font-family:sans-serif;white-space:pre;shape-inside:url(#I);display:inline" transform="translate(7.66 65.424)scale(.26458)"><tspan x="179.482" y="910.01">myPartI_face.svg</tspan></text><path d="M28.623 155.793h110.64V270.82H28.623z" style="fill:#fff;stroke:#fff;stroke-width:.264582;stroke-linejoin:bevel"/><path d="m53.11 212.719 4.674 17.6h-9.346z" style="fill:none;stroke:#000;stroke-width:.264583px;stroke-linecap:butt;stroke-linejoin:miter;stroke-opacity:1"/><path d="M48.438 230.319v10.843m9.346-10.843v10.843m-20.322-10.711h10.843m-10.843-17.732H53.11" style="fill:none;stroke:#ccc;stroke-width:.264583px;stroke-linecap:butt;stroke-linejoin:miter;stroke-opacity:1"/><path d="M49.823 241.162h6.919" style="fill:none;stroke:#000;stroke-width:.264583px;stroke-linecap:butt;stroke-linejoin:miter;stroke-opacity:1;marker-start:url(#J);marker-end:url(#J)"/><path d="M41.695 229.006V213.88" style="fill:none;stroke:#000;stroke-width:.264583px;stroke-linecap:butt;stroke-linejoin:miter;stroke-opacity:1;marker-start:url(#K);marker-end:url(#K)"/><text xml:space="preserve" style="font-size:14.6667px;line-height:1.25;font-family:sans-serif;white-space:pre;shape-inside:url(#L);display:inline" transform="translate(19.388 142.347)scale(.26458)"><tspan x="113.008" y="391.799">F2A</tspan></text><text xml:space="preserve" style="font-size:14.6667px;line-height:1.25;font-family:sans-serif;white-space:pre;shape-inside:url(#M);display:inline" transform="translate(23.523 121.836)scale(.26458)"><tspan x="40.369" y="379.135">F2B</tspan></text><text xml:space="preserve" x="29.126" style="font-size:14.6667px;line-height:1.25;font-family:sans-serif;text-align:center;white-space:pre;shape-inside:url(#N);display:inline" transform="translate(16.183 144.283)scale(.26458)"><tspan x="67.664" y="185.891">rounded
</tspan><tspan x="84.143" y="204.224">F2R</tspan></text><path d="m43.6 198.56 8.262 12.37" style="fill:none;stroke:#000;stroke-width:.264583px;stroke-linecap:butt;stroke-linejoin:miter;stroke-opacity:1;marker-end:url(#J)"/><path d="M59.247 241.162h13.41" style="fill:none;stroke:#000;stroke-width:.264582px;stroke-linecap:butt;stroke-linejoin:miter;stroke-opacity:1;marker-start:url(#O);marker-end:url(#O)"/><path d="M74.042 230.319v10.843" style="fill:none;stroke:#ccc;stroke-width:.264583px;stroke-linecap:butt;stroke-linejoin:miter;stroke-opacity:1"/><path d="m80.984 204.374 6.941 25.945H74.042z" style="fill:none;stroke:#000;stroke-width:.264583px;stroke-linecap:butt;stroke-linejoin:miter;stroke-opacity:1"/><text xml:space="preserve" style="font-size:14.6667px;line-height:1.25;font-family:sans-serif;white-space:pre;shape-inside:url(#P);display:inline" transform="translate(15.717 136.527)scale(.26458)"><tspan x="173.771" y="407.787">F2C</tspan></text><path d="M87.925 230.319v10.843" style="fill:none;stroke:#ccc;stroke-width:.264583px;stroke-linecap:butt;stroke-linejoin:miter;stroke-opacity:1"/><path d="M75.267 241.162h11.698" style="fill:none;stroke:#000;stroke-width:.264582px;stroke-linecap:butt;stroke-linejoin:miter;stroke-opacity:1;marker-start:url(#Q);marker-end:url(#Q)"/><text xml:space="preserve" style="font-size:14.6667px;line-height:1.25;font-family:sans-serif;white-space:pre;shape-inside:url(#R);display:inline" transform="translate(12.117 134.776)scale(.26458)"><tspan x="229.264" y="422.408">F2SF1*A</tspan></text><path d="M89.47 241.162h13.41" style="fill:none;stroke:#000;stroke-width:.264582px;stroke-linecap:butt;stroke-linejoin:miter;stroke-opacity:1;marker-start:url(#S);marker-end:url(#S)"/><path d="M104.265 230.319v10.843" style="fill:none;stroke:#ccc;stroke-width:.264583px;stroke-linecap:butt;stroke-linejoin:miter;stroke-opacity:1"/><path d="m111.206 204.374 6.942 25.945h-13.883Z" style="fill:none;stroke:#000;stroke-width:.264583px;stroke-linecap:butt;stroke-linejoin:miter;stroke-opacity:1"/><path d="M118.148 230.319v10.843" style="fill:none;stroke:#ccc;stroke-width:.264583px;stroke-linecap:butt;stroke-linejoin:miter;stroke-opacity:1"/><path d="M105.49 241.162h11.698" style="fill:none;stroke:#000;stroke-width:.264582px;stroke-linecap:butt;stroke-linejoin:miter;stroke-opacity:1;marker-start:url(#T);marker-end:url(#T)"/><text xml:space="preserve" style="font-size:14.6667px;line-height:1.25;font-family:sans-serif;white-space:pre;shape-inside:url(#U);display:inline" transform="translate(45.747 136.527)scale(.26458)"><tspan x="173.771" y="407.787">F2C</tspan></text><text xml:space="preserve" style="font-size:14.6667px;line-height:1.25;font-family:sans-serif;white-space:pre;shape-inside:url(#V);display:inline" transform="translate(42.562 135.305)scale(.26458)"><tspan x="229.264" y="422.408">F2SF1*A</tspan></text><path d="M33.643 241.162h13.41" style="fill:none;stroke:#000;stroke-width:.264582px;stroke-linecap:butt;stroke-linejoin:miter;stroke-opacity:1;marker-start:url(#W);marker-end:url(#W)"/><text xml:space="preserve" style="font-size:14.6667px;line-height:1.25;font-family:sans-serif;white-space:pre;shape-inside:url(#X);display:inline" transform="translate(-8.828 138.115)scale(.26458)"><tspan x="173.771" y="407.787">F2C</tspan></text><path d="M119.693 241.162h13.41" style="fill:none;stroke:#000;stroke-width:.264582px;stroke-linecap:butt;stroke-linejoin:miter;stroke-opacity:1;marker-start:url(#Y);marker-end:url(#Y)"/><text xml:space="preserve" style="font-size:14.6667px;line-height:1.25;font-family:sans-serif;white-space:pre;shape-inside:url(#Z);display:inline" transform="translate(76.692 137.056)scale(.26458)"><tspan x="173.771" y="407.787">F2C</tspan></text><text xml:space="preserve" x="18.108" style="font-size:14.6667px;line-height:1.25;font-family:sans-serif;text-align:center;white-space:pre;shape-inside:url(#aa);display:inline" transform="translate(.47 139.833)scale(.26458)"><tspan x="246.488" y="446.699">scale
</tspan><tspan x="216.804" y="465.033">factor: F2SF1
</tspan><tspan x="201.582" y="483.366">corner not scaled</tspan></text><text xml:space="preserve" x="18.108" style="font-size:14.6667px;line-height:1.25;font-family:sans-serif;text-align:center;white-space:pre;shape-inside:url(#ab);display:inline" transform="translate(35.082 140.281)scale(.26458)"><tspan x="246.488" y="446.699">scale
</tspan><tspan x="216.804" y="465.033">factor: F2SF1
</tspan><tspan x="215.923" y="483.366">corner scaled</tspan></text><path d="M71.468 253.255s-2.784-11.85-3.277-17.894c-.256-3.14-1.4-6.722.174-9.452.81-1.404 4.162-2.514 4.162-2.514" style="fill:none;stroke:#000;stroke-width:.264583px;stroke-linecap:butt;stroke-linejoin:miter;stroke-opacity:1;marker-end:url(#J)"/><path d="M102.166 255.16s-2.784-11.849-3.277-17.893c-.256-3.14-1.4-6.722.174-9.452.809-1.404 4.162-2.514 4.162-2.514" style="fill:none;stroke:#000;stroke-width:.264583px;stroke-linecap:butt;stroke-linejoin:miter;stroke-opacity:1;marker-end:url(#ac)"/><path d="m76.36 178.26-7.156 16.744-7.364-5.755z" style="fill:none;stroke:#000;stroke-width:.264583px;stroke-linecap:butt;stroke-linejoin:miter;stroke-opacity:1"/><text xml:space="preserve" style="font-size:14.6667px;line-height:1.25;font-family:sans-serif;white-space:pre;shape-inside:url(#ad);display:inline" transform="translate(-41.959 130.235)scale(.26458)"><tspan x="347.783" y="118.391">rotate
</tspan><tspan x="347.783" y="136.724">angle: F2Z1</tspan></text><path d="m58.585 168.899 8.261 12.37" style="fill:none;stroke:#000;stroke-width:.264583px;stroke-linecap:butt;stroke-linejoin:miter;stroke-opacity:1;marker-end:url(#ae)"/><path d="M32.523 173.458h101.7v63.093h-101.7z" style="fill:none;stroke:#1a1a1a;stroke-width:.264583;stroke-linejoin:bevel"/><path d="m90.119 178.26 7.157 16.744 7.363-5.755z" style="fill:none;stroke:#000;stroke-width:.264583px;stroke-linecap:butt;stroke-linejoin:miter;stroke-opacity:1"/><text xml:space="preserve" style="font-size:14.6667px;line-height:1.25;font-family:sans-serif;white-space:pre;shape-inside:url(#af);display:inline" transform="translate(10.915 131.311)scale(.26458)"><tspan x="347.783" y="118.391">rotate
</tspan><tspan x="347.783" y="136.724">angle: -F2Z1</tspan></text><path d="m107.59 169.112-8.26 12.37" style="fill:none;stroke:#000;stroke-width:.264583px;stroke-linecap:butt;stroke-linejoin:miter;stroke-opacity:1;marker-end:url(#ag)"/><path d="M23.299 313.785h108.334v95.272H23.299z" style="fill:#fff;stroke:#fff;stroke-width:.264999;stroke-linejoin:bevel"/><text xml:space="preserve" style="font-size:14.6667px;line-height:1.25;font-family:sans-serif;white-space:pre;shape-inside:url(#ah);display:inline" transform="translate(8.17 215.063)scale(.26458)"><tspan x="134.783" y="722.367">F3A</tspan></text><path d="M27.34 335.591h79.375v52.917H27.34z" style="fill:none;stroke:red;stroke-width:.264999;stroke-linejoin:bevel"/><path d="M80.26 375.411v26.922M66.895 375.31v26.923" style="fill:none;stroke:#999;stroke-width:.264583px;stroke-linecap:butt;stroke-linejoin:miter;stroke-opacity:1"/><path d="m67.027 375.279-6.614-26.459h13.23l-6.616 26.459m13.23 0 6.614-26.459 6.615 26.459h-13.23" style="fill:none;stroke:red;stroke-width:.264583px;stroke-linecap:butt;stroke-linejoin:miter;stroke-opacity:1"/><path d="M27.34 335.591h79.375v52.917H27.34v-52.917" style="fill:none;stroke:red;stroke-width:.264583px;stroke-linecap:butt;stroke-linejoin:miter;stroke-opacity:1"/><path d="M40.57 375.279V402.2m13.228-26.921V402.2m39.725-26.789v26.922m13.324-13.693v13.693M27.34 388.64v13.693" style="fill:none;stroke:#999;stroke-width:.264583px;stroke-linecap:butt;stroke-linejoin:miter;stroke-opacity:1"/><path d="m28.865 402.333 10.288-.132" style="fill:none;stroke:#000;stroke-width:.264583px;stroke-linecap:butt;stroke-linejoin:miter;stroke-opacity:1;marker-start:url(#ai);marker-end:url(#ai)"/><path d="m41.954 402.267 10.288-.133" style="fill:none;stroke:#000;stroke-width:.264583px;stroke-linecap:butt;stroke-linejoin:miter;stroke-opacity:1;marker-start:url(#aj);marker-end:url(#aj)"/><path d="m55.183 402.267 10.288-.133" style="fill:none;stroke:#000;stroke-width:.264583px;stroke-linecap:butt;stroke-linejoin:miter;stroke-opacity:1;marker-start:url(#ak);marker-end:url(#ak)"/><path d="m68.28 402.299 10.288-.133" style="fill:none;stroke:#000;stroke-width:.264583px;stroke-linecap:butt;stroke-linejoin:miter;stroke-opacity:1;marker-start:url(#al);marker-end:url(#al)"/><path d="m81.646 402.399 10.287-.132" style="fill:none;stroke:#000;stroke-width:.264583px;stroke-linecap:butt;stroke-linejoin:miter;stroke-opacity:1;marker-start:url(#am);marker-end:url(#am)"/><path d="m95.04 402.399 10.288-.132" style="fill:none;stroke:#000;stroke-width:.264583px;stroke-linecap:butt;stroke-linejoin:miter;stroke-opacity:1;marker-start:url(#an);marker-end:url(#an)"/><text xml:space="preserve" style="font-size:14.6667px;line-height:1.25;font-family:sans-serif;white-space:pre;shape-inside:url(#ao);display:inline" transform="translate(-5.096 214.818)scale(.26458)"><tspan x="134.783" y="722.367">F3A</tspan></text><path d="M106.98 388.64h13.692m-27.017-13.361h26.922m-13.73-39.688h13.693m-33.648 13.197h33.648" style="fill:none;stroke:#999;stroke-width:.264583px;stroke-linecap:butt;stroke-linejoin:miter;stroke-opacity:1"/><path d="m120.738 387.255-.132-10.288" style="fill:none;stroke:#000;stroke-width:.264583px;stroke-linecap:butt;stroke-linejoin:miter;stroke-opacity:1;marker-start:url(#ap);marker-end:url(#ap)"/><path d="m120.606 347.403-.132-10.288" style="fill:none;stroke:#000;stroke-width:.264583px;stroke-linecap:butt;stroke-linejoin:miter;stroke-opacity:1;marker-start:url(#aq);marker-end:url(#aq)"/><path d="m120.643 373.887-.132-23.972" style="fill:none;stroke:#000;stroke-width:.264583px;stroke-linecap:butt;stroke-linejoin:miter;stroke-opacity:1;marker-start:url(#ar);marker-end:url(#ar)"/><text xml:space="preserve" style="font-size:14.6667px;line-height:1.25;font-family:sans-serif;white-space:pre;shape-inside:url(#as);display:inline" transform="translate(-5.17 227.443)scale(.26458)"><tspan x="479.871" y="590.104">F3B</tspan></text><text xml:space="preserve" style="font-size:14.6667px;line-height:1.25;font-family:sans-serif;white-space:pre;shape-inside:url(#at);display:inline" transform="translate(-5.605 186.93)scale(.26458)"><tspan x="479.871" y="590.104">F3B</tspan></text><text xml:space="preserve" style="font-size:14.6667px;line-height:1.25;font-family:sans-serif;white-space:pre;shape-inside:url(#au);display:inline" transform="translate(-5.379 207.1)scale(.26458)"><tspan x="479.871" y="590.104">2*F3B</tspan></text><text xml:space="preserve" x="57.56" style="font-size:14.6667px;line-height:1.25;font-family:sans-serif;text-align:center;white-space:pre;shape-inside:url(#av);display:inline" transform="translate(-27.512 236.945)scale(.26458)"><tspan x="464.558" y="313.736">Rounded corner
</tspan><tspan x="504.193" y="332.07">F3R1</tspan></text><path d="m107.72 333.57 2.306-8.221" style="fill:none;stroke:#000;stroke-width:.264583px;stroke-linecap:butt;stroke-linejoin:miter;stroke-opacity:1;marker-start:url(#ai)"/><text xml:space="preserve" style="font-size:14.6667px;line-height:1.25;font-family:sans-serif;white-space:pre;shape-inside:url(#aw);display:inline" transform="translate(20.966 214.96)scale(.26458)"><tspan x="134.783" y="722.367">F3A</tspan></text><text xml:space="preserve" style="font-size:14.6667px;line-height:1.25;font-family:sans-serif;white-space:pre;shape-inside:url(#ax);display:inline" transform="translate(34.313 214.852)scale(.26458)"><tspan x="134.783" y="722.367">F3A</tspan></text><text xml:space="preserve" style="font-size:14.6667px;line-height:1.25;font-family:sans-serif;white-space:pre;shape-inside:url(#ay);display:inline" transform="translate(47.622 215.013)scale(.26458)"><tspan x="134.783" y="722.367">F3A</tspan></text><text xml:space="preserve" style="font-size:14.6667px;line-height:1.25;font-family:sans-serif;white-space:pre;shape-inside:url(#az);display:inline" transform="translate(61.038 215.115)scale(.26458)"><tspan x="134.783" y="722.367">F3A</tspan></text><path d="M40.57 375.279h13.228l-6.614-26.459-6.615 26.459" style="fill:none;stroke:red;stroke-width:.26458333;stroke-linecap:butt;stroke-linejoin:miter;stroke-opacity:1"/></svg>