<svg xmlns="http://www.w3.org/2000/svg" width="201" height="201" viewBox="0 0 53.181 53.181"><defs><marker id="a" markerHeight="1" markerWidth="1" orient="auto-start-reverse" preserveAspectRatio="xMidYMid" refX="0" refY="0" style="overflow:visible" viewBox="0 0 1 1"><path d="M-.211-4.106 6.21-.894a1 1 90 0 1 0 1.788L-.21 4.106A1.236 1.236 31.717 0 1-2 3v-6A1.236 1.236 148.283 0 1-.211-4.106" style="fill:context-stroke;fill-rule:evenodd;stroke:none" transform="scale(0.7)"/></marker><marker id="b" markerHeight="1" markerWidth="1" orient="auto-start-reverse" preserveAspectRatio="xMidYMid" refX="0" refY="0" style="overflow:visible" viewBox="0 0 1 1"><path d="M-.211-4.106 6.21-.894a1 1 90 0 1 0 1.788L-.21 4.106A1.236 1.236 31.717 0 1-2 3v-6A1.236 1.236 148.283 0 1-.211-4.106" style="fill:context-stroke;fill-rule:evenodd;stroke:none" transform="scale(0.7)"/></marker><marker id="d" markerHeight="1" markerWidth="1" orient="auto-start-reverse" preserveAspectRatio="xMidYMid" refX="0" refY="0" style="overflow:visible" viewBox="0 0 1 1"><path d="M-.211-4.106 6.21-.894a1 1 90 0 1 0 1.788L-.21 4.106A1.236 1.236 31.717 0 1-2 3v-6A1.236 1.236 148.283 0 1-.211-4.106" style="fill:context-stroke;fill-rule:evenodd;stroke:none" transform="scale(0.7)"/></marker><marker id="f" markerHeight="1" markerWidth="1" orient="auto-start-reverse" preserveAspectRatio="xMidYMid" refX="0" refY="0" style="overflow:visible" viewBox="0 0 1 1"><path d="M-.211-4.106 6.21-.894a1 1 90 0 1 0 1.788L-.21 4.106A1.236 1.236 31.717 0 1-2 3v-6A1.236 1.236 148.283 0 1-.211-4.106" style="fill:context-stroke;fill-rule:evenodd;stroke:none" transform="scale(0.7)"/></marker><path id="g" d="M271.51 404.17h89.243v52.991H271.51z"/><path id="e" d="M157.023 409.573h66.286v49.544h-66.286z"/><path id="c" d="M285.539 377.868h74.668v42.354h-74.668z"/></defs><path d="M72.307 31.076h52.917v52.917H72.307z" style="fill:#fff;stroke:#fff;stroke-width:.264583;stroke-linejoin:bevel" transform="translate(-72.174347,-30.94388)"/><path d="M83.984 40.818h32.085v28.189H83.984z" style="fill:none;stroke:#666;stroke-width:.264583;stroke-linejoin:bevel" transform="translate(-72.174347,-30.94388)"/><path d="M83.984 44.682h32.085v20.461H83.984z" style="fill:none;stroke:#666;stroke-width:.264583;stroke-linejoin:bevel" transform="translate(-72.174347,-30.94388)"/><path d="M91.025 70.392v5.344" style="fill:none;stroke:#000;stroke-width:.264583px;stroke-linecap:butt;stroke-linejoin:miter;stroke-opacity:1;marker-start:url(#a)" transform="translate(-72.174347,-30.94388)"/><path d="M91.025 63.776v-5.343" style="fill:none;stroke:#000;stroke-width:.264583px;stroke-linecap:butt;stroke-linejoin:miter;stroke-opacity:1;marker-start:url(#b)" transform="translate(-72.174347,-30.94388)"/><text xml:space="preserve" style="font-size:14.6667px;line-height:1.25;font-family:sans-serif;white-space:pre;shape-inside:url(#c)" transform="translate(-72.174347,-30.94388) matrix(0.26458333,0,0,0.26458333,13.004736,-24.143853)"><tspan x="285.539" y="390.844">E1</tspan></text><path d="M81.206 41.921v25.983" style="fill:none;stroke:#000;stroke-width:.264583px;stroke-linecap:butt;stroke-linejoin:miter;stroke-opacity:1;marker-start:url(#d);marker-end:url(#d)" transform="translate(-72.174347,-30.94388)"/><text xml:space="preserve" style="font-size:14.6667px;line-height:1.25;font-family:sans-serif;white-space:pre;shape-inside:url(#e)" transform="translate(-72.174347,-30.94388) matrix(0.26458333,0,0,0.26458333,33.71875,-55.045898)"><tspan x="157.023" y="422.549">D1</tspan></text><path d="M84.95 38.7h30.153" style="fill:none;stroke:#000;stroke-width:.264583px;stroke-linecap:butt;stroke-linejoin:miter;stroke-opacity:1;marker-start:url(#f);marker-end:url(#f)" transform="translate(-72.174347,-30.94388)"/><text xml:space="preserve" style="font-size:14.6667px;line-height:1.25;font-family:sans-serif;white-space:pre;shape-inside:url(#g)" transform="translate(-72.174347,-30.94388) matrix(0.26458333,0,0,0.26458333,24.926758,-72.831054)"><tspan x="271.51" y="417.147">L1</tspan></text></svg>