<svg xmlns="http://www.w3.org/2000/svg" width="231.012" height="269.918" viewBox="0 0 61.122 71.416"><defs><path id="e" d="M19.488 531.805h65.049v35.286H19.488z"/><path id="d" d="M32.937 491.281h51.026v34.278H32.937z"/><path id="c" d="M25.384 373.823h87.755v53.73H25.384z"/><marker id="a" markerHeight="1" markerWidth="1" orient="auto-start-reverse" preserveAspectRatio="xMidYMid" refX="0" refY="0" style="overflow:visible" viewBox="0 0 1 1"><path d="M-.211-4.106 6.21-.894a1 1 90 0 1 0 1.788L-.21 4.106A1.236 1.236 31.717 0 1-2 3v-6A1.236 1.236 148.283 0 1-.211-4.106" style="fill:context-stroke;fill-rule:evenodd;stroke:none" transform="scale(.7)"/></marker><marker id="b" markerHeight="1" markerWidth="1" orient="auto-start-reverse" preserveAspectRatio="xMidYMid" refX="0" refY="0" style="overflow:visible" viewBox="0 0 1 1"><path d="M-.211-4.106 6.21-.894a1 1 90 0 1 0 1.788L-.21 4.106A1.236 1.236 31.717 0 1-2 3v-6A1.236 1.236 148.283 0 1-.211-4.106" style="fill:context-stroke;fill-rule:evenodd;stroke:none" transform="scale(.7)"/></marker></defs><g transform="translate(-34.95 -71.532)"><path d="M35.082 71.664h60.857v71.151H35.082z" style="fill:#fff;stroke:#fff;stroke-width:.264583;stroke-linejoin:bevel"/><circle cx="66.108" cy="105.8" r="13.746" style="fill:none;stroke:#ccc;stroke-width:.264583;stroke-linejoin:bevel"/><circle cx="66.108" cy="105.8" r="23.881" style="fill:none;stroke:#ccc;stroke-width:.264583;stroke-linejoin:bevel"/><path d="m66.24 81.787 6.661 12.073 5.016-8.817v13.72l8.82-4.903-6.885 11.675m0 0 10.137.265M66.24 81.787l-.132 10.267M42.36 105.665l12.073-6.66-8.817-5.016h13.72l-4.903-8.82 11.675 6.885M42.228 105.8h10.134m13.612 23.748-6.66-12.072-5.016 8.816v-13.72l-8.821 4.904 6.885-11.676m13.744 13.482-.132 10.266m23.883-23.613-12.073 6.66 8.816 5.016H72.881l4.903 8.82-11.676-6.885" style="fill:none;stroke:#000;stroke-width:.264583px;stroke-linecap:butt;stroke-linejoin:miter;stroke-opacity:1"/><path d="M52.362 105.751v28.071m27.49-28.287v28.071M89.99 105.8v34.382m-47.63-34.25v34.382" style="fill:none;stroke:#ccc;stroke-width:.264583px;stroke-linecap:butt;stroke-linejoin:miter;stroke-opacity:1"/><path d="m53.527 134.351 25.16-.216" style="fill:none;stroke:#000;stroke-width:.264583px;stroke-linecap:butt;stroke-linejoin:miter;stroke-opacity:1;marker-start:url(#a);marker-end:url(#a)"/><path d="m43.607 140.29 44.997-.216" style="fill:none;stroke:#000;stroke-width:.264582px;stroke-linecap:butt;stroke-linejoin:miter;stroke-opacity:1;marker-start:url(#b);marker-end:url(#b)"/><path d="M44.075 91.06 40.16 78.65l12.06 5.237" style="fill:none;stroke:#000;stroke-width:.264583px;stroke-linecap:butt;stroke-linejoin:miter;stroke-opacity:1;marker-start:url(#a);marker-end:url(#a)"/><text xml:space="preserve" style="font-size:14.6667px;line-height:1.25;font-family:sans-serif;white-space:pre;shape-inside:url(#c);display:inline" transform="translate(30.126 -24.324)scale(.26458)"><tspan x="25.385" y="386.799">N2</tspan></text><text xml:space="preserve" style="font-size:14.6667px;line-height:1.25;font-family:sans-serif;white-space:pre;shape-inside:url(#d);display:inline" transform="translate(54.798 .264)scale(.26458)"><tspan x="32.938" y="504.258">D1</tspan></text><text xml:space="preserve" style="font-size:14.6667px;line-height:1.25;font-family:sans-serif;white-space:pre;shape-inside:url(#e);display:inline" transform="translate(58.398 -4.495)scale(.26458)"><tspan x="19.488" y="544.781">D2</tspan></text></g></svg>