<svg xmlns="http://www.w3.org/2000/svg" width="513.484" height="317.388" viewBox="0 0 135.859 83.976"><defs><marker id="a" markerHeight="1" markerWidth="1" orient="auto-start-reverse" preserveAspectRatio="xMidYMid" refX="0" refY="0" style="overflow:visible" viewBox="0 0 1 1"><path d="M-.211-4.106 6.21-.894a1 1 90 0 1 0 1.788L-.21 4.106A1.236 1.236 31.717 0 1-2 3v-6A1.236 1.236 148.283 0 1-.211-4.106" style="fill:context-stroke;fill-rule:evenodd;stroke:none" transform="scale(.7)"/></marker><marker id="b" markerHeight="1" markerWidth="1" orient="auto-start-reverse" preserveAspectRatio="xMidYMid" refX="0" refY="0" style="overflow:visible" viewBox="0 0 1 1"><path d="M-.211-4.106 6.21-.894a1 1 90 0 1 0 1.788L-.21 4.106A1.236 1.236 31.717 0 1-2 3v-6A1.236 1.236 148.283 0 1-.211-4.106" style="fill:context-stroke;fill-rule:evenodd;stroke:none" transform="scale(.7)"/></marker><marker id="c" markerHeight="1" markerWidth="1" orient="auto-start-reverse" preserveAspectRatio="xMidYMid" refX="0" refY="0" style="overflow:visible" viewBox="0 0 1 1"><path d="M-.211-4.106 6.21-.894a1 1 90 0 1 0 1.788L-.21 4.106A1.236 1.236 31.717 0 1-2 3v-6A1.236 1.236 148.283 0 1-.211-4.106" style="fill:context-stroke;fill-rule:evenodd;stroke:none" transform="scale(.7)"/></marker><marker id="d" markerHeight="1" markerWidth="1" orient="auto-start-reverse" preserveAspectRatio="xMidYMid" refX="0" refY="0" style="overflow:visible" viewBox="0 0 1 1"><path d="M-.211-4.106 6.21-.894a1 1 90 0 1 0 1.788L-.21 4.106A1.236 1.236 31.717 0 1-2 3v-6A1.236 1.236 148.283 0 1-.211-4.106" style="fill:context-stroke;fill-rule:evenodd;stroke:none" transform="scale(.7)"/></marker><marker id="e" markerHeight="1" markerWidth="1" orient="auto-start-reverse" preserveAspectRatio="xMidYMid" refX="0" refY="0" style="overflow:visible" viewBox="0 0 1 1"><path d="M-.211-4.106 6.21-.894a1 1 90 0 1 0 1.788L-.21 4.106A1.236 1.236 31.717 0 1-2 3v-6A1.236 1.236 148.283 0 1-.211-4.106" style="fill:context-stroke;fill-rule:evenodd;stroke:none" transform="scale(.7)"/></marker><marker id="f" markerHeight="1" markerWidth="1" orient="auto-start-reverse" preserveAspectRatio="xMidYMid" refX="0" refY="0" style="overflow:visible" viewBox="0 0 1 1"><path d="M-.211-4.106 6.21-.894a1 1 90 0 1 0 1.788L-.21 4.106A1.236 1.236 31.717 0 1-2 3v-6A1.236 1.236 148.283 0 1-.211-4.106" style="fill:context-stroke;fill-rule:evenodd;stroke:none" transform="scale(.7)"/></marker><marker id="g" markerHeight="1" markerWidth="1" orient="auto-start-reverse" preserveAspectRatio="xMidYMid" refX="0" refY="0" style="overflow:visible" viewBox="0 0 1 1"><path d="M-.211-4.106 6.21-.894a1 1 90 0 1 0 1.788L-.21 4.106A1.236 1.236 31.717 0 1-2 3v-6A1.236 1.236 148.283 0 1-.211-4.106" style="fill:context-stroke;fill-rule:evenodd;stroke:none" transform="scale(.7)"/></marker><marker id="h" markerHeight="1" markerWidth="1" orient="auto-start-reverse" preserveAspectRatio="xMidYMid" refX="0" refY="0" style="overflow:visible" viewBox="0 0 1 1"><path d="M-.211-4.106 6.21-.894a1 1 90 0 1 0 1.788L-.21 4.106A1.236 1.236 31.717 0 1-2 3v-6A1.236 1.236 148.283 0 1-.211-4.106" style="fill:context-stroke;fill-rule:evenodd;stroke:none" transform="scale(.7)"/></marker><marker id="m" markerHeight="1" markerWidth="1" orient="auto-start-reverse" preserveAspectRatio="xMidYMid" refX="0" refY="0" style="overflow:visible" viewBox="0 0 1 1"><path d="M-.211-4.106 6.21-.894a1 1 90 0 1 0 1.788L-.21 4.106A1.236 1.236 31.717 0 1-2 3v-6A1.236 1.236 148.283 0 1-.211-4.106" style="fill:context-stroke;fill-rule:evenodd;stroke:none" transform="scale(.7)"/></marker><marker id="n" markerHeight="1" markerWidth="1" orient="auto-start-reverse" preserveAspectRatio="xMidYMid" refX="0" refY="0" style="overflow:visible" viewBox="0 0 1 1"><path d="M-.211-4.106 6.21-.894a1 1 90 0 1 0 1.788L-.21 4.106A1.236 1.236 31.717 0 1-2 3v-6A1.236 1.236 148.283 0 1-.211-4.106" style="fill:context-stroke;fill-rule:evenodd;stroke:none" transform="scale(.7)"/></marker><marker id="s" markerHeight="1" markerWidth="1" orient="auto-start-reverse" preserveAspectRatio="xMidYMid" refX="0" refY="0" style="overflow:visible" viewBox="0 0 1 1"><path d="M-.211-4.106 6.21-.894a1 1 90 0 1 0 1.788L-.21 4.106A1.236 1.236 31.717 0 1-2 3v-6A1.236 1.236 148.283 0 1-.211-4.106" style="fill:context-stroke;fill-rule:evenodd;stroke:none" transform="scale(.7)"/></marker><marker id="u" markerHeight="1" markerWidth="1" orient="auto-start-reverse" preserveAspectRatio="xMidYMid" refX="0" refY="0" style="overflow:visible" viewBox="0 0 1 1"><path d="M-.211-4.106 6.21-.894a1 1 90 0 1 0 1.788L-.21 4.106A1.236 1.236 31.717 0 1-2 3v-6A1.236 1.236 148.283 0 1-.211-4.106" style="fill:context-stroke;fill-rule:evenodd;stroke:none" transform="scale(.7)"/></marker><marker id="w" markerHeight="1" markerWidth="1" orient="auto-start-reverse" preserveAspectRatio="xMidYMid" refX="0" refY="0" style="overflow:visible" viewBox="0 0 1 1"><path d="M-.211-4.106 6.21-.894a1 1 90 0 1 0 1.788L-.21 4.106A1.236 1.236 31.717 0 1-2 3v-6A1.236 1.236 148.283 0 1-.211-4.106" style="fill:context-stroke;fill-rule:evenodd;stroke:none" transform="scale(.7)"/></marker><marker id="x" markerHeight="1" markerWidth="1" orient="auto-start-reverse" preserveAspectRatio="xMidYMid" refX="0" refY="0" style="overflow:visible" viewBox="0 0 1 1"><path d="M-.211-4.106 6.21-.894a1 1 90 0 1 0 1.788L-.21 4.106A1.236 1.236 31.717 0 1-2 3v-6A1.236 1.236 148.283 0 1-.211-4.106" style="fill:context-stroke;fill-rule:evenodd;stroke:none" transform="scale(.7)"/></marker><marker id="z" markerHeight="1" markerWidth="1" orient="auto-start-reverse" preserveAspectRatio="xMidYMid" refX="0" refY="0" style="overflow:visible" viewBox="0 0 1 1"><path d="M-.211-4.106 6.21-.894a1 1 90 0 1 0 1.788L-.21 4.106A1.236 1.236 31.717 0 1-2 3v-6A1.236 1.236 148.283 0 1-.211-4.106" style="fill:context-stroke;fill-rule:evenodd;stroke:none" transform="scale(.7)"/></marker><marker id="A" markerHeight="1" markerWidth="1" orient="auto-start-reverse" preserveAspectRatio="xMidYMid" refX="0" refY="0" style="overflow:visible" viewBox="0 0 1 1"><path d="M-.211-4.106 6.21-.894a1 1 90 0 1 0 1.788L-.21 4.106A1.236 1.236 31.717 0 1-2 3v-6A1.236 1.236 148.283 0 1-.211-4.106" style="fill:context-stroke;fill-rule:evenodd;stroke:none" transform="scale(.7)"/></marker><marker id="C" markerHeight="1" markerWidth="1" orient="auto-start-reverse" preserveAspectRatio="xMidYMid" refX="0" refY="0" style="overflow:visible" viewBox="0 0 1 1"><path d="M-.211-4.106 6.21-.894a1 1 90 0 1 0 1.788L-.21 4.106A1.236 1.236 31.717 0 1-2 3v-6A1.236 1.236 148.283 0 1-.211-4.106" style="fill:context-stroke;fill-rule:evenodd;stroke:none" transform="scale(.7)"/></marker><marker id="E" markerHeight="1" markerWidth="1" orient="auto-start-reverse" preserveAspectRatio="xMidYMid" refX="0" refY="0" style="overflow:visible" viewBox="0 0 1 1"><path d="M-.211-4.106 6.21-.894a1 1 90 0 1 0 1.788L-.21 4.106A1.236 1.236 31.717 0 1-2 3v-6A1.236 1.236 148.283 0 1-.211-4.106" style="fill:context-stroke;fill-rule:evenodd;stroke:none" transform="scale(.7)"/></marker><path id="i" d="M34.141 125.336h77.356v33.489H34.141z"/><path id="j" d="M61.598 368.419h42.042v21.496H61.598z"/><path id="k" d="M182.436 394.916h52.279v32.488h-52.279z"/><path id="l" d="M128.581 374.528H261.39v48.53H128.581z"/><path id="o" d="M128.581 374.528H261.39v48.53H128.581z"/><path id="p" d="M66.173 368.458h150.46v25.397H66.173z"/><path id="q" d="M66.173 368.458h150.46v25.397H66.173z"/><path id="r" d="M21.605 140.865h93.484v40.309H21.605z"/><path id="t" d="M21.605 140.865h93.484v40.309H21.605z"/><path id="v" d="M21.605 140.865h93.484v40.309H21.605z"/><path id="y" d="M88.453 451.506h214.37v58.431H88.453z"/><path id="B" d="M451.797 170.429h107.189v137.528H451.797z"/><path id="D" d="M305.621 82.219h66.681v39.076h-66.681z"/></defs><path d="M12.796 39.688h135.595v83.711H12.796z" style="fill:#fff;stroke:#fff;stroke-width:.264583;stroke-linejoin:bevel" transform="translate(-12.664 -39.555)"/><path d="M48.324 66.093h53.816v40.359H48.324z" style="fill:#fff;stroke:#1a1a1a;stroke-width:.264583;stroke-linejoin:bevel" transform="translate(-12.664 -39.555)"/><path d="M56.226 77.56h16.275v16.816H56.226z" style="fill:#fff;stroke:#1a1a1a;stroke-width:.264583;stroke-linejoin:bevel" transform="translate(-12.664 -39.555)"/><path d="M82.572 94.376h8.063L86.604 77.56l-4.032 16.816" style="fill:none;stroke:#000;stroke-width:.264583px;stroke-linecap:butt;stroke-linejoin:miter;stroke-opacity:1" transform="translate(-12.664 -39.555)"/><path d="m64.364 93.89 7.668-7.922v-7.923h-7.668l-7.668 7.923v7.923h7.668" style="fill:none;stroke:#f4d7d7;stroke-width:.264583px;stroke-linecap:butt;stroke-linejoin:miter;stroke-opacity:1" transform="translate(-12.664 -39.555)"/><path d="M102.14 66.093h9.886m-9.886 40.359h9.886" style="fill:none;stroke:#b3b3b3;stroke-width:.264583px;stroke-linecap:butt;stroke-linejoin:miter;stroke-opacity:1" transform="translate(-12.664 -39.555)"/><path d="m112.026 67.76.132 37.29" style="fill:none;stroke:#000;stroke-width:.264583px;stroke-linecap:butt;stroke-linejoin:miter;stroke-opacity:1;marker-start:url(#a);marker-end:url(#b)" transform="translate(-12.664 -39.555)"/><path d="M48.324 66.093v-9.886m53.684 10.018V56.34" style="fill:none;stroke:#b3b3b3;stroke-width:.264583px;stroke-linecap:butt;stroke-linejoin:miter;stroke-opacity:1" transform="translate(-12.664 -39.555)"/><path d="m49.804 56.273 50.818-.132" style="fill:none;stroke:#000;stroke-width:.264583px;stroke-linecap:butt;stroke-linejoin:miter;stroke-opacity:1;marker-start:url(#c);marker-end:url(#d)" transform="translate(-12.664 -39.555)"/><path d="M40.554 77.56h15.54m-15.54 16.816h15.54" style="fill:none;stroke:#b3b3b3;stroke-width:.264583px;stroke-linecap:butt;stroke-linejoin:miter;stroke-opacity:1" transform="translate(-12.664 -39.555)"/><path d="m40.488 78.945.132 14.37" style="fill:none;stroke:#000;stroke-width:.264583px;stroke-linecap:butt;stroke-linejoin:miter;stroke-opacity:1;marker-start:url(#e);marker-end:url(#f)" transform="translate(-12.664 -39.555)"/><path d="M56.226 110.049v-15.54m16.276 15.407v-15.54" style="fill:none;stroke:#b3b3b3;stroke-width:.264583px;stroke-linecap:butt;stroke-linejoin:miter;stroke-opacity:1" transform="translate(-12.664 -39.555)"/><path d="m57.6 110.115 13.792-.133" style="fill:none;stroke:#000;stroke-width:.264583px;stroke-linecap:butt;stroke-linejoin:miter;stroke-opacity:1;marker-start:url(#g);marker-end:url(#h)" transform="translate(-12.664 -39.555)"/><text xml:space="preserve" style="font-style:italic;font-variant:normal;font-weight:400;font-stretch:normal;font-size:14.6667px;line-height:1.25;font-family:Arial;-inkscape-font-specification:&quot;Arial Italic&quot;;white-space:pre;shape-inside:url(#i);display:inline" transform="translate(43.94 -20.556)scale(.26458)"><tspan x="34.141" y="138.583">see Face2</tspan></text><text xml:space="preserve" style="font-size:14.6667px;line-height:1.25;font-family:sans-serif;white-space:pre;shape-inside:url(#j);display:inline" transform="translate(83.981 -54.084)scale(.26458)"><tspan x="61.598" y="381.397">H1</tspan></text><text xml:space="preserve" style="font-size:14.6667px;line-height:1.25;font-family:sans-serif;white-space:pre;shape-inside:url(#k);display:inline" transform="translate(-30.749 -59.674)scale(.26458)"><tspan x="182.436" y="407.893">F1H2</tspan></text><text xml:space="preserve" style="font-size:14.6667px;line-height:1.25;font-family:sans-serif;white-space:pre;shape-inside:url(#l);display:inline" transform="translate(13.07 -28.415)scale(.26458)"><tspan x="128.582" y="387.504">F1L2</tspan></text><path d="M82.444 110.049v-15.54m8.226 15.54v-15.54" style="fill:none;stroke:#b3b3b3;stroke-width:.264583px;stroke-linecap:butt;stroke-linejoin:miter;stroke-opacity:1" transform="translate(-12.664 -39.555)"/><path d="m83.858 110.115 5.398-.133" style="fill:none;stroke:#000;stroke-width:.264583px;stroke-linecap:butt;stroke-linejoin:miter;stroke-opacity:1;marker-start:url(#m);marker-end:url(#n)" transform="translate(-12.664 -39.555)"/><text xml:space="preserve" style="font-size:14.6667px;line-height:1.25;font-family:sans-serif;white-space:pre;shape-inside:url(#o);display:inline" transform="translate(34.959 -27.769)scale(.26458)"><tspan x="128.582" y="387.504">F1L3</tspan></text><text xml:space="preserve" style="font-size:14.6667px;line-height:1.25;font-family:sans-serif;white-space:pre;shape-inside:url(#p);display:inline;fill:#d45500" transform="translate(-2.813 -25.85)scale(.26458)"><tspan x="66.174" y="381.434">pointed</tspan></text><text xml:space="preserve" style="font-size:14.6667px;line-height:1.25;font-family:sans-serif;white-space:pre;shape-inside:url(#q);display:inline;fill:#d45500" transform="translate(81.175 -86.38)scale(.26458)"><tspan x="66.174" y="381.434">pointed</tspan></text><path d="m42.712 113.58 3.81-5.52" style="fill:none;stroke:#ff7f2a;stroke-width:.264583px;stroke-linecap:butt;stroke-linejoin:miter;stroke-opacity:1;marker-end:url(#b)" transform="translate(-12.664 -39.555)"/><text xml:space="preserve" x="29.126" style="font-size:14.6667px;line-height:1.25;font-family:sans-serif;text-align:center;white-space:pre;shape-inside:url(#r);display:inline;fill:#d45500" transform="translate(-1.818 -19.66)scale(.26458)"><tspan x="37.89" y="153.842">rounded
</tspan><tspan x="49.703" y="172.175">F1R1</tspan></text><path d="m33.56 63.837 13.077 2.1" style="fill:none;stroke:#ff7f2a;stroke-width:.264583px;stroke-linecap:butt;stroke-linejoin:miter;stroke-opacity:1;marker-end:url(#b)" transform="translate(-12.664 -39.555)"/><path d="m114.153 54.97-10.144 9.421" style="fill:none;stroke:#ff7f2a;stroke-width:.264583px;stroke-linecap:butt;stroke-linejoin:miter;stroke-opacity:1;marker-end:url(#s)" transform="translate(-12.664 -39.555)"/><text xml:space="preserve" x="29.126" style="font-size:14.6667px;line-height:1.25;font-family:sans-serif;text-align:center;white-space:pre;shape-inside:url(#t);display:inline;fill:#d45500" transform="translate(78.288 36.527)scale(.26458)"><tspan x="37.89" y="153.842">rounded
</tspan><tspan x="49.703" y="172.175">F1R2</tspan></text><path d="m107.27 113.688-3.81-5.52" style="fill:none;stroke:#ff7f2a;stroke-width:.264583px;stroke-linecap:butt;stroke-linejoin:miter;stroke-opacity:1;marker-end:url(#u)" transform="translate(-12.664 -39.555)"/><text xml:space="preserve" x="29.126" style="font-size:14.6667px;line-height:1.25;font-family:sans-serif;text-align:center;white-space:pre;shape-inside:url(#v);display:inline;fill:#d45500" transform="translate(26.481 -35.688)scale(.26458)"><tspan x="37.89" y="153.842">rounded
</tspan><tspan x="49.703" y="172.175">F1R3</tspan></text><path d="m57.006 51.435-.388 23.815" style="fill:none;stroke:#ff7f2a;stroke-width:.264583px;stroke-linecap:butt;stroke-linejoin:miter;stroke-opacity:1;marker-end:url(#w)" transform="translate(-12.664 -39.555)"/><path d="M59.404 51.715c19.804 12.193 22.393 41.561 14.978 42.197" style="fill:none;stroke:#ff7f2a;stroke-width:.264583px;stroke-linecap:butt;stroke-linejoin:miter;stroke-opacity:1;marker-end:url(#x)" transform="translate(-12.664 -39.555)"/><text xml:space="preserve" x="30.042" style="font-size:14.6667px;line-height:1.25;font-family:sans-serif;text-align:center;white-space:pre;shape-inside:url(#y);display:inline;fill:purple" transform="translate(-41.713 -64.205)scale(.26458)"><tspan x="164.622" y="464.482">widened
</tspan><tspan x="176.994" y="482.816">F1R4</tspan></text><path d="M28.081 101.605 54.15 95.62" style="fill:none;stroke:purple;stroke-width:.264583px;stroke-linecap:butt;stroke-linejoin:miter;stroke-opacity:1;marker-end:url(#z)" transform="translate(-12.664 -39.555)"/><path d="M23.185 94.702c5.43-26.256 45.939-33.42 48.058-19.69" style="fill:none;stroke:purple;stroke-width:.264583px;stroke-linecap:butt;stroke-linejoin:miter;stroke-opacity:1;marker-end:url(#A)" transform="translate(-12.664 -39.555)"/><text xml:space="preserve" style="font-size:14.6667px;line-height:1.25;font-family:sans-serif;white-space:pre;shape-inside:url(#B);display:inline;fill:purple" transform="translate(-5.155 -26.766)scale(.26458)"><tspan x="451.797" y="183.406">F1CS:
</tspan><tspan x="451.797" y="201.74">- pointed
</tspan><tspan x="451.797" y="220.073">- rounded
</tspan><tspan x="451.797" y="238.406">- widened
</tspan><tspan x="451.797" y="256.74">- wideAcc</tspan></text><path d="M125.103 60.688c-12.287 1.995-25.138 6.32-36.875 15.427" style="fill:none;stroke:purple;stroke-width:.264583px;stroke-linecap:butt;stroke-linejoin:miter;stroke-opacity:1;marker-end:url(#C)" transform="translate(-12.664 -39.555)"/><text xml:space="preserve" style="font-size:14.6667px;line-height:1.25;font-family:sans-serif;white-space:pre;shape-inside:url(#D);display:inline;fill:purple" transform="translate(-11.06 -19.787)scale(.26458)"><tspan x="305.621" y="95.195">F1R5</tspan></text><path d="m84.783 46.326 1.236 29.235" style="fill:none;stroke:purple;stroke-width:.264583px;stroke-linecap:butt;stroke-linejoin:miter;stroke-opacity:1;marker-end:url(#E)" transform="translate(-12.664 -39.555)"/></svg>