<svg xmlns="http://www.w3.org/2000/svg" width="600" height="3000" viewBox="0 0 158.75 793.75"><defs><path id="K" d="M135.011 745.733h44.469v34.383h-44.469z"/><path id="B" d="M116.367 88.749h54.364v31.841h-54.364z"/><path id="z" d="M348.144 127.418h49.547v16.895h-49.547z"/><path id="y" d="M311.292 93.167h56.211v23.781h-56.211z"/><path id="x" d="M318.37 136.608h38.258v16.57H318.37z"/><path id="s" d="M364.331 365.45h44.487v23.31h-44.487z"/><path id="n" d="M277.52 359.005h57.998v26.049H277.52z"/><path id="m" d="M162.354 360.869h48.711V387.8h-48.711z"/><path id="l" d="M192.916 231.003h51.981v30.613h-51.981z"/><path id="k" d="M136.026 219.709h49.61v34.516h-49.61z"/><path id="f" d="M20.787 14.926h243.639v67.382H20.787z"/><path id="c" d="M136.026 219.709h49.61v34.516h-49.61z"/><path id="D" d="M136.026 219.709h49.61v34.516h-49.61z"/><path id="a" d="M318.37 136.608h38.258v16.57H318.37z"/><path id="G" d="M348.144 127.418h49.547v16.895h-49.547z"/><path id="I" d="M136.026 219.709h49.61v34.516h-49.61z"/><path id="e" d="M136.026 219.709h49.61v34.516h-49.61z"/><path id="q" d="M162.354 360.869h48.711V387.8h-48.711z"/><path id="r" d="M277.52 359.005h57.998v26.049H277.52z"/><path id="M" d="M348.144 127.418h49.547v16.895h-49.547z"/><path id="O" d="M311.292 93.167h56.211v23.781h-56.211z"/><marker id="g" markerHeight="1" markerWidth="1" orient="auto-start-reverse" preserveAspectRatio="xMidYMid" refX="0" refY="0" style="overflow:visible" viewBox="0 0 1 1"><path d="M-.211-4.106 6.21-.894a1 1 90 0 1 0 1.788L-.21 4.106A1.236 1.236 31.717 0 1-2 3v-6A1.236 1.236 148.283 0 1-.211-4.106" style="fill:context-stroke;fill-rule:evenodd;stroke:none" transform="scale(.7)"/></marker><marker id="h" markerHeight="1" markerWidth="1" orient="auto-start-reverse" preserveAspectRatio="xMidYMid" refX="0" refY="0" style="overflow:visible" viewBox="0 0 1 1"><path d="M-.211-4.106 6.21-.894a1 1 90 0 1 0 1.788L-.21 4.106A1.236 1.236 31.717 0 1-2 3v-6A1.236 1.236 148.283 0 1-.211-4.106" style="fill:context-stroke;fill-rule:evenodd;stroke:none" transform="scale(.7)"/></marker><marker id="j" markerHeight="1" markerWidth="1" orient="auto-start-reverse" preserveAspectRatio="xMidYMid" refX="0" refY="0" style="overflow:visible" viewBox="0 0 1 1"><path d="M-.211-4.106 6.21-.894a1 1 90 0 1 0 1.788L-.21 4.106A1.236 1.236 31.717 0 1-2 3v-6A1.236 1.236 148.283 0 1-.211-4.106" style="fill:context-stroke;fill-rule:evenodd;stroke:none" transform="scale(.7)"/></marker><marker id="t" markerHeight="1" markerWidth="1" orient="auto-start-reverse" preserveAspectRatio="xMidYMid" refX="0" refY="0" style="overflow:visible" viewBox="0 0 1 1"><path d="M-.211-4.106 6.21-.894a1 1 90 0 1 0 1.788L-.21 4.106A1.236 1.236 31.717 0 1-2 3v-6A1.236 1.236 148.283 0 1-.211-4.106" style="fill:context-stroke;fill-rule:evenodd;stroke:none" transform="scale(.7)"/></marker><marker id="i" markerHeight="1" markerWidth="1" orient="auto-start-reverse" preserveAspectRatio="xMidYMid" refX="0" refY="0" style="overflow:visible" viewBox="0 0 1 1"><path d="M-.211-4.106 6.21-.894a1 1 90 0 1 0 1.788L-.21 4.106A1.236 1.236 31.717 0 1-2 3v-6A1.236 1.236 148.283 0 1-.211-4.106" style="fill:context-stroke;fill-rule:evenodd;stroke:none" transform="scale(.7)"/></marker><marker id="u" markerHeight="1" markerWidth="1" orient="auto-start-reverse" preserveAspectRatio="xMidYMid" refX="0" refY="0" style="overflow:visible" viewBox="0 0 1 1"><path d="M-.211-4.106 6.21-.894a1 1 90 0 1 0 1.788L-.21 4.106A1.236 1.236 31.717 0 1-2 3v-6A1.236 1.236 148.283 0 1-.211-4.106" style="fill:context-stroke;fill-rule:evenodd;stroke:none" transform="scale(.7)"/></marker><marker id="v" markerHeight="1" markerWidth="1" orient="auto-start-reverse" preserveAspectRatio="xMidYMid" refX="0" refY="0" style="overflow:visible" viewBox="0 0 1 1"><path d="M-.211-4.106 6.21-.894a1 1 90 0 1 0 1.788L-.21 4.106A1.236 1.236 31.717 0 1-2 3v-6A1.236 1.236 148.283 0 1-.211-4.106" style="fill:context-stroke;fill-rule:evenodd;stroke:none" transform="scale(.7)"/></marker><marker id="w" markerHeight="1" markerWidth="1" orient="auto-start-reverse" preserveAspectRatio="xMidYMid" refX="0" refY="0" style="overflow:visible" viewBox="0 0 1 1"><path d="M-.211-4.106 6.21-.894a1 1 90 0 1 0 1.788L-.21 4.106A1.236 1.236 31.717 0 1-2 3v-6A1.236 1.236 148.283 0 1-.211-4.106" style="fill:context-stroke;fill-rule:evenodd;stroke:none" transform="scale(.7)"/></marker><marker id="A" markerHeight="1" markerWidth="1" orient="auto-start-reverse" preserveAspectRatio="xMidYMid" refX="0" refY="0" style="overflow:visible" viewBox="0 0 1 1"><path d="M-.211-4.106 6.21-.894a1 1 90 0 1 0 1.788L-.21 4.106A1.236 1.236 31.717 0 1-2 3v-6A1.236 1.236 148.283 0 1-.211-4.106" style="fill:context-stroke;fill-rule:evenodd;stroke:none" transform="scale(.7)"/></marker><marker id="b" markerHeight="1" markerWidth="1" orient="auto-start-reverse" preserveAspectRatio="xMidYMid" refX="0" refY="0" style="overflow:visible" viewBox="0 0 1 1"><path d="M-.211-4.106 6.21-.894a1 1 90 0 1 0 1.788L-.21 4.106A1.236 1.236 31.717 0 1-2 3v-6A1.236 1.236 148.283 0 1-.211-4.106" style="fill:context-stroke;fill-rule:evenodd;stroke:none" transform="scale(.7)"/></marker><marker id="C" markerHeight="1" markerWidth="1" orient="auto-start-reverse" preserveAspectRatio="xMidYMid" refX="0" refY="0" style="overflow:visible" viewBox="0 0 1 1"><path d="M-.211-4.106 6.21-.894a1 1 90 0 1 0 1.788L-.21 4.106A1.236 1.236 31.717 0 1-2 3v-6A1.236 1.236 148.283 0 1-.211-4.106" style="fill:context-stroke;fill-rule:evenodd;stroke:none" transform="scale(.7)"/></marker><marker id="E" markerHeight="1" markerWidth="1" orient="auto-start-reverse" preserveAspectRatio="xMidYMid" refX="0" refY="0" style="overflow:visible" viewBox="0 0 1 1"><path d="M-.211-4.106 6.21-.894a1 1 90 0 1 0 1.788L-.21 4.106A1.236 1.236 31.717 0 1-2 3v-6A1.236 1.236 148.283 0 1-.211-4.106" style="fill:context-stroke;fill-rule:evenodd;stroke:none" transform="scale(.7)"/></marker><marker id="F" markerHeight="1" markerWidth="1" orient="auto-start-reverse" preserveAspectRatio="xMidYMid" refX="0" refY="0" style="overflow:visible" viewBox="0 0 1 1"><path d="M-.211-4.106 6.21-.894a1 1 90 0 1 0 1.788L-.21 4.106A1.236 1.236 31.717 0 1-2 3v-6A1.236 1.236 148.283 0 1-.211-4.106" style="fill:context-stroke;fill-rule:evenodd;stroke:none" transform="scale(.7)"/></marker><marker id="H" markerHeight="1" markerWidth="1" orient="auto-start-reverse" preserveAspectRatio="xMidYMid" refX="0" refY="0" style="overflow:visible" viewBox="0 0 1 1"><path d="M-.211-4.106 6.21-.894a1 1 90 0 1 0 1.788L-.21 4.106A1.236 1.236 31.717 0 1-2 3v-6A1.236 1.236 148.283 0 1-.211-4.106" style="fill:context-stroke;fill-rule:evenodd;stroke:none" transform="scale(.7)"/></marker><marker id="d" markerHeight="1" markerWidth="1" orient="auto-start-reverse" preserveAspectRatio="xMidYMid" refX="0" refY="0" style="overflow:visible" viewBox="0 0 1 1"><path d="M-.211-4.106 6.21-.894a1 1 90 0 1 0 1.788L-.21 4.106A1.236 1.236 31.717 0 1-2 3v-6A1.236 1.236 148.283 0 1-.211-4.106" style="fill:context-stroke;fill-rule:evenodd;stroke:none" transform="scale(.7)"/></marker><marker id="o" markerHeight="1" markerWidth="1" orient="auto-start-reverse" preserveAspectRatio="xMidYMid" refX="0" refY="0" style="overflow:visible" viewBox="0 0 1 1"><path d="M-.211-4.106 6.21-.894a1 1 90 0 1 0 1.788L-.21 4.106A1.236 1.236 31.717 0 1-2 3v-6A1.236 1.236 148.283 0 1-.211-4.106" style="fill:context-stroke;fill-rule:evenodd;stroke:none" transform="scale(.7)"/></marker><marker id="p" markerHeight="1" markerWidth="1" orient="auto-start-reverse" preserveAspectRatio="xMidYMid" refX="0" refY="0" style="overflow:visible" viewBox="0 0 1 1"><path d="M-.211-4.106 6.21-.894a1 1 90 0 1 0 1.788L-.21 4.106A1.236 1.236 31.717 0 1-2 3v-6A1.236 1.236 148.283 0 1-.211-4.106" style="fill:context-stroke;fill-rule:evenodd;stroke:none" transform="scale(.7)"/></marker><marker id="J" markerHeight="1" markerWidth="1" orient="auto-start-reverse" preserveAspectRatio="xMidYMid" refX="0" refY="0" style="overflow:visible" viewBox="0 0 1 1"><path d="M-.211-4.106 6.21-.894a1 1 90 0 1 0 1.788L-.21 4.106A1.236 1.236 31.717 0 1-2 3v-6A1.236 1.236 148.283 0 1-.211-4.106" style="fill:context-stroke;fill-rule:evenodd;stroke:none" transform="scale(.7)"/></marker><marker id="L" markerHeight="1" markerWidth="1" orient="auto-start-reverse" preserveAspectRatio="xMidYMid" refX="0" refY="0" style="overflow:visible" viewBox="0 0 1 1"><path d="M-.211-4.106 6.21-.894a1 1 90 0 1 0 1.788L-.21 4.106A1.236 1.236 31.717 0 1-2 3v-6A1.236 1.236 148.283 0 1-.211-4.106" style="fill:context-stroke;fill-rule:evenodd;stroke:none" transform="scale(.7)"/></marker><marker id="N" markerHeight="1" markerWidth="1" orient="auto-start-reverse" preserveAspectRatio="xMidYMid" refX="0" refY="0" style="overflow:visible" viewBox="0 0 1 1"><path d="M-.211-4.106 6.21-.894a1 1 90 0 1 0 1.788L-.21 4.106A1.236 1.236 31.717 0 1-2 3v-6A1.236 1.236 148.283 0 1-.211-4.106" style="fill:context-stroke;fill-rule:evenodd;stroke:none" transform="scale(.7)"/></marker></defs><path d="M27.058 200.365h102.928v80.157H27.058z" style="fill:#fff;stroke:#fff;stroke-width:.264583;stroke-linejoin:bevel"/><path d="M68.89 239.761v10.76m7.16-10.76v10.76m-10.407-21.099v10.34m-20.068-.132v-31.288m-9.819 31.694v-31.288m-.001 62.17V239.63m85.321-21.54H79.429" style="fill:none;stroke:#ececec;stroke-width:.264583px;stroke-linecap:butt;stroke-linejoin:miter;stroke-opacity:1"/><path d="M36.435 126.14h76.519v64.934H36.435zm-7.677-99.995h100.271v70.706H28.758z" style="fill:#fff;stroke:#fff;stroke-width:.264583;stroke-linejoin:bevel"/><path d="M73.434 138.635h-5.183" style="fill:none;stroke:#ececec;stroke-width:.264583px;stroke-linecap:butt;stroke-linejoin:miter;stroke-opacity:1"/><text xml:space="preserve" style="font-size:14.6667px;line-height:1.25;font-family:sans-serif;white-space:pre;shape-inside:url(#a);display:inline" transform="translate(-9.464 102.77)scale(.26458)"><tspan x="318.369" y="149.584">H1</tspan></text><path d="M93.452 168.691H63.891m29.561-9.553H63.891" style="fill:none;stroke:#ececec;stroke-width:.264583px;stroke-linecap:butt;stroke-linejoin:miter;stroke-opacity:1"/><path d="M93.165 167.206v-6.646" style="fill:none;stroke:#000;stroke-width:.264584;stroke-linecap:butt;stroke-linejoin:miter;stroke-opacity:1;marker-start:url(#b);marker-end:url(#b)"/><text xml:space="preserve" style="font-size:14.6667px;line-height:1.25;font-family:sans-serif;white-space:pre;shape-inside:url(#c);display:inline" transform="translate(57.251 103.8)scale(.26458)"><tspan x="136.025" y="232.686">D1</tspan></text><path d="M115.287 243.467h-5.33m5.198-7.806h-5.33" style="fill:none;stroke:#ececec;stroke-width:.264583px;stroke-linecap:butt;stroke-linejoin:miter;stroke-opacity:1"/><path d="M114.734 242.318v-5.458" style="fill:none;stroke:#000;stroke-width:.264584;stroke-linecap:butt;stroke-linejoin:miter;stroke-opacity:1;marker-start:url(#d);marker-end:url(#d)"/><text xml:space="preserve" style="font-size:14.6667px;line-height:1.25;font-family:sans-serif;white-space:pre;shape-inside:url(#e);display:inline" transform="translate(78.6 179.248)scale(.26458)"><tspan x="136.025" y="232.686">D1</tspan></text><path d="M111.144 67.411h-7.578m7.578-7.937h-7.578" style="fill:none;stroke:#ececec;stroke-width:.264583px;stroke-linecap:butt;stroke-linejoin:miter;stroke-opacity:1"/><path d="m34.14 85.246 56.386-17.703h12.907L72.771 85.246H34.14m36.866-47.931 1.765-.132v4.72l30.662 17.703H90.526l-19.52-6.128V37.315" style="fill:#ffd5d5;stroke:#ffd5d5;stroke-width:.264583px;stroke-linecap:butt;stroke-linejoin:bevel;stroke-opacity:1"/><path d="M43.677 41.903h20.639v-4.588h1.765V51.93l-23.02-7.227.616-2.8" style="fill:#ffd5d5;stroke:#ffd5d5;stroke-width:.264583px;stroke-linecap:butt;stroke-linejoin:miter;stroke-opacity:1"/><path d="M43.677 36.72v5.183m-9.491-5.169v5.184m31.895 10.246v5.184m4.967-3.87v3.866" style="fill:none;stroke:#ececec;stroke-width:.264583px;stroke-linecap:butt;stroke-linejoin:miter;stroke-opacity:1"/><text xml:space="preserve" style="font-size:14.6667px;line-height:1.25;font-family:sans-serif;white-space:pre;shape-inside:url(#f);display:inline" transform="scale(.26458)"><tspan x="20.787" y="27.902">myPartC.svg</tspan></text><path d="M34.14 85.246h38.63l30.662-17.703H90.526Z" style="fill:none;stroke:#4d4d4d;stroke-width:.26458333;stroke-linecap:butt;stroke-linejoin:bevel;stroke-opacity:1"/><path d="M34.14 41.903h38.63l30.662 17.703H90.526Z" style="fill:none;stroke:#4d4d4d;stroke-width:.264583px;stroke-linecap:butt;stroke-linejoin:bevel;stroke-opacity:1"/><path d="M34.872 88.421H71.67" style="fill:none;stroke:#000;stroke-width:.264583;stroke-linecap:butt;stroke-linejoin:miter;stroke-opacity:1;marker-start:url(#g);marker-end:url(#g)"/><path d="M73.906 88.421h28.91" style="fill:none;stroke:#000;stroke-width:.264583;stroke-linecap:butt;stroke-linejoin:miter;stroke-opacity:1;marker-start:url(#h);marker-end:url(#h)"/><path d="M111.144 66.383v-5.696" style="fill:none;stroke:#000;stroke-width:.264584;stroke-linecap:butt;stroke-linejoin:miter;stroke-opacity:1;marker-start:url(#i);marker-end:url(#i)"/><path d="m73.83 41.903 45.172-.044M73.83 85.246l45.172-.044" style="fill:none;stroke:#ececec;stroke-width:.264583px;stroke-linecap:butt;stroke-linejoin:miter;stroke-opacity:1"/><path d="M119.786 84.11V43.209" style="fill:none;stroke:#000;stroke-width:.264584;stroke-linecap:butt;stroke-linejoin:miter;stroke-opacity:1;marker-start:url(#j);marker-end:url(#j)"/><text xml:space="preserve" style="font-size:14.6667px;line-height:1.25;font-family:sans-serif;white-space:pre;shape-inside:url(#k);display:inline" transform="translate(75.348 3.337)scale(.26458)"><tspan x="136.025" y="232.686">D1</tspan></text><text xml:space="preserve" style="font-size:14.6667px;line-height:1.25;font-family:sans-serif;white-space:pre;shape-inside:url(#l);display:inline" transform="translate(69.195 .535)scale(.26458)"><tspan x="192.916" y="243.981">D2</tspan></text><path d="M103.826 68.073v19.691" style="fill:none;stroke:#ececec;stroke-width:.264583px;stroke-linecap:butt;stroke-linejoin:miter;stroke-opacity:1"/><text xml:space="preserve" style="font-size:14.6667px;line-height:1.25;font-family:sans-serif;white-space:pre;shape-inside:url(#m);display:inline" transform="translate(10.163 -6.713)scale(.26458)"><tspan x="162.354" y="373.846">L1</tspan></text><text xml:space="preserve" style="font-size:14.6667px;line-height:1.25;font-family:sans-serif;white-space:pre;shape-inside:url(#n);display:inline" transform="translate(16.037 -6.401)scale(.26458)"><tspan x="277.52" y="371.982">L2</tspan></text><path d="M37.14 270.918h40.596" style="fill:none;stroke:#000;stroke-width:.264583;stroke-linecap:butt;stroke-linejoin:miter;stroke-opacity:1;marker-start:url(#o);marker-end:url(#o)"/><path d="M80.66 271.154h28.398" style="fill:none;stroke:#000;stroke-width:.264583;stroke-linecap:butt;stroke-linejoin:miter;stroke-opacity:1;marker-start:url(#p);marker-end:url(#p)"/><text xml:space="preserve" style="font-size:14.6667px;line-height:1.25;font-family:sans-serif;white-space:pre;shape-inside:url(#q);display:inline" transform="translate(12.285 176.403)scale(.26458)"><tspan x="162.354" y="373.846">L1</tspan></text><text xml:space="preserve" style="font-size:14.6667px;line-height:1.25;font-family:sans-serif;white-space:pre;shape-inside:url(#r);display:inline" transform="translate(19.12 176.398)scale(.26458)"><tspan x="277.52" y="371.982">L2</tspan></text><text xml:space="preserve" style="font-size:14.6667px;line-height:1.25;font-family:sans-serif;white-space:pre;shape-inside:url(#s);display:inline" transform="translate(-1.133 -34.958)scale(.26458)"><tspan x="364.332" y="378.426">L3</tspan></text><path d="M34.186 41.903v43.475" style="fill:#999;stroke:#999;stroke-width:.264583px;stroke-linecap:butt;stroke-linejoin:miter;stroke-opacity:1"/><path d="M90.526 59.606v7.937m12.907-7.937v7.937" style="fill:none;stroke:#999;stroke-width:.264583px;stroke-linecap:butt;stroke-linejoin:miter;stroke-opacity:1"/><path d="M91.995 65.896h10.292" style="fill:none;stroke:#000;stroke-width:.264583;stroke-linecap:butt;stroke-linejoin:miter;stroke-opacity:1;marker-start:url(#t);marker-end:url(#t)"/><path d="M64.316 37.315h8.456v4.588h-8.456zm76.752-24.239h4.925v18.35h-4.925z" style="fill:none;stroke:#4d4d4d;stroke-width:.264583;stroke-linejoin:bevel"/><path d="M66.081 37.315h4.925v16.163l-4.925-1.547V37.315" style="fill:none;stroke:#000;stroke-width:.264583px;stroke-linecap:butt;stroke-linejoin:miter;stroke-opacity:1"/><path d="M139.303 13.076h8.456v4.588h-8.456z" style="fill:none;stroke:#4d4d4d;stroke-width:.264583;stroke-linejoin:bevel"/><path d="M67.201 56.563h2.502" style="fill:none;stroke:#000;stroke-width:.264583;stroke-linecap:butt;stroke-linejoin:miter;stroke-opacity:1;marker-start:url(#u);marker-end:url(#u)"/><path d="M64.316 32v5.183M72.771 32v5.183" style="fill:none;stroke:#ececec;stroke-width:.264583px;stroke-linecap:butt;stroke-linejoin:miter;stroke-opacity:1"/><path d="M65.62 31.999h5.773" style="fill:none;stroke:#000;stroke-width:.264583;stroke-linecap:butt;stroke-linejoin:miter;stroke-opacity:1;marker-start:url(#v);marker-end:url(#v)"/><path d="M78.087 37.315h-5.183" style="fill:none;stroke:#ececec;stroke-width:.264583px;stroke-linecap:butt;stroke-linejoin:miter;stroke-opacity:1"/><path d="M78.087 38.5v2.102" style="fill:none;stroke:#000;stroke-width:.264583;stroke-linecap:butt;stroke-linejoin:miter;stroke-opacity:1;marker-start:url(#w);marker-end:url(#w)"/><text xml:space="preserve" style="font-size:14.6667px;line-height:1.25;font-family:sans-serif;white-space:pre;shape-inside:url(#x);display:inline" transform="translate(-4.811 1.45)scale(.26458)"><tspan x="318.369" y="149.584">H1</tspan></text><text xml:space="preserve" style="font-size:14.6667px;line-height:1.25;font-family:sans-serif;white-space:pre;shape-inside:url(#y);display:inline" transform="translate(-16.753 32.806)scale(.26458)"><tspan x="311.293" y="106.143">D3</tspan></text><text xml:space="preserve" style="font-size:14.6667px;line-height:1.25;font-family:sans-serif;white-space:pre;shape-inside:url(#z);display:inline" transform="translate(-25.845 -6.251)scale(.26458)"><tspan x="348.145" y="140.395">D4</tspan></text><path d="M34.14 85.246q-.327-.573 0 0m0 0 9.537-43.343" style="fill:none;stroke:#000;stroke-width:.264583px;stroke-linecap:butt;stroke-linejoin:miter;stroke-opacity:1"/><path d="M35.371 36.734H42.3" style="fill:none;stroke:#000;stroke-width:.264583;stroke-linecap:butt;stroke-linejoin:miter;stroke-opacity:1;marker-start:url(#A);marker-end:url(#A)"/><text xml:space="preserve" style="font-size:14.6667px;line-height:1.25;font-family:sans-serif;white-space:pre;shape-inside:url(#B);display:inline" transform="translate(5.733 8.255)scale(.26458)"><tspan x="116.367" y="101.727">L4</tspan></text><circle cx="63.891" cy="163.915" r="4.777" style="fill:none;stroke:#999;stroke-width:.264583;stroke-linejoin:bevel"/><circle cx="63.891" cy="163.915" r="20.691" style="fill:none;stroke:#999;stroke-width:.264583;stroke-linejoin:bevel"/><path d="M105.537 143.224H63.891m41.646 41.646H63.891" style="fill:none;stroke:#ececec;stroke-width:.264583px;stroke-linecap:butt;stroke-linejoin:miter;stroke-opacity:1"/><path d="M105.08 183.267V144.5" style="fill:none;stroke:#000;stroke-width:.264585;stroke-linecap:butt;stroke-linejoin:miter;stroke-opacity:1;marker-start:url(#C);marker-end:url(#C)"/><text xml:space="preserve" style="font-size:14.6667px;line-height:1.25;font-family:sans-serif;white-space:pre;shape-inside:url(#D);display:inline" transform="translate(69.166 103.8)scale(.26458)"><tspan x="136.025" y="232.686">D2</tspan></text><path d="M59.663 138.635h8.455v4.996s-.855-.165-1.286-.229c-.51-.076-1.021-.155-1.536-.184-.693-.04-1.388-.015-2.082.01q-.901.033-1.799.124c-.58.061-1.732.245-1.732.245z" style="fill:none;stroke:#000;stroke-width:.264583px;stroke-linecap:butt;stroke-linejoin:miter;stroke-opacity:1"/><path d="M73.556 139.882v2.102" style="fill:none;stroke:#000;stroke-width:.264583;stroke-linecap:butt;stroke-linejoin:miter;stroke-opacity:1;marker-start:url(#E);marker-end:url(#E)"/><path d="M59.663 133.32v5.183m8.455-5.183v5.183" style="fill:none;stroke:#ececec;stroke-width:.264583px;stroke-linecap:butt;stroke-linejoin:miter;stroke-opacity:1"/><path d="M60.968 133.32h5.772" style="fill:none;stroke:#000;stroke-width:.264583;stroke-linecap:butt;stroke-linejoin:miter;stroke-opacity:1;marker-start:url(#F);marker-end:url(#F)"/><text xml:space="preserve" style="font-size:14.6667px;line-height:1.25;font-family:sans-serif;white-space:pre;shape-inside:url(#G);display:inline" transform="translate(-30.498 95.07)scale(.26458)"><tspan x="348.145" y="140.395">D4</tspan></text><path d="M40.531 217.959h38.632l30.662 17.702.132 7.806-30.794 17.835-38.585-.211z" style="fill:none;stroke:#000;stroke-width:.264583px;stroke-linecap:butt;stroke-linejoin:miter;stroke-opacity:1"/><path d="M79.297 218.09v43.343" style="fill:none;stroke:#666;stroke-width:.264583px;stroke-linecap:butt;stroke-linejoin:miter;stroke-opacity:1"/><ellipse cx="40.665" cy="239.63" rx="4.91" ry="21.54" style="fill:#fff;stroke:#666;stroke-width:.264583;stroke-linejoin:bevel"/><ellipse cx="39.606" cy="239.63" rx="3.851" ry="16.78" style="fill:#fff;stroke:#666;stroke-width:.264583;stroke-linejoin:bevel"/><path d="M121.076 261.565H79.429" style="fill:none;stroke:#ececec;stroke-width:.264583px;stroke-linecap:butt;stroke-linejoin:miter;stroke-opacity:1"/><path d="M121.677 260.124v-40.568" style="fill:none;stroke:#000;stroke-width:.264585;stroke-linecap:butt;stroke-linejoin:miter;stroke-opacity:1;marker-start:url(#H);marker-end:url(#H)"/><text xml:space="preserve" style="font-size:14.6667px;line-height:1.25;font-family:sans-serif;white-space:pre;shape-inside:url(#I);display:inline" transform="translate(85.792 179.167)scale(.26458)"><tspan x="136.025" y="232.686">D2</tspan></text><path d="M110.156 270.393V243.6m-30.859 27.554v-9.721" style="fill:none;stroke:#ececec;stroke-width:.264583px;stroke-linecap:butt;stroke-linejoin:miter;stroke-opacity:1"/><path d="M37.275 208.845h6.914" style="fill:none;stroke:#000;stroke-width:.264583;stroke-linecap:butt;stroke-linejoin:miter;stroke-opacity:1;marker-start:url(#J);marker-end:url(#J)"/><text xml:space="preserve" style="font-size:14.6667px;line-height:1.25;font-family:sans-serif;white-space:pre;shape-inside:url(#K);display:inline" transform="translate(2.275 6.924)scale(.26458)"><tspan x="135.012" y="758.709">L4</tspan></text><circle cx="72.47" cy="239.761" r="6.827" style="fill:none;stroke:#666;stroke-width:.264583;stroke-linejoin:bevel"/><circle cx="72.47" cy="239.761" r="3.58" style="fill:none;stroke:#666;stroke-width:.264583;stroke-linejoin:bevel"/><path d="M67.243 229.422h10.42" style="fill:none;stroke:#000;stroke-width:.264582;stroke-linecap:butt;stroke-linejoin:miter;stroke-opacity:1;marker-start:url(#L);marker-end:url(#L)"/><text xml:space="preserve" style="font-size:14.6667px;line-height:1.25;font-family:sans-serif;white-space:pre;shape-inside:url(#M);display:inline" transform="translate(-22.401 191.172)scale(.26458)"><tspan x="348.145" y="140.395">D4</tspan></text><path d="M70.448 250.673h4.318" style="fill:none;stroke:#000;stroke-width:.264583;stroke-linecap:butt;stroke-linejoin:miter;stroke-opacity:1;marker-start:url(#N);marker-end:url(#N)"/><text xml:space="preserve" style="font-size:14.6667px;line-height:1.25;font-family:sans-serif;white-space:pre;shape-inside:url(#O);display:inline" transform="translate(-12.629 226.917)scale(.26458)"><tspan x="311.293" y="106.143">D3</tspan></text></svg>