<svg xmlns="http://www.w3.org/2000/svg" width="194.771" height="94.58" viewBox="0 0 51.533 25.024"><defs><path id="h" d="M88.796 525.289h47.145v24.871H88.796z"/><path id="a" d="M105.412 519.481h29.833v19.705h-29.833z"/><path id="b" d="M105.412 519.481h29.833v19.705h-29.833z"/><path id="c" d="M105.412 519.481h29.833v19.705h-29.833z"/><path id="i" d="M88.796 525.289h47.145v24.871H88.796z"/><path id="j" d="M88.796 525.289h47.145v24.871H88.796z"/><path id="k" d="M88.796 525.289h47.145v24.871H88.796z"/><marker id="d" markerHeight="1" markerWidth="1" orient="auto-start-reverse" preserveAspectRatio="xMidYMid" refX="0" refY="0" style="overflow:visible" viewBox="0 0 1 1"><path d="M-.211-4.106 6.21-.894a1 1 90 0 1 0 1.788L-.21 4.106A1.236 1.236 31.717 0 1-2 3v-6A1.236 1.236 148.283 0 1-.211-4.106" style="fill:context-stroke;fill-rule:evenodd;stroke:none" transform="scale(.7)"/></marker><marker id="e" markerHeight="1" markerWidth="1" orient="auto-start-reverse" preserveAspectRatio="xMidYMid" refX="0" refY="0" style="overflow:visible" viewBox="0 0 1 1"><path d="M-.211-4.106 6.21-.894a1 1 90 0 1 0 1.788L-.21 4.106A1.236 1.236 31.717 0 1-2 3v-6A1.236 1.236 148.283 0 1-.211-4.106" style="fill:context-stroke;fill-rule:evenodd;stroke:none" transform="scale(.7)"/></marker><marker id="f" markerHeight="1" markerWidth="1" orient="auto-start-reverse" preserveAspectRatio="xMidYMid" refX="0" refY="0" style="overflow:visible" viewBox="0 0 1 1"><path d="M-.211-4.106 6.21-.894a1 1 90 0 1 0 1.788L-.21 4.106A1.236 1.236 31.717 0 1-2 3v-6A1.236 1.236 148.283 0 1-.211-4.106" style="fill:context-stroke;fill-rule:evenodd;stroke:none" transform="scale(.7)"/></marker><marker id="g" markerHeight="1" markerWidth="1" orient="auto-start-reverse" preserveAspectRatio="xMidYMid" refX="0" refY="0" style="overflow:visible" viewBox="0 0 1 1"><path d="M-.211-4.106 6.21-.894a1 1 90 0 1 0 1.788L-.21 4.106A1.236 1.236 31.717 0 1-2 3v-6A1.236 1.236 148.283 0 1-.211-4.106" style="fill:context-stroke;fill-rule:evenodd;stroke:none" transform="scale(.7)"/></marker></defs><path d="M30.27 157.36h51.269v24.76H30.27z" style="fill:#fff;stroke:#fff;stroke-width:.264583;stroke-linejoin:bevel" transform="translate(-30.138 -157.228)"/><path d="m38.35 180.261 3.83-5.918 5.954-3.54 7.194-1.517h7.57" style="fill:none;stroke:#000;stroke-width:.264583px;stroke-linecap:butt;stroke-linejoin:miter;stroke-opacity:1" transform="translate(-30.138 -157.228)"/><path d="m79.876 180.261-3.83-5.918-5.953-3.54-7.194-1.517h-7.57M38.35 180.261h41.526" style="fill:none;stroke:#000;stroke-width:.264583px;stroke-linecap:butt;stroke-linejoin:miter;stroke-opacity:1" transform="translate(-30.138 -157.228)"/><path d="M42.18 174.343h8.785m-2.831-3.541h8.785m-17.128 7.291s1.048.51 1.294.996c.162.319.025 1.072.025 1.072" style="fill:none;stroke:#ccc;stroke-width:.264583px;stroke-linecap:butt;stroke-linejoin:miter;stroke-opacity:1" transform="translate(-30.138 -157.228)"/><text xml:space="preserve" style="font-size:14.6667px;line-height:1.25;font-family:sans-serif;white-space:pre;shape-inside:url(#a);display:inline;fill:#a40" transform="translate(-16.817 -118.467)scale(.26458)"><tspan x="105.412" y="532.457">60°</tspan></text><path d="M44.964 172.843s.464.351.573.686c.072.22.011.738.011.738" style="fill:none;stroke:#ccc;stroke-width:.264583px;stroke-linecap:butt;stroke-linejoin:miter;stroke-opacity:1" transform="translate(-30.138 -157.228)"/><text xml:space="preserve" style="font-size:14.6667px;line-height:1.25;font-family:sans-serif;white-space:pre;shape-inside:url(#b);display:inline;fill:#a40" transform="translate(-12.153 -122.859)scale(.26458)"><tspan x="105.412" y="532.457">40°</tspan></text><path d="M54.125 169.587s.291.318.36.62c.044.2.006.67.006.67" style="fill:none;stroke:#ccc;stroke-width:.264582px;stroke-linecap:butt;stroke-linejoin:miter;stroke-opacity:1" transform="translate(-30.138 -157.228)"/><text xml:space="preserve" style="font-size:14.6667px;line-height:1.25;font-family:sans-serif;white-space:pre;shape-inside:url(#c);display:inline;fill:#a40" transform="translate(-3.729 -124.808)scale(.26458)"><tspan x="105.412" y="532.457">20°</tspan></text><path d="m55.53 169.342-.07-6.854m7.189 6.709.117-6.709" style="fill:none;stroke:#ccc;stroke-width:.264583px;stroke-linecap:butt;stroke-linejoin:miter;stroke-opacity:1" transform="translate(-30.138 -157.228)"/><path d="M56.795 162.564h4.63" style="fill:none;stroke:#000;stroke-width:.264583px;stroke-linecap:butt;stroke-linejoin:miter;stroke-opacity:1;marker-start:url(#d);marker-end:url(#d)" transform="translate(-30.138 -157.228)"/><path d="m55.44 169.268-1.552-6.658m-5.754 8.192-1.561-6.544m1.6 6.587-3.54-5.954m-2.453 9.452-3.54-5.954" style="fill:none;stroke:#ccc;stroke-width:.264583px;stroke-linecap:butt;stroke-linejoin:miter;stroke-opacity:1" transform="translate(-30.138 -157.228)"/><path d="m48.112 164.112 4.533-.992" style="fill:none;stroke:#000;stroke-width:.264583px;stroke-linecap:butt;stroke-linejoin:miter;stroke-opacity:1;marker-start:url(#e);marker-end:url(#e)" transform="translate(-30.138 -157.228)"/><path d="m39.867 167.595 3.485-2.01" style="fill:none;stroke:#000;stroke-width:.264583px;stroke-linecap:butt;stroke-linejoin:miter;stroke-opacity:1;marker-start:url(#f);marker-end:url(#f)" transform="translate(-30.138 -157.228)"/><path d="m42.161 174.3-5.918-3.83m2.166 9.752-5.918-3.83" style="fill:none;stroke:#ccc;stroke-width:.264583px;stroke-linecap:butt;stroke-linejoin:miter;stroke-opacity:1" transform="translate(-30.138 -157.228)"/><path d="m33.403 175.304 2.285-3.51" style="fill:none;stroke:#000;stroke-width:.264583px;stroke-linecap:butt;stroke-linejoin:miter;stroke-opacity:1;marker-start:url(#g);marker-end:url(#g)" transform="translate(-30.138 -157.228)"/><text xml:space="preserve" style="font-size:14.6667px;line-height:1.25;font-family:sans-serif;white-space:pre;shape-inside:url(#h);display:inline" transform="translate(-22.083 -126.428)scale(.26458)"><tspan x="88.797" y="538.266">S</tspan></text><text xml:space="preserve" style="font-size:14.6667px;line-height:1.25;font-family:sans-serif;white-space:pre;shape-inside:url(#i);display:inline" transform="translate(-14.374 -133.908)scale(.26458)"><tspan x="88.797" y="538.266">S</tspan></text><text xml:space="preserve" style="font-size:14.6667px;line-height:1.25;font-family:sans-serif;white-space:pre;shape-inside:url(#j);display:inline" transform="translate(-5.46 -136.887)scale(.26458)"><tspan x="88.797" y="538.266">S</tspan></text><text xml:space="preserve" style="font-size:14.6667px;line-height:1.25;font-family:sans-serif;white-space:pre;shape-inside:url(#k);display:inline" transform="translate(4.15 -137.794)scale(.26458)"><tspan x="88.797" y="538.266">S</tspan></text></svg>