<svg xmlns="http://www.w3.org/2000/svg" width="201" height="201" viewBox="0 0 53.181 53.181"><defs><marker id="a" markerHeight="1" markerWidth="1" orient="auto-start-reverse" preserveAspectRatio="xMidYMid" refX="0" refY="0" style="overflow:visible" viewBox="0 0 1 1"><path d="M-.211-4.106 6.21-.894a1 1 90 0 1 0 1.788L-.21 4.106A1.236 1.236 31.717 0 1-2 3v-6A1.236 1.236 148.283 0 1-.211-4.106" style="fill:context-stroke;fill-rule:evenodd;stroke:none" transform="scale(0.7)"/></marker><marker id="b" markerHeight="1" markerWidth="1" orient="auto-start-reverse" preserveAspectRatio="xMidYMid" refX="0" refY="0" style="overflow:visible" viewBox="0 0 1 1"><path d="M-.211-4.106 6.21-.894a1 1 90 0 1 0 1.788L-.21 4.106A1.236 1.236 31.717 0 1-2 3v-6A1.236 1.236 148.283 0 1-.211-4.106" style="fill:context-stroke;fill-rule:evenodd;stroke:none" transform="scale(0.7)"/></marker><path id="c" d="M308.663 884.301h55.488v42.891h-55.488z"/></defs><path d="M18.291 191.919h52.917v52.917H18.291z" style="fill:#fff;stroke:#fff;stroke-width:.264583;stroke-linejoin:bevel" transform="translate(-18.158228,-191.78658)"/><path d="M21.391 212.755h47.437v7.003H21.391z" style="fill:none;stroke:#ccc;stroke-width:.264583;stroke-linejoin:bevel" transform="translate(-18.158228,-191.78658)"/><path d="M22.58 228.983h45.06" style="fill:none;stroke:#000;stroke-width:.264583px;stroke-linecap:butt;stroke-linejoin:miter;stroke-opacity:1;marker-start:url(#a);marker-end:url(#b)" transform="translate(-18.158228,-191.78658)"/><text xml:space="preserve" style="font-size:14.6667px;line-height:1.25;font-family:sans-serif;white-space:pre;shape-inside:url(#c)" transform="translate(-18.158228,-191.78658) matrix(0.26458333,0,0,0.26458333,-39.827148,-4.0141601)"><tspan x="308.662" y="897.277">L1</tspan></text><path d="M21.391 205.647h47.437v21.22H21.391z" style="fill:none;stroke:#666;stroke-width:.264583;stroke-linejoin:bevel" transform="translate(-18.158228,-191.78658)"/></svg>