<?xml version="1.0" encoding="UTF-8" standalone="no"?>
<!-- Created with Inkscape (http://www.inkscape.org/) -->

<svg
   width="600"
   height="3000"
   viewBox="0 0 158.75 793.75"
   version="1.1"
   id="svg1"
   inkscape:version="1.3.2 (1:1.3.2+202311252150+091e20ef0f)"
   sodipodi:docname="myPartR.svg"
   xmlns:inkscape="http://www.inkscape.org/namespaces/inkscape"
   xmlns:sodipodi="http://sodipodi.sourceforge.net/DTD/sodipodi-0.dtd"
   xmlns="http://www.w3.org/2000/svg"
   xmlns:svg="http://www.w3.org/2000/svg">
  <sodipodi:namedview
     id="namedview1"
     pagecolor="#ffffff"
     bordercolor="#666666"
     borderopacity="1.0"
     inkscape:showpageshadow="2"
     inkscape:pageopacity="0.0"
     inkscape:pagecheckerboard="0"
     inkscape:deskcolor="#d1d1d1"
     inkscape:document-units="px"
     inkscape:zoom="1.4967094"
     inkscape:cx="396.87064"
     inkscape:cy="485.73225"
     inkscape:window-width="1370"
     inkscape:window-height="836"
     inkscape:window-x="0"
     inkscape:window-y="0"
     inkscape:window-maximized="1"
     inkscape:current-layer="layer1" />
  <defs
     id="defs1">
    <rect
       x="23.238189"
       y="10.814469"
       width="238.61959"
       height="52.057087"
       id="rect1" />
  </defs>
  <g
     inkscape:label="Layer 1"
     inkscape:groupmode="layer"
     id="layer1">
    <text
       xml:space="preserve"
       transform="scale(0.26458333)"
       id="text1"
       style="font-size:14.6667px;line-height:1.25;font-family:sans-serif;white-space:pre;shape-inside:url(#rect1)"><tspan
         x="23.238281"
         y="23.791045"
         id="tspan1">myPartR.svg</tspan></text>
    <path
       style="fill:none;stroke:#000000;stroke-width:0.264583px;stroke-linecap:butt;stroke-linejoin:miter;stroke-opacity:1"
       d="m 28.362992,36.199863 12.76314,-9.099167 7.552369,-1.849941 1.520556,3.507913 5.398595,1.045467 0.05619,51.481047 -21.284658,-0.0342 c 0,0 10.062565,-19.903757 12.181708,-30.710806 0.753661,-3.843465 0.902504,-7.913114 0.113287,-11.749436 -0.439814,-2.1379 -2.642638,-5.991072 -2.642638,-5.991072 l -13.339042,7.46329 z"
       id="path1"
       sodipodi:nodetypes="cccccccaaccc" />
    <path
       style="fill:none;stroke:#000000;stroke-width:0.264583px;stroke-linecap:butt;stroke-linejoin:miter;stroke-opacity:1"
       d="m 82.832312,36.199863 -12.76314,-9.099167 -7.552369,-1.849941 -1.520556,3.507913 -5.398595,1.045467 -0.05619,51.481047 21.284658,-0.0342 c 0,0 -10.062565,-19.903757 -12.181708,-30.710806 -0.753661,-3.843465 -0.902504,-7.913114 -0.113287,-11.749436 0.439814,-2.1379 2.642638,-5.991072 2.642638,-5.991072 l 13.339042,7.46329 z"
       id="path1-9"
       sodipodi:nodetypes="cccccccaaccc" />
    <path
       style="fill:none;stroke:#000000;stroke-width:0.264583px;stroke-linecap:butt;stroke-linejoin:miter;stroke-opacity:1"
       d="m 49.325531,114.5685 12.763141,-9.09916 7.552372,-1.84994 1.52055,3.50791 5.3986,1.04546 5.39859,-1.04546 1.52056,-3.50791 7.55237,1.84994 12.763136,9.09916 -2.31951,4.0631 -13.339036,-7.46329 c 0,0 -2.20283,3.85317 -2.64264,5.99107 -0.78922,3.83632 -0.64037,7.90597 0.11329,11.74943 2.11914,10.80705 12.18171,30.71081 12.18171,30.71081 h -42.45694 c 0,0 10.06257,-19.90376 12.18171,-30.71081 0.75366,-3.84346 0.9025,-7.91311 0.11328,-11.74943 -0.43981,-2.1379 -2.64263,-5.99107 -2.64263,-5.99107 l -13.339046,7.46329 z"
       id="path2"
       sodipodi:nodetypes="cccccccccccaaccaaccc" />
    <path
       style="fill:none;stroke:#000000;stroke-width:0.264583px;stroke-linecap:butt;stroke-linejoin:miter;stroke-opacity:1"
       d="m 96.933703,60.204897 4.907627,-20.40528 h 12.92542 v 10.23924 l -5.93652,12.70582 z"
       id="path3" />
    <path
       style="fill:none;stroke:#000000;stroke-width:0.264583px;stroke-linecap:butt;stroke-linejoin:miter;stroke-opacity:1"
       d="m 132.86437,60.204897 -4.90763,-20.40528 h -12.92541 v 10.23924 l 5.93652,12.70582 z"
       id="path3-5" />
    <path
       style="fill:none;stroke:#000000;stroke-width:0.264583px;stroke-linecap:butt;stroke-linejoin:miter;stroke-opacity:1"
       d="m 64.827995,190.79384 h 26.115411 l 4.90763,20.40528 -11.89652,2.53978 -6.2011,-12.70582 -5.93652,12.70582 -11.896527,-2.53978 z"
       id="path4" />
  </g>
</svg>
